<svg version="1.1" xmlns="http://www.w3.org/2000/svg" viewBox="0 0 1024 1024" style="width: 100%; height: 100%;"><path d="M219.00,1.00 C221.71,1.00 222.50,0.78 222.50,-0.00 L225.44,0.00 C224.97,0.87 229.06,2.00 228.50,-0.00 L796.94,0.00 C797.40,1.93 802.47,0.61 804.56,1.00 C812.38,1.00 815.05,1.23 818.25,2.17 L823.99,3.08 C846.34,5.43 867.21,12.51 884.25,19.38 C935.79,40.83 976.36,80.06 999.37,128.75 C1008.69,148.79 1016.30,170.75 1020.54,195.75 L1020.84,199.25 L1021.57,202.75 L1021.90,207.25 L1022.00,209.44 C1022.00,211.42 1022.23,212.00 1023.00,212.00 L1023.00,219.50 C1023.00,222.21 1023.23,223.00 1024.00,223.00 L1024.00,801.50 C1023.23,801.50 1023.01,802.18 1023.05,804.53 C1023.23,809.61 1022.38,813.76 1021.98,816.75 C1021.23,819.66 1021.15,820.50 1021.60,820.51 C1015.37,863.66 1000.83,899.69 980.06,928.25 C956.62,961.25 925.59,987.06 886.25,1003.94 C877.01,1007.66 867.45,1011.74 857.03,1014.10 C855.50,1014.02 854.92,1014.22 854.45,1014.96 C848.65,1016.25 842.37,1018.30 836.02,1019.11 C834.69,1018.63 832.79,1019.32 832.25,1019.98 C824.96,1021.34 814.16,1023.30 805.50,1023.25 C804.89,1023.05 798.59,1022.30 798.30,1024.00 L221.00,1024.00 C221.00,1023.23 220.31,1023.00 217.95,1023.02 C213.77,1023.25 208.15,1022.88 205.75,1021.93 C204.75,1021.67 201.21,1020.29 200.25,1021.50 L198.75,1020.94 C198.25,1020.66 194.87,1019.62 194.77,1020.57 C163.93,1015.32 136.03,1005.03 112.75,991.32 C70.26,966.87 36.46,927.97 17.66,879.75 C9.15,857.13 2.16,832.92 1.00,803.00 C1.00,800.67 0.78,800.00 -0.00,800.00 L-0.00,224.50 C0.79,224.50 1.00,223.55 0.98,219.95 C0.62,215.50 1.36,210.02 2.04,207.25 C2.34,206.52 3.72,203.44 2.48,202.75 L3.04,199.75 C3.73,198.79 4.47,196.52 3.43,195.25 L7.39,176.75 C13.16,153.55 22.04,130.99 32.25,113.75 C65.28,56.84 118.96,17.46 194.48,3.35 L198.75,3.09 L200.41,3.07 L207.75,2.11 L210.25,1.41 C211.28,2.69 215.49,1.27 216.75,1.06 L219.00,1.00 Z" fill="#107AFB" fill-rule="nonzero"/><g><path d="M360.50,263.67 L657.50,263.67 C686.60,261.41 702.29,275.53 707.48,297.75 L707.50,723.99 C702.28,746.81 687.06,760.31 656.75,758.20 L352.25,758.21 C330.89,755.78 318.15,742.24 315.03,722.75 C315.37,581.77 313.94,439.02 314.75,299.75 C319.06,277.06 333.78,263.05 360.50,263.67 Z" fill="#FEFEFD" fill-rule="nonzero"/><g><path d="M680.64,592.75 L625.12,522.22 C599.35,497.19 583.89,532.52 572.20,545.75 C564.08,555.73 556.81,567.24 548.10,576.06 L456.37,433.54 C445.55,420.07 426.62,420.35 416.21,433.25 C391.21,471.37 367.44,510.28 341.75,547.75 C341.35,470.14 341.30,386.54 341.77,309.75 C344.96,300.47 350.97,294.53 361.09,292.50 L662.25,292.53 C672.73,295.15 680.77,302.84 680.65,315.07 C681.23,406.43 681.25,501.61 680.64,592.75 Z" fill="#60BAFB" fill-rule="nonzero"/><path d="M587.75,333.81 L593.81,333.78 C656.29,340.14 652.21,430.51 586.75,429.00 C528.73,421.50 528.34,340.37 587.75,333.81 Z" fill="#FDC803" fill-rule="nonzero"/><g><path d="M548.10,576.06 C539.05,590.25 527.80,603.08 517.81,616.75 L432.50,729.06 L432.50,730.50 L361.75,730.50 C350.75,728.48 343.09,721.40 341.73,710.44 C341.36,657.42 341.32,599.50 341.75,547.75 C367.44,510.28 391.21,471.37 416.21,433.25 C426.62,420.35 445.55,420.07 456.37,433.54 L548.10,576.06 Z" fill="#048B55" fill-rule="nonzero"/><path d="M680.64,592.75 L680.64,713.31 C677.42,722.52 671.23,728.68 660.79,730.50 L432.50,730.50 L432.50,729.06 L517.81,616.75 C527.80,603.08 539.05,590.25 548.10,576.06 C556.81,567.24 564.08,555.73 572.20,545.75 C583.89,532.52 599.35,497.19 625.12,522.22 L680.64,592.75 Z" fill="#3DB072" fill-rule="nonzero"/></g></g></g><path d="M587.75,333.81 L593.81,333.78 L587.75,333.81 Z" fill="#FEFEFD" fill-rule="nonzero"/><path d="M862.37,621.25 C889.02,770.08 781.11,881.37 652.25,888.25 C650.09,902.26 658.29,923.03 638.93,921.00 C638.11,920.83 568.94,868.96 566.98,866.42 C565.23,864.14 564.70,858.84 566.70,855.91 L636.25,801.77 C641.95,797.59 649.45,800.84 651.75,807.17 L652.25,834.25 C761.91,843.66 856.17,734.60 837.37,622.50 C840.26,608.73 858.67,609.14 862.37,621.25 Z" fill="#FEFEFD" fill-rule="nonzero"/><path d="M383.19,108.16 L453.00,160.53 C455.67,163.75 455.67,168.20 452.98,171.50 C450.62,174.40 381.28,225.26 379.75,225.57 C361.86,226.55 369.18,207.05 367.25,192.75 C259.55,183.51 163.35,291.50 183.66,402.25 C181.42,417.70 161.69,417.90 158.05,404.25 C130.94,254.88 238.21,147.46 367.95,139.49 L368.25,113.75 C370.96,108.74 376.12,104.99 383.19,108.16 Z" fill="#FEFEFD" fill-rule="nonzero"/><path d="M656.75,758.20 L352.25,758.21 L656.75,758.20 Z" fill="#60BAFB" fill-rule="nonzero"/><path d="M657.50,263.67 L360.50,263.67 L657.50,263.67 Z" fill="#60BAFB" fill-rule="nonzero"/><path d="M207.75,2.11 L200.41,3.07 C200.83,1.11 205.70,2.26 207.75,2.11 Z" fill="#60BAFB" fill-rule="nonzero"/><path d="M216.75,1.06 C215.49,1.27 211.28,2.69 210.25,1.41 L216.75,1.06 Z" fill="#60BAFB" fill-rule="nonzero"/><path d="M823.99,3.08 L818.25,2.17 C822.90,2.03 824.00,2.21 823.99,3.08 Z" fill="#60BAFB" fill-rule="nonzero"/><path d="M205.75,1021.93 L200.25,1021.50 C201.21,1020.29 204.75,1021.67 205.75,1021.93 Z" fill="#60BAFB" fill-rule="nonzero"/><path d="M3.43,195.25 C4.47,196.52 3.73,198.79 3.04,199.75 L3.43,195.25 Z" fill="#60BAFB" fill-rule="nonzero"/><path d="M836.02,1019.11 C836.01,1019.80 835.16,1019.99 832.25,1019.98 C832.79,1019.32 834.69,1018.63 836.02,1019.11 Z" fill="#60BAFB" fill-rule="nonzero"/><path d="M2.04,207.25 L2.48,202.75 C3.72,203.44 2.34,206.52 2.04,207.25 Z" fill="#60BAFB" fill-rule="nonzero"/><path d="M1021.90,207.25 L1021.57,202.75 L1021.90,207.25 Z" fill="#60BAFB" fill-rule="nonzero"/><path d="M1023.00,212.00 C1022.23,212.00 1022.00,211.42 1022.00,209.44 C1022.77,209.92 1023.00,210.50 1023.00,212.00 Z" fill="#60BAFB" fill-rule="nonzero"/><path d="M857.03,1014.10 C857.52,1015.74 855.41,1014.74 854.45,1014.96 C854.92,1014.22 855.50,1014.02 857.03,1014.10 Z" fill="#60BAFB" fill-rule="nonzero"/><path d="M198.75,1020.94 L194.77,1020.57 C194.87,1019.62 198.25,1020.66 198.75,1020.94 Z" fill="#60BAFB" fill-rule="nonzero"/><path d="M198.75,3.09 L194.48,3.35 L198.75,3.09 Z" fill="#60BAFB" fill-rule="nonzero"/><path d="M1020.84,199.25 L1020.54,195.75 L1020.84,199.25 Z" fill="#60BAFB" fill-rule="nonzero"/><path d="M1021.98,816.75 L1021.60,820.51 C1021.15,820.50 1021.23,819.66 1021.98,816.75 Z" fill="#60BAFB" fill-rule="nonzero"/><path d="M796.94,0.00 L803.94,0.00 L804.56,1.00 C802.47,0.61 797.40,1.93 796.94,0.00 Z" fill="#60BAFB" fill-rule="nonzero"/><path d="M805.50,1023.25 L805.50,1024.00 L798.30,1024.00 C798.59,1022.30 804.89,1023.05 805.50,1023.25 Z" fill="#60BAFB" fill-rule="nonzero"/><path d="M0.98,219.95 C1.00,223.55 0.79,224.50 -0.00,224.50 L0.00,220.56 L0.98,219.95 Z" fill="#60BAFB" fill-rule="nonzero"/><path d="M219.00,1.00 L219.00,-0.00 L222.50,-0.00 C222.50,0.78 221.71,1.00 219.00,1.00 Z" fill="#60BAFB" fill-rule="nonzero"/><path d="M1024.00,219.50 L1024.00,223.00 C1023.23,223.00 1023.00,222.21 1023.00,219.50 L1024.00,219.50 Z" fill="#60BAFB" fill-rule="nonzero"/><path d="M-0.00,803.00 L-0.00,800.00 C0.78,800.00 1.00,800.67 1.00,803.00 L-0.00,803.00 Z" fill="#60BAFB" fill-rule="nonzero"/><path d="M225.44,0.00 L228.50,-0.00 C229.06,2.00 224.97,0.87 225.44,0.00 Z" fill="#60BAFB" fill-rule="nonzero"/><path d="M1023.05,804.53 C1023.01,802.18 1023.23,801.50 1024.00,801.50 L1024.00,803.94 L1023.05,804.53 Z" fill="#60BAFB" fill-rule="nonzero"/><path d="M221.00,1024.00 L218.56,1024.00 L217.95,1023.02 C220.31,1023.00 221.00,1023.23 221.00,1024.00 Z" fill="#60BAFB" fill-rule="nonzero"/></svg>
