<svg version="1.1" xmlns="http://www.w3.org/2000/svg" viewBox="0 0 966 966" width="1024" height="1024"><path d="M197.47,1.10 C197.74,2.23 201.01,1.06 200.75,0.02 L768.42,0.00 C769.06,0.08 767.89,0.86 768.74,0.96 C773.88,1.60 778.00,0.90 781.25,2.45 L785.25,3.03 C790.53,2.93 796.83,5.23 801.94,6.01 C802.42,6.78 803.01,7.00 804.56,7.00 C874.71,25.91 921.72,71.05 949.54,131.75 C949.43,134.67 950.62,137.57 951.98,139.03 L952.50,139.50 L952.56,139.75 C952.15,141.72 952.75,143.20 954.11,143.60 L954.03,143.75 C954.22,147.49 955.61,151.24 956.92,153.75 L956.92,154.25 C961.04,167.67 965.06,181.35 964.50,199.50 C964.46,201.36 964.16,203.83 966.00,203.61 L966.00,764.00 C965.23,764.00 965.01,764.68 965.04,767.00 C964.41,772.41 964.27,777.82 963.98,782.45 C963.22,782.92 963.01,783.62 963.05,785.54 L961.63,793.75 L960.93,796.74 C960.99,800.85 958.35,806.08 957.99,810.41 C955.49,811.52 956.98,813.50 956.52,815.25 C955.83,817.82 953.53,822.22 953.03,825.42 C951.79,825.81 951.10,827.32 951.59,829.25 C950.52,830.21 948.88,834.97 948.75,836.31 C947.55,836.46 947.20,838.00 947.62,838.94 L946.92,839.58 C927.01,883.68 894.04,918.01 852.71,940.56 C850.76,940.21 849.56,941.53 848.75,942.63 C835.97,949.31 818.33,955.86 802.75,960.03 C800.66,960.01 799.92,960.24 799.43,961.05 C790.64,962.57 781.57,965.22 770.50,965.00 C767.75,965.00 767.00,965.21 767.00,966.00 L200.11,966.00 C200.37,963.93 197.28,964.42 196.49,964.90 C161.89,963.07 130.10,950.48 106.75,936.75 C77.76,919.54 54.02,897.16 35.45,869.75 C31.53,863.78 27.13,855.23 23.00,848.44 C22.64,847.84 23.95,846.55 21.87,847.05 C22.50,844.99 21.60,844.05 20.37,843.25 L17.62,837.75 C18.73,836.88 17.23,834.75 16.47,834.25 L14.01,828.78 L13.20,825.18 C12.62,823.63 12.89,820.23 10.81,820.49 C11.14,819.03 10.01,814.85 9.02,813.75 C10.06,813.18 8.97,811.34 7.91,811.25 C6.96,804.14 3.14,795.37 2.93,787.25 C2.99,785.07 2.78,784.51 1.96,784.53 C1.12,774.43 0.68,771.50 -0.00,771.50 L-0.00,199.11 C2.10,199.48 1.62,195.78 1.07,194.98 C2.40,171.07 8.00,150.83 16.47,131.25 C15.76,130.52 18.02,129.14 17.47,128.75 C46.31,63.53 111.73,7.51 197.47,1.10 Z" fill="#237AFC" fill-rule="nonzero"/><path d="M405.75,162.59 C409.60,162.04 488.75,162.43 490.25,162.75 C496.76,164.96 501.34,168.41 504.17,174.05 C509.39,195.12 516.59,217.09 521.50,238.94 C536.07,244.29 550.60,250.14 563.68,257.16 C564.19,257.16 605.22,233.41 610.25,230.81 C618.71,226.44 624.90,222.99 635.25,230.19 C637.41,231.69 692.11,285.92 692.94,287.25 C697.06,293.92 695.98,301.20 692.87,307.75 C690.42,312.91 663.94,356.32 664.00,357.98 C670.36,370.45 676.36,383.56 681.15,397.75 C683.34,401.35 738.01,409.52 746.53,415.53 C749.13,417.37 752.81,422.37 753.75,426.25 L754.02,480.50 L570.64,480.50 C575.22,399.98 508.48,336.45 426.25,349.05 C294.88,373.04 284.20,552.66 414.84,590.91 C416.77,591.47 424.48,592.33 425.00,593.62 L424.75,771.25 C424.28,771.72 393.54,771.56 392.25,771.25 C388.27,769.52 384.28,767.44 382.00,764.37 C377.55,758.39 365.82,704.25 364.90,702.93 C352.58,698.29 339.33,692.47 328.37,686.00 C328.37,686.00 326.97,686.00 326.97,686.00 C325.52,686.19 279.99,714.11 275.25,715.25 C270.25,716.46 262.56,714.71 258.75,712.32 L201.45,655.25 C195.51,645.20 197.88,640.48 202.58,631.31 C204.84,626.90 229.42,585.47 229.47,584.95 C222.69,572.27 216.02,556.51 211.63,542.23 C209.58,540.89 154.98,530.21 147.85,526.48 C143.34,524.12 138.73,518.26 137.98,512.17 L138.25,426.73 C140.66,419.81 145.71,415.14 151.75,413.06 C159.55,410.38 211.69,400.26 213.12,398.25 C217.50,383.84 224.06,370.44 230.61,357.89 C230.65,356.74 205.50,314.91 203.08,310.19 C198.46,301.16 195.83,295.98 202.63,286.34 C202.63,286.34 256.26,232.74 258.02,231.34 C261.98,228.19 267.97,224.93 276.25,226.52 C280.25,227.29 329.41,257.08 330.90,257.13 C343.71,250.85 356.82,244.16 371.46,239.90 C373.78,238.38 387.34,176.88 392.06,170.54 C394.45,167.33 400.78,163.30 405.75,162.59 Z" fill="#FEFEFD" fill-rule="nonzero"/><g><path d="M601.56,652.02 C606.17,642.13 605.58,625.09 600.94,616.25 L600.94,615.50 L812.58,615.50 C832.25,620.82 831.98,647.73 811.25,652.02 L601.56,652.02 Z" fill="#02234C" fill-rule="nonzero"/><g><path d="M556.75,592.88 L566.93,592.75 C584.09,594.75 593.66,604.60 600.94,616.25 C605.58,625.09 606.17,642.13 601.56,652.02 C599.37,656.12 595.75,661.77 593.25,664.25 L590.43,666.75 C571.23,684.41 540.52,678.75 526.96,659.62 L526.62,658.62 L525.88,657.88 L525.63,657.13 L524.88,656.38 L524.50,655.50 L524.00,654.50 L523.63,653.75 L522.14,651.97 C521.09,647.87 519.08,643.52 518.85,638.50 L518.80,631.25 C519.33,625.00 521.34,620.10 523.21,615.54 C530.71,605.11 539.70,594.61 556.75,592.88 Z" fill="#FDAB12" fill-rule="nonzero"/><path d="M523.21,615.54 C521.34,620.10 519.33,625.00 518.80,631.25 L518.85,638.50 C519.08,643.52 521.09,647.87 522.14,651.97 L462.18,651.97 C441.53,647.94 441.03,621.14 460.67,615.54 L523.21,615.54 Z" fill="#02234C" fill-rule="nonzero"/></g></g><g><path d="M646.24,524.00 L642.83,534.78 L642.89,542.49 L642.95,550.20 L646.09,559.99 L459.75,559.97 C440.99,553.19 442.20,528.38 461.75,524.00 L646.24,524.00 Z" fill="#02234C" fill-rule="nonzero"/><g><path d="M725.29,524.03 C729.79,533.20 730.45,550.70 725.49,560.01 C718.35,572.61 708.48,582.92 690.25,584.71 L681.25,584.71 C663.31,582.66 653.13,572.34 646.09,559.99 L642.95,550.20 L642.89,542.49 L642.83,534.78 L646.24,524.00 C663.44,492.19 708.18,491.45 725.29,524.03 Z" fill="#5AC36B" fill-rule="nonzero"/><path d="M725.49,560.01 C730.45,550.70 729.79,533.20 725.29,524.03 L811.25,524.03 C831.50,528.55 832.35,552.34 813.75,559.95 L725.49,560.01 Z" fill="#02234C" fill-rule="nonzero"/></g></g><g><path d="M615.25,705.25 C610.82,715.65 611.85,733.43 616.75,741.94 L459.75,741.90 C440.26,734.88 442.46,707.35 463.75,705.24 C512.69,704.85 566.32,704.83 615.25,705.25 Z" fill="#02234C" fill-rule="nonzero"/><g><path d="M697.25,705.25 C701.27,716.18 700.84,732.46 695.75,741.75 L687.42,753.49 C662.28,774.86 630.82,766.05 616.75,741.94 C611.85,733.43 610.82,715.65 615.25,705.25 C631.79,670.36 680.70,670.23 697.25,705.25 Z" fill="#885EF9" fill-rule="nonzero"/><path d="M695.75,741.75 C700.84,732.46 701.27,716.18 697.25,705.25 C733.19,704.82 773.79,704.87 809.75,705.22 C831.12,707.21 833.07,735.09 813.75,741.71 C776.95,742.21 733.36,742.14 695.75,741.75 Z" fill="#02234C" fill-rule="nonzero"/></g></g><path d="M956.92,153.75 C955.61,151.24 954.22,147.49 954.03,143.75 C955.13,146.53 956.94,149.96 956.92,153.75 Z" fill="#02234C" fill-rule="nonzero"/><path d="M951.98,139.03 C950.62,137.57 949.43,134.67 949.54,131.75 C950.63,133.51 951.79,136.34 951.98,139.03 Z" fill="#02234C" fill-rule="nonzero"/><path d="M566.93,592.75 L556.75,592.88 L566.93,592.75 Z" fill="#FEFEFD" fill-rule="nonzero"/><path d="M690.25,584.71 L681.25,584.71 L690.25,584.71 Z" fill="#FEFEFD" fill-rule="nonzero"/><path d="M13.20,825.18 C11.65,824.56 11.45,821.87 10.81,820.49 C12.89,820.23 12.62,823.63 13.20,825.18 Z" fill="#02234C" fill-rule="nonzero"/><path d="M518.80,631.25 L518.85,638.50 L518.80,631.25 Z" fill="#FEFEFD" fill-rule="nonzero"/><path d="M957.99,810.41 L956.52,815.25 C956.98,813.50 955.49,811.52 957.99,810.41 Z" fill="#02234C" fill-rule="nonzero"/><path d="M852.71,940.56 C852.07,941.68 850.42,942.24 848.75,942.63 C849.56,941.53 850.76,940.21 852.71,940.56 Z" fill="#02234C" fill-rule="nonzero"/><path d="M954.11,143.60 C952.75,143.20 952.15,141.72 952.56,139.75 L954.11,143.60 Z" fill="#02234C" fill-rule="nonzero"/><path d="M953.03,825.42 L951.59,829.25 C951.10,827.32 951.79,825.81 953.03,825.42 Z" fill="#02234C" fill-rule="nonzero"/><path d="M781.25,2.45 C782.00,1.34 784.81,2.27 785.25,3.03 L781.25,2.45 Z" fill="#FEFEFD" fill-rule="nonzero"/><path d="M21.87,847.05 L20.37,843.25 C21.60,844.05 22.50,844.99 21.87,847.05 Z" fill="#02234C" fill-rule="nonzero"/><path d="M963.98,782.45 C963.99,784.38 963.79,785.08 963.05,785.54 C963.01,783.62 963.22,782.92 963.98,782.45 Z" fill="#FEFEFD" fill-rule="nonzero"/><path d="M9.02,813.75 L7.91,811.25 C8.97,811.34 10.06,813.18 9.02,813.75 Z" fill="#02234C" fill-rule="nonzero"/><path d="M17.62,837.75 L16.47,834.25 C17.23,834.75 18.73,836.88 17.62,837.75 Z" fill="#02234C" fill-rule="nonzero"/><path d="M802.75,960.03 L799.43,961.05 C799.92,960.24 800.66,960.01 802.75,960.03 Z" fill="#FEFEFD" fill-rule="nonzero"/><path d="M804.56,7.00 C803.01,7.00 802.42,6.78 801.94,6.01 C803.49,6.00 804.08,6.23 804.56,7.00 Z" fill="#FEFEFD" fill-rule="nonzero"/><path d="M593.25,664.25 L590.43,666.75 L593.25,664.25 Z" fill="#FEFEFD" fill-rule="nonzero"/><path d="M2.93,787.25 L1.96,784.53 C2.78,784.51 2.99,785.07 2.93,787.25 Z" fill="#FEFEFD" fill-rule="nonzero"/><path d="M960.93,796.74 L961.63,793.75 C962.50,794.34 961.96,796.51 960.93,796.74 Z" fill="#FEFEFD" fill-rule="nonzero"/><path d="M948.75,836.31 L947.62,838.94 C947.20,838.00 947.55,836.46 948.75,836.31 Z" fill="#02234C" fill-rule="nonzero"/><path d="M524.00,654.50 L523.63,653.75 L524.00,654.50 Z" fill="#FEFEFD" fill-rule="nonzero"/><path d="M524.50,655.50 L524.00,654.50 L524.50,655.50 Z" fill="#FEFEFD" fill-rule="nonzero"/><path d="M524.88,656.38 L524.50,655.50 L524.88,656.38 Z" fill="#FEFEFD" fill-rule="nonzero"/><path d="M525.88,657.88 L525.63,657.13 L525.88,657.88 Z" fill="#FEFEFD" fill-rule="nonzero"/><path d="M526.96,659.62 L526.62,658.62 L526.96,659.62 Z" fill="#FEFEFD" fill-rule="nonzero"/><path d="M952.50,139.50 L951.98,139.03 L952.50,139.50 Z" fill="#02234C" fill-rule="nonzero"/><path d="M525.63,657.13 L524.88,656.38 L525.63,657.13 Z" fill="#FEFEFD" fill-rule="nonzero"/><path d="M526.62,658.62 L525.88,657.88 L526.62,658.62 Z" fill="#FEFEFD" fill-rule="nonzero"/><path d="M947.62,838.94 L946.92,839.58 L947.62,838.94 Z" fill="#02234C" fill-rule="nonzero"/><path d="M966.00,199.50 L966.00,203.61 C964.16,203.83 964.46,201.36 964.50,199.50 L966.00,199.50 Z" fill="#FEFEFD" fill-rule="nonzero"/><path d="M1.07,194.98 C1.62,195.78 2.10,199.48 -0.00,199.11 L-0.00,195.00 L1.07,194.98 Z" fill="#FEFEFD" fill-rule="nonzero"/><path d="M200.11,966.00 L196.50,966.00 L196.49,964.90 C197.28,964.42 200.37,963.93 200.11,966.00 Z" fill="#FEFEFD" fill-rule="nonzero"/><path d="M197.50,-0.00 L200.75,0.02 C201.01,1.06 197.74,2.23 197.47,1.10 L197.50,-0.00 Z" fill="#FEFEFD" fill-rule="nonzero"/><path d="M770.50,965.00 L770.50,966.00 L767.00,966.00 C767.00,965.21 767.75,965.00 770.50,965.00 Z" fill="#FEFEFD" fill-rule="nonzero"/><path d="M965.04,767.00 C965.01,764.68 965.23,764.00 966.00,764.00 L966.00,767.00 L965.04,767.00 Z" fill="#FEFEFD" fill-rule="nonzero"/></svg>
