<svg version="1.1" xmlns="http://www.w3.org/2000/svg" viewBox="0 0 1024 1024" width="1024" height="1024"><path d="M162.50,1.00 C165.25,1.00 166.00,0.79 166.00,-0.00 L857.94,0.00 C858.42,0.78 859.35,1.00 862.06,1.00 L867.44,1.00 C867.92,1.78 868.62,2.00 870.56,2.00 L873.25,2.01 C873.82,2.72 875.60,3.31 877.03,2.92 L883.45,4.05 C883.92,4.79 884.50,5.00 886.00,5.00 C889.56,4.83 892.77,6.57 894.75,7.08 L896.96,8.10 C950.73,24.50 992.23,64.54 1012.14,115.25 C1015.90,125.70 1021.13,138.60 1021.97,153.00 L1022.52,155.75 L1023.05,159.96 C1023.01,162.70 1023.23,163.50 1024.00,163.50 L1024.00,861.00 C1023.23,861.00 1023.00,861.56 1023.00,863.50 C1022.62,876.00 1018.84,889.49 1015.64,899.25 C996.76,956.18 952.32,999.39 895.25,1016.95 C889.94,1018.66 883.86,1020.57 877.56,1021.00 C876.01,1021.00 875.42,1021.22 874.94,1022.00 C872.66,1022.00 872.00,1022.18 872.00,1022.41 C872.00,1022.63 870.10,1022.86 863.55,1023.01 C861.18,1023.00 860.50,1023.22 860.50,1024.00 L164.00,1024.00 C164.00,1023.22 163.33,1023.00 161.00,1023.00 C155.80,1023.46 150.95,1021.98 147.75,1021.53 C72.96,1006.21 17.71,952.16 3.00,877.06 C3.24,875.48 2.67,873.85 2.09,873.25 C1.50,870.55 0.55,866.15 1.00,861.50 C1.00,858.34 0.79,857.50 -0.00,857.50 L-0.00,165.50 C0.78,165.50 1.00,164.62 0.98,161.45 C0.39,157.20 1.90,154.06 2.05,150.54 C2.79,150.07 3.00,149.28 3.00,147.00 L3.00,144.56 C3.77,144.08 4.00,143.49 4.00,141.94 C3.53,138.04 5.69,135.63 6.07,132.25 C16.34,94.78 38.54,63.89 64.25,42.25 C89.84,21.39 119.68,4.50 162.50,1.00 Z" fill="#2277FC" fill-rule="nonzero"/><g><path d="M569.52,180.90 C678.97,368.13 788.53,557.12 896.92,744.88 C919.94,799.08 886.78,850.99 834.79,853.50 L192.65,853.50 C136.69,853.58 102.61,796.09 128.62,742.25 C237.05,555.55 346.14,366.18 455.63,179.38 C483.15,140.92 542.37,141.15 569.52,180.90 Z" fill="#F61317" fill-rule="nonzero"/><path d="M565.64,373.93 L551.45,601.25 C543.20,647.12 481.24,647.21 472.62,601.75 L458.36,373.43 C458.81,305.38 565.69,305.54 565.64,373.93 Z" fill="#FEFDFC" fill-rule="nonzero"/><path d="M558.90,700.75 C574.00,741.22 534.89,780.12 494.26,765.43 C467.43,755.74 450.28,719.70 471.13,689.75 C494.05,656.81 545.48,664.78 558.90,700.75 Z" fill="#FEFDFC" fill-rule="nonzero"/></g><path d="M3.00,147.00 C3.00,149.28 2.79,150.07 2.05,150.54 C2.01,147.80 2.23,147.00 3.00,147.00 Z" fill="#FEFDFC" fill-rule="nonzero"/><path d="M877.03,2.92 C875.60,3.31 873.82,2.72 873.25,2.01 C875.72,2.00 876.57,2.21 877.03,2.92 Z" fill="#FEFDFC" fill-rule="nonzero"/><path d="M3.00,877.06 C2.23,876.58 2.02,875.72 2.09,873.25 C2.67,873.85 3.24,875.48 3.00,877.06 Z" fill="#FEFDFC" fill-rule="nonzero"/><path d="M870.56,2.00 C868.62,2.00 867.92,1.78 867.44,1.00 C869.38,1.00 870.08,1.23 870.56,2.00 Z" fill="#FEFDFC" fill-rule="nonzero"/><path d="M886.00,5.00 C884.50,5.00 883.92,4.79 883.45,4.05 C885.43,4.01 886.00,4.22 886.00,5.00 Z" fill="#FEFDFC" fill-rule="nonzero"/><path d="M1022.52,155.75 L1021.97,153.00 C1024.14,152.42 1022.50,155.37 1022.52,155.75 Z" fill="#FEFDFC" fill-rule="nonzero"/><path d="M4.00,141.94 C4.00,143.49 3.77,144.08 3.00,144.56 C3.00,143.01 3.23,142.42 4.00,141.94 Z" fill="#FEFDFC" fill-rule="nonzero"/><path d="M877.56,1021.00 C877.08,1021.77 876.49,1022.00 874.94,1022.00 C875.42,1021.22 876.01,1021.00 877.56,1021.00 Z" fill="#FEFDFC" fill-rule="nonzero"/><path d="M896.96,8.10 L894.75,7.08 C896.49,7.02 896.99,7.25 896.96,8.10 Z" fill="#FEFDFC" fill-rule="nonzero"/><path d="M-0.00,861.50 L-0.00,857.50 C0.79,857.50 1.00,858.34 1.00,861.50 L-0.00,861.50 Z" fill="#FEFDFC" fill-rule="nonzero"/><path d="M0.98,161.45 C1.00,164.62 0.78,165.50 -0.00,165.50 L-0.00,162.06 L0.98,161.45 Z" fill="#FEFDFC" fill-rule="nonzero"/><path d="M162.50,1.00 L162.50,-0.00 L166.00,-0.00 C166.00,0.79 165.25,1.00 162.50,1.00 Z" fill="#FEFDFC" fill-rule="nonzero"/><path d="M857.94,0.00 L861.44,0.00 L862.06,1.00 C859.35,1.00 858.42,0.78 857.94,0.00 Z" fill="#FEFDFC" fill-rule="nonzero"/><path d="M1024.00,160.56 L1024.00,163.50 C1023.23,163.50 1023.01,162.70 1023.05,159.96 L1024.00,160.56 Z" fill="#FEFDFC" fill-rule="nonzero"/><path d="M164.00,1024.00 L161.00,1024.00 L161.00,1023.00 C163.33,1023.00 164.00,1023.22 164.00,1024.00 Z" fill="#FEFDFC" fill-rule="nonzero"/><path d="M863.55,1023.01 L862.94,1024.00 L860.50,1024.00 C860.50,1023.22 861.18,1023.00 863.55,1023.01 Z" fill="#FEFDFC" fill-rule="nonzero"/><path d="M1023.00,863.50 C1023.00,861.56 1023.23,861.00 1024.00,861.00 L1024.00,863.50 L1023.00,863.50 Z" fill="#FEFDFC" fill-rule="nonzero"/></svg>
