<svg version="1.1" xmlns="http://www.w3.org/2000/svg" viewBox="0 0 977 977" width="1024" height="1024"><path d="M198.92,1.03 L779.08,1.03 C785.35,0.51 792.79,1.74 797.25,2.48 L800.00,3.03 L802.75,3.08 L806.58,4.09 L808.75,4.09 L812.07,5.10 L813.75,5.09 L817.04,6.00 L822.92,6.95 C823.16,7.48 824.61,9.55 825.25,7.97 C831.80,9.58 840.14,12.12 846.25,15.09 L847.36,15.33 C847.90,16.24 848.55,16.48 850.25,16.43 C904.86,40.06 945.05,81.63 965.00,140.44 C965.00,141.99 965.23,142.58 966.03,143.06 C966.50,144.89 968.17,147.43 967.94,150.04 L968.90,152.25 L969.38,154.80 L969.73,156.27 C969.92,157.09 970.28,157.96 970.54,158.22 C970.79,158.49 971.00,159.43 971.00,161.94 C971.00,163.49 971.23,164.08 972.00,164.56 L972.00,166.44 C971.81,168.01 972.22,169.64 972.99,170.25 L972.91,171.91 L973.90,177.25 L974.00,178.94 C973.83,180.78 974.25,182.86 974.95,183.75 L974.91,187.40 L975.89,194.75 L975.94,782.25 C975.64,783.84 974.31,788.19 975.49,789.75 L974.95,794.25 C974.36,795.17 973.57,797.09 974.58,798.22 L973.94,802.47 C973.21,802.93 973.02,803.73 973.09,806.03 L971.94,813.46 C971.21,813.92 971.00,814.51 971.00,816.06 C958.14,873.49 926.78,913.97 884.76,942.75 L884.37,943.13 L883.50,943.50 L882.62,943.88 L882.00,944.50 L881.50,944.50 L880.87,945.13 L880.25,945.35 L878.25,946.65 L877.50,947.00 L876.62,947.38 L875.87,948.13 L875.25,948.42 C873.33,948.43 872.00,949.34 871.37,950.59 L867.25,952.94 C864.49,953.40 861.72,954.76 860.37,956.53 L858.22,957.51 C856.65,957.33 854.74,957.83 854.50,959.02 C852.36,958.79 850.52,960.23 849.50,960.94 L848.94,961.62 C846.91,960.77 846.42,962.65 846.33,962.68 L845.75,962.89 L842.75,964.08 L841.25,964.47 C839.16,964.49 838.42,964.76 837.92,965.64 C836.09,965.53 835.42,965.75 834.95,966.59 C833.14,966.02 831.24,967.32 830.25,967.98 L825.75,969.24 L823.84,970.00 L823.25,970.07 C821.12,970.02 820.51,970.22 820.52,970.99 L814.20,971.96 C813.29,970.55 811.03,972.71 810.25,972.97 L809.23,973.03 C807.67,971.89 805.12,973.44 803.75,973.95 L801.99,973.93 L795.75,974.91 L794.75,975.09 L790.25,975.53 L779.25,975.85 L199.75,975.83 C194.92,976.48 186.65,975.66 182.75,974.91 C181.57,974.30 179.07,973.83 176.94,974.00 L175.25,973.90 L170.91,972.90 L168.56,973.00 C168.08,972.23 167.27,972.00 164.94,972.00 L163.75,971.93 L160.94,970.91 C146.27,968.65 132.25,962.75 120.51,957.66 C120.49,956.95 118.86,956.10 113.25,953.87 L112.75,953.66 L109.25,951.99 C85.63,939.38 63.00,920.77 47.22,900.75 C29.12,878.54 14.78,852.11 7.00,820.06 C7.00,818.51 6.78,817.92 6.00,817.44 L6.00,816.06 C6.00,814.08 5.78,813.50 5.00,813.50 L5.00,811.06 C5.00,809.12 4.78,808.42 4.00,807.94 L3.99,806.75 C4.16,804.99 3.93,802.90 3.04,802.25 C2.00,796.32 0.78,788.15 1.00,780.00 L1.00,198.50 C0.58,192.60 1.69,186.94 2.10,182.75 C2.79,181.81 3.18,179.44 3.00,177.44 L3.06,174.75 C3.72,174.34 5.12,171.48 4.13,170.83 L4.09,170.75 L5.08,165.91 L5.02,164.25 C5.73,163.93 7.34,161.00 6.16,160.50 L5.90,158.96 C6.78,158.99 6.98,158.54 6.92,156.75 C24.54,90.38 65.75,44.29 123.94,17.96 C126.42,18.29 126.68,17.77 127.75,16.39 C134.14,13.45 144.27,9.79 152.43,8.10 L155.75,7.09 L156.43,7.10 L159.75,6.09 L160.94,6.00 C162.49,6.00 163.08,5.77 163.56,5.00 L166.00,5.00 C167.89,5.00 168.58,4.77 169.06,4.00 L170.91,4.08 L175.75,3.09 L177.41,3.07 L183.75,2.09 L185.41,2.09 L190.75,1.10 L198.92,1.03 Z" fill="#1A82FC" fill-rule="nonzero"/><g><path d="M818.46,571.75 C735.38,475.18 582.02,523.27 565.76,646.75 C565.39,656.36 565.35,673.12 565.79,682.75 C571.97,724.35 590.82,752.96 615.75,775.46 L197.74,775.46 C174.14,773.03 155.26,752.59 156.78,724.25 L156.83,537.00 L157.13,323.75 L157.66,317.75 C166.18,303.07 176.10,289.38 197.25,287.04 L531.45,287.01 L532.11,285.93 C532.80,285.93 532.18,286.66 533.30,286.67 C611.97,287.61 699.00,286.44 777.75,287.26 C800.73,292.88 815.03,307.45 818.46,332.25 L818.46,571.75 Z" fill="#FDD740" fill-rule="nonzero"/><g><path d="M818.46,571.75 C893.07,665.75 832.76,804.07 715.25,808.72 L702.50,808.66 C664.55,806.93 637.40,792.74 615.75,775.46 C590.82,752.96 571.97,724.35 565.79,682.75 C565.35,673.12 565.39,656.36 565.76,646.75 C582.02,523.27 735.38,475.18 818.46,571.75 Z" fill="#44AD5A" fill-rule="nonzero"/><path d="M725.75,602.75 L726.25,646.25 L769.25,646.75 C786.98,653.44 786.96,677.60 768.75,683.75 L726.25,684.25 L725.75,726.75 C720.26,745.36 695.79,745.71 689.26,727.75 L688.50,684.04 L646.73,683.75 C628.33,677.76 628.37,652.78 646.75,646.75 L688.50,646.47 C688.36,631.90 688.55,614.79 689.31,602.25 C695.50,584.30 719.98,584.50 725.75,602.75 Z" fill="#FEFEFD" fill-rule="nonzero"/></g><path d="M201.25,197.24 L226.50,197.16 L235.50,197.17 L402.00,197.17 C417.94,195.57 429.65,200.11 438.63,206.25 L532.11,285.93 L531.45,287.01 L197.25,287.04 C176.10,289.38 166.18,303.07 157.66,317.75 L157.12,305.25 C156.99,284.64 156.74,258.52 157.32,238.75 C162.24,215.47 177.11,199.70 201.25,197.24 Z" fill="#FEBC02" fill-rule="nonzero"/><path d="M157.66,317.75 L157.13,323.75 L157.12,305.25 L157.66,317.75 Z" fill="#FEFEFD" fill-rule="nonzero"/></g><path d="M156.83,537.00 L156.78,724.25 L156.83,537.00 Z" fill="#98C7FD" fill-rule="nonzero"/><path d="M402.00,197.17 L235.50,197.17 L402.00,197.17 Z" fill="#FDD740" fill-rule="nonzero"/><path d="M226.50,197.16 L201.25,197.24 L226.50,197.16 Z" fill="#FDD740" fill-rule="nonzero"/><path d="M867.25,952.94 C865.73,954.77 863.16,956.05 860.37,956.53 C861.72,954.76 864.49,953.40 867.25,952.94 Z" fill="#98C7FD" fill-rule="nonzero"/><path d="M120.51,957.66 C117.82,956.97 114.94,955.75 113.25,953.87 C118.86,956.10 120.49,956.95 120.51,957.66 Z" fill="#98C7FD" fill-rule="nonzero"/><path d="M715.25,808.72 L702.50,808.66 L715.25,808.72 Z" fill="#98C7FD" fill-rule="nonzero"/><path d="M975.89,194.75 L974.91,187.40 C976.87,187.68 975.76,192.78 975.89,194.75 Z" fill="#98C7FD" fill-rule="nonzero"/><path d="M975.94,782.25 L975.49,789.75 C974.31,788.19 975.64,783.84 975.94,782.25 Z" fill="#98C7FD" fill-rule="nonzero"/><path d="M854.50,959.02 C853.88,960.23 851.53,961.31 849.50,960.94 C850.52,960.23 852.36,958.79 854.50,959.02 Z" fill="#98C7FD" fill-rule="nonzero"/><path d="M809.23,973.03 C808.53,974.16 805.71,974.09 803.75,973.95 C805.12,973.44 807.67,971.89 809.23,973.03 Z" fill="#98C7FD" fill-rule="nonzero"/><path d="M801.99,973.93 C802.00,974.79 800.79,974.98 795.75,974.91 L801.99,973.93 Z" fill="#98C7FD" fill-rule="nonzero"/><path d="M183.75,2.09 L177.41,3.07 C177.66,1.21 181.92,2.20 183.75,2.09 Z" fill="#98C7FD" fill-rule="nonzero"/><path d="M182.75,974.91 C181.04,974.84 177.16,975.69 176.94,974.00 C179.07,973.83 181.57,974.30 182.75,974.91 Z" fill="#98C7FD" fill-rule="nonzero"/><path d="M3.00,177.44 C3.18,179.44 2.79,181.81 2.10,182.75 C2.08,181.13 1.40,177.62 3.00,177.44 Z" fill="#98C7FD" fill-rule="nonzero"/><path d="M190.75,1.10 L185.41,2.09 C185.57,0.36 189.09,1.09 190.75,1.10 Z" fill="#98C7FD" fill-rule="nonzero"/><path d="M4.13,170.83 C5.12,171.48 3.72,174.34 3.06,174.75 C2.96,173.25 2.66,171.02 4.13,170.83 Z" fill="#98C7FD" fill-rule="nonzero"/><path d="M973.90,177.25 L972.91,171.91 C974.64,172.07 973.91,175.59 973.90,177.25 Z" fill="#98C7FD" fill-rule="nonzero"/><path d="M5.02,164.25 C4.78,162.07 5.09,161.43 6.16,160.50 C7.34,161.00 5.73,163.93 5.02,164.25 Z" fill="#98C7FD" fill-rule="nonzero"/><path d="M974.95,183.75 C974.25,182.86 973.83,180.78 974.00,178.94 C974.77,179.42 974.99,180.50 974.95,183.75 Z" fill="#98C7FD" fill-rule="nonzero"/><path d="M834.95,966.59 C834.09,966.98 832.43,968.48 830.25,967.98 C831.24,967.32 833.14,966.02 834.95,966.59 Z" fill="#98C7FD" fill-rule="nonzero"/><path d="M814.20,971.96 C814.00,973.22 811.72,973.08 810.25,972.97 C811.03,972.71 813.29,970.55 814.20,971.96 Z" fill="#98C7FD" fill-rule="nonzero"/><path d="M175.75,3.09 L170.91,4.08 C170.98,2.43 174.21,3.06 175.75,3.09 Z" fill="#98C7FD" fill-rule="nonzero"/><path d="M127.75,16.39 C126.68,17.77 126.42,18.29 123.94,17.96 C124.20,16.83 126.36,16.69 127.75,16.39 Z" fill="#98C7FD" fill-rule="nonzero"/><path d="M5.08,165.91 L4.09,170.75 C4.06,169.21 3.43,165.98 5.08,165.91 Z" fill="#98C7FD" fill-rule="nonzero"/><path d="M875.25,948.42 C874.32,949.37 873.15,950.55 871.37,950.59 C872.00,949.34 873.33,948.43 875.25,948.42 Z" fill="#98C7FD" fill-rule="nonzero"/><path d="M3.99,806.75 C3.06,806.10 2.82,804.01 3.04,802.25 C3.93,802.90 4.16,804.99 3.99,806.75 Z" fill="#98C7FD" fill-rule="nonzero"/><path d="M973.94,802.47 C973.99,804.77 973.80,805.57 973.09,806.03 C973.02,803.73 973.21,802.93 973.94,802.47 Z" fill="#98C7FD" fill-rule="nonzero"/><path d="M858.22,957.51 C857.21,958.00 856.43,959.39 854.50,959.02 C854.74,957.83 856.65,957.33 858.22,957.51 Z" fill="#98C7FD" fill-rule="nonzero"/><path d="M168.56,973.00 C166.23,973.00 165.42,972.77 164.94,972.00 C167.27,972.00 168.08,972.23 168.56,973.00 Z" fill="#98C7FD" fill-rule="nonzero"/><path d="M175.25,973.90 C173.81,974.01 170.93,974.46 170.91,972.90 L175.25,973.90 Z" fill="#98C7FD" fill-rule="nonzero"/><path d="M169.06,4.00 C168.58,4.77 167.89,5.00 166.00,5.00 C166.00,4.22 166.69,4.00 169.06,4.00 Z" fill="#98C7FD" fill-rule="nonzero"/><path d="M972.99,170.25 C972.22,169.64 971.81,168.01 972.00,166.44 C972.77,166.92 973.00,167.78 972.99,170.25 Z" fill="#98C7FD" fill-rule="nonzero"/><path d="M800.00,3.03 L797.25,2.48 C797.30,1.98 800.77,1.26 800.00,3.03 Z" fill="#98C7FD" fill-rule="nonzero"/><path d="M806.58,4.09 L802.75,3.08 C805.22,3.02 806.08,3.24 806.58,4.09 Z" fill="#98C7FD" fill-rule="nonzero"/><path d="M974.95,794.25 L974.58,798.22 C973.57,797.09 974.36,795.17 974.95,794.25 Z" fill="#98C7FD" fill-rule="nonzero"/><path d="M5.00,811.06 C4.23,810.58 4.00,809.88 4.00,807.94 C4.78,808.42 5.00,809.12 5.00,811.06 Z" fill="#98C7FD" fill-rule="nonzero"/><path d="M112.75,953.66 L109.25,951.99 L112.75,953.66 Z" fill="#98C7FD" fill-rule="nonzero"/><path d="M812.07,5.10 L808.75,4.09 C810.84,4.02 811.58,4.25 812.07,5.10 Z" fill="#98C7FD" fill-rule="nonzero"/><path d="M817.04,6.00 L813.75,5.09 C815.84,5.02 816.58,5.23 817.04,6.00 Z" fill="#98C7FD" fill-rule="nonzero"/><path d="M159.75,6.09 L156.43,7.10 C156.92,6.25 157.66,6.02 159.75,6.09 Z" fill="#98C7FD" fill-rule="nonzero"/><path d="M155.75,7.09 L152.43,8.10 C152.92,7.25 153.66,7.02 155.75,7.09 Z" fill="#98C7FD" fill-rule="nonzero"/><path d="M6.00,816.06 C5.23,815.58 5.00,815.00 5.00,813.50 C5.78,813.50 6.00,814.08 6.00,816.06 Z" fill="#98C7FD" fill-rule="nonzero"/><path d="M163.56,5.00 C163.08,5.77 162.49,6.00 160.94,6.00 C161.42,5.22 162.01,5.00 163.56,5.00 Z" fill="#98C7FD" fill-rule="nonzero"/><path d="M825.25,7.97 C824.61,9.55 823.16,7.48 822.92,6.95 L825.25,7.97 Z" fill="#98C7FD" fill-rule="nonzero"/><path d="M966.03,143.06 C965.23,142.58 965.00,141.99 965.00,140.44 C965.77,140.92 966.01,141.51 966.03,143.06 Z" fill="#98C7FD" fill-rule="nonzero"/><path d="M972.00,164.56 C971.23,164.08 971.00,163.49 971.00,161.94 C971.77,162.42 972.00,163.01 972.00,164.56 Z" fill="#98C7FD" fill-rule="nonzero"/><path d="M971.94,813.46 C971.99,815.00 971.77,815.58 971.00,816.06 C971.00,814.51 971.21,813.92 971.94,813.46 Z" fill="#98C7FD" fill-rule="nonzero"/><path d="M7.00,820.06 C6.23,819.58 6.00,818.99 6.00,817.44 C6.78,817.92 7.00,818.51 7.00,820.06 Z" fill="#98C7FD" fill-rule="nonzero"/><path d="M841.25,964.47 L837.92,965.64 C838.42,964.76 839.16,964.49 841.25,964.47 Z" fill="#98C7FD" fill-rule="nonzero"/><path d="M837.92,965.64 L834.95,966.59 C835.42,965.75 836.09,965.53 837.92,965.64 Z" fill="#98C7FD" fill-rule="nonzero"/><path d="M823.25,970.07 L820.52,970.99 C820.51,970.22 821.12,970.02 823.25,970.07 Z" fill="#98C7FD" fill-rule="nonzero"/><path d="M794.75,975.09 L790.25,975.53 L794.75,975.09 Z" fill="#98C7FD" fill-rule="nonzero"/><path d="M850.25,16.43 C848.55,16.48 847.90,16.24 847.36,15.33 L850.25,16.43 Z" fill="#98C7FD" fill-rule="nonzero"/><path d="M968.90,152.25 L967.94,150.04 C969.70,149.39 968.88,151.33 968.90,152.25 Z" fill="#98C7FD" fill-rule="nonzero"/><path d="M6.92,156.75 C6.98,158.54 6.78,158.99 5.90,158.96 L6.92,156.75 Z" fill="#98C7FD" fill-rule="nonzero"/><path d="M848.94,961.62 L846.33,962.68 C846.42,962.65 846.91,960.77 848.94,961.62 Z" fill="#98C7FD" fill-rule="nonzero"/><path d="M163.75,971.93 C162.05,971.98 161.42,971.76 160.94,970.91 L163.75,971.93 Z" fill="#98C7FD" fill-rule="nonzero"/><path d="M825.75,969.24 L823.84,970.00 L825.75,969.24 Z" fill="#98C7FD" fill-rule="nonzero"/><path d="M880.25,945.35 L878.25,946.65 L880.25,945.35 Z" fill="#98C7FD" fill-rule="nonzero"/><path d="M847.36,15.33 L846.25,15.09 L847.36,15.33 Z" fill="#98C7FD" fill-rule="nonzero"/><path d="M842.75,964.08 L841.25,964.47 L842.75,964.08 Z" fill="#98C7FD" fill-rule="nonzero"/><path d="M884.37,943.13 L883.50,943.50 L884.37,943.13 Z" fill="#98C7FD" fill-rule="nonzero"/><path d="M883.50,943.50 L882.62,943.88 L883.50,943.50 Z" fill="#98C7FD" fill-rule="nonzero"/><path d="M880.87,945.13 L880.25,945.35 L880.87,945.13 Z" fill="#98C7FD" fill-rule="nonzero"/><path d="M878.25,946.65 L877.50,947.00 L878.25,946.65 Z" fill="#98C7FD" fill-rule="nonzero"/><path d="M877.50,947.00 L876.62,947.38 L877.50,947.00 Z" fill="#98C7FD" fill-rule="nonzero"/><path d="M875.87,948.13 L875.25,948.42 L875.87,948.13 Z" fill="#98C7FD" fill-rule="nonzero"/><path d="M846.33,962.68 L845.75,962.89 L846.33,962.68 Z" fill="#98C7FD" fill-rule="nonzero"/><path d="M884.76,942.75 L884.37,943.13 L884.76,942.75 Z" fill="#98C7FD" fill-rule="nonzero"/><path d="M882.62,943.88 L882.00,944.50 L882.62,943.88 Z" fill="#98C7FD" fill-rule="nonzero"/><path d="M881.50,944.50 L880.87,945.13 L881.50,944.50 Z" fill="#98C7FD" fill-rule="nonzero"/><path d="M876.62,947.38 L875.87,948.13 L876.62,947.38 Z" fill="#98C7FD" fill-rule="nonzero"/><path d="M849.50,960.94 L848.94,961.62 L849.50,960.94 Z" fill="#98C7FD" fill-rule="nonzero"/><path d="M779.25,975.85 L777.75,976.99 L201.25,976.99 L199.75,975.83 L779.25,975.85 Z" fill="#98C7FD" fill-rule="nonzero"/><path d="M198.92,1.03 L199.56,0.00 L778.44,0.00 L779.08,1.03 L198.92,1.03 Z" fill="#98C7FD" fill-rule="nonzero"/><path d="M1.00,198.50 L1.00,780.00 L-0.00,780.00 L-0.00,198.50 L1.00,198.50 Z" fill="#98C7FD" fill-rule="nonzero"/></svg>
