<svg version="1.1" xmlns="http://www.w3.org/2000/svg" viewBox="0 0 976 976" style="width: 100%; height: 100%;"><path d="M129.00,1.00 C131.22,0.64 135.60,1.89 136.06,0.00 L839.44,0.00 C839.86,1.88 844.56,0.67 846.54,0.97 C850.97,0.86 852.88,1.41 856.46,2.03 C856.92,2.78 857.51,3.00 859.06,3.00 L861.44,3.00 C861.92,3.78 862.51,4.00 864.06,4.00 C915.02,16.83 949.02,49.21 967.04,95.25 C966.79,95.76 968.82,97.21 967.90,99.04 L968.92,101.25 L969.00,101.94 C969.00,103.49 969.21,104.09 969.95,104.60 C970.90,106.31 971.00,106.72 971.00,108.94 C971.00,110.49 971.23,111.08 972.00,111.56 L971.90,112.93 L972.91,116.25 L973.03,117.77 C971.92,119.24 973.25,121.67 973.95,122.75 L973.86,125.01 C973.66,124.58 973.45,129.36 975.00,128.50 L974.75,137.29 L974.81,836.20 L974.53,846.75 L973.99,850.25 L973.99,852.25 C973.08,852.88 972.85,854.86 973.00,856.56 L973.00,859.50 C972.23,859.50 972.00,860.08 972.00,862.06 C966.15,889.81 952.75,911.50 936.46,929.04 L931.22,934.25 C916.17,949.21 897.75,960.75 875.25,968.04 C874.34,968.67 870.43,969.67 868.57,970.01 C865.75,970.17 862.57,970.83 860.75,971.97 L860.23,971.96 L857.25,972.54 L855.04,973.05 C853.29,972.83 850.90,972.99 850.25,973.99 L848.75,973.93 C848.11,973.17 844.08,973.92 843.25,974.59 L834.64,974.88 L765.75,974.93 L763.25,974.92 L141.81,974.84 L126.25,974.03 C125.58,973.32 122.18,972.32 121.25,973.47 L119.75,972.97 C119.14,972.25 117.51,971.80 115.94,972.00 L114.56,972.00 C114.08,971.23 113.38,971.03 111.45,971.12 C109.52,971.55 108.01,969.54 106.75,969.94 C106.08,969.05 104.08,968.31 102.25,968.56 C78.67,961.39 58.49,947.84 42.48,932.57 C42.60,930.38 40.48,929.00 38.75,928.28 C24.14,913.01 11.39,891.60 4.90,867.05 C4.98,865.51 4.78,864.92 4.00,864.44 L3.93,863.11 C5.15,861.95 3.54,860.25 3.03,859.25 L3.00,858.06 C3.00,855.73 2.79,854.92 2.05,854.46 L1.58,851.25 C1.92,851.23 2.81,847.22 0.97,848.00 L1.00,842.00 L0.97,133.46 L1.36,126.75 C2.57,126.12 2.79,123.91 2.04,122.91 L2.01,121.25 C2.92,120.62 3.15,118.64 3.00,116.94 L3.03,115.75 C3.43,115.31 5.45,111.68 4.16,111.66 C3.74,108.04 5.80,105.48 5.86,103.75 C6.83,100.58 8.02,96.40 9.07,94.25 L10.55,90.90 L15.75,78.73 L16.67,77.84 L17.89,75.13 L18.28,74.72 C23.83,64.37 30.34,55.31 38.25,47.25 L48.75,36.79 L51.75,34.11 C53.29,34.18 54.45,33.57 53.97,32.05 C59.55,28.53 65.94,22.73 71.28,20.25 C81.21,14.63 92.09,9.01 103.93,6.10 L107.25,5.09 L107.92,5.09 L111.75,4.08 L111.94,4.00 C113.51,4.19 115.14,3.78 115.75,3.01 L115.94,3.00 C116.71,2.85 116.86,4.76 118.21,2.31 C120.70,2.32 124.92,0.71 129.00,1.00 Z" fill="#0076FD" fill-rule="nonzero"/><g><path d="M851.25,412.34 C861.90,412.38 870.79,418.21 869.00,430.91 C868.94,431.36 844.99,497.41 842.41,504.75 L759.00,744.10 C753.66,756.44 743.55,764.69 728.75,768.25 L178.25,768.53 C165.86,767.47 156.79,759.47 152.75,749.71 L196.84,607.75 C196.97,607.36 198.15,607.64 198.44,606.74 L251.61,439.25 C257.46,425.41 271.32,415.91 288.75,412.34 L851.25,412.34 Z" fill="#FDCD33" fill-rule="nonzero"/><g><path d="M182.50,202.34 L199.50,202.34 L210.50,202.33 L380.25,202.28 C392.44,201.94 399.60,208.09 404.25,213.83 L439.71,265.08 C441.40,266.17 446.05,269.01 448.75,268.86 L454.50,268.86 L457.00,269.17 L722.00,269.17 C747.08,266.52 760.30,277.78 764.49,296.59 L764.49,372.59 L274.75,332.47 C256.11,331.88 230.15,323.30 225.04,343.04 L196.84,607.75 L152.75,749.71 L150.54,743.75 L150.33,695.50 L150.33,404.00 L150.33,231.25 C154.02,214.67 163.57,203.43 182.50,202.34 Z" fill="#FDB901" fill-rule="nonzero"/><path d="M764.49,372.59 C801.17,376.59 811.47,370.33 803.39,412.31 C818.53,411.81 836.68,411.76 851.25,412.34 L288.75,412.34 C271.32,415.91 257.46,425.41 251.61,439.25 L198.44,606.74 C198.15,607.64 196.97,607.36 196.84,607.75 L225.04,343.04 C230.15,323.30 256.11,331.88 274.75,332.47 L764.49,372.59 Z" fill="#FEF4DD" fill-rule="nonzero"/></g></g><path d="M150.33,404.00 L150.33,695.50 L150.33,404.00 Z" fill="#88A8DE" fill-rule="nonzero"/><path d="M722.00,269.17 L457.00,269.17 L722.00,269.17 Z" fill="#FEF4DD" fill-rule="nonzero"/><path d="M210.50,202.33 L380.25,202.28 L210.50,202.33 Z" fill="#88A8DE" fill-rule="nonzero"/><path d="M48.75,36.79 L38.25,47.25 L48.75,36.79 Z" fill="#88A8DE" fill-rule="nonzero"/><path d="M182.50,202.34 L199.50,202.34 L182.50,202.34 Z" fill="#88A8DE" fill-rule="nonzero"/><path d="M936.46,929.04 L931.22,934.25 L936.46,929.04 Z" fill="#88A8DE" fill-rule="nonzero"/><path d="M868.57,970.01 C868.69,971.45 865.96,970.78 865.06,971.00 C865.06,971.00 864.44,971.97 864.44,971.97 C863.94,972.09 861.23,971.86 860.75,971.97 C862.57,970.83 865.75,970.17 868.57,970.01 Z" fill="#88A8DE" fill-rule="nonzero"/><path d="M848.75,973.93 C848.31,975.70 844.38,974.94 843.25,974.59 C844.08,973.92 848.11,973.17 848.75,973.93 Z" fill="#88A8DE" fill-rule="nonzero"/><path d="M42.48,932.57 L38.75,928.28 C40.48,929.00 42.60,930.38 42.48,932.57 Z" fill="#88A8DE" fill-rule="nonzero"/><path d="M973.95,122.75 C973.25,121.67 971.92,119.24 973.03,117.77 C974.04,118.42 974.15,120.91 973.95,122.75 Z" fill="#88A8DE" fill-rule="nonzero"/><path d="M3.03,115.75 C3.32,114.27 2.22,111.39 4.16,111.66 C5.45,111.68 3.43,115.31 3.03,115.75 Z" fill="#88A8DE" fill-rule="nonzero"/><path d="M2.04,122.91 C2.79,123.91 2.57,126.12 1.36,126.75 C1.24,125.90 0.30,123.10 2.04,122.91 Z" fill="#88A8DE" fill-rule="nonzero"/><path d="M975.00,128.50 C973.45,129.36 973.66,124.58 973.86,125.01 C974.75,125.00 975.00,125.77 975.00,128.50 Z" fill="#88A8DE" fill-rule="nonzero"/><path d="M126.25,974.03 L121.25,973.47 C122.18,972.32 125.58,973.32 126.25,974.03 Z" fill="#88A8DE" fill-rule="nonzero"/><path d="M855.04,973.05 C854.58,973.79 853.50,974.00 850.25,973.99 C850.90,972.99 853.29,972.83 855.04,973.05 Z" fill="#88A8DE" fill-rule="nonzero"/><path d="M3.00,116.94 C3.15,118.64 2.92,120.62 2.01,121.25 C2.00,118.39 2.22,117.42 3.00,116.94 Z" fill="#88A8DE" fill-rule="nonzero"/><path d="M973.99,852.25 C974.00,855.11 973.77,856.08 973.00,856.56 C972.85,854.86 973.08,852.88 973.99,852.25 Z" fill="#88A8DE" fill-rule="nonzero"/><path d="M1.58,851.25 L0.97,848.00 C2.81,847.22 1.92,851.23 1.58,851.25 Z" fill="#88A8DE" fill-rule="nonzero"/><path d="M3.00,858.06 C2.23,857.58 2.01,856.77 2.05,854.46 C2.79,854.92 3.00,855.73 3.00,858.06 Z" fill="#88A8DE" fill-rule="nonzero"/><path d="M3.93,863.11 C3.15,862.80 2.83,860.71 3.03,859.25 C3.54,860.25 5.15,861.95 3.93,863.11 Z" fill="#88A8DE" fill-rule="nonzero"/><path d="M106.75,969.94 C104.63,970.48 103.61,968.80 102.25,968.56 C104.08,968.31 106.08,969.05 106.75,969.94 Z" fill="#88A8DE" fill-rule="nonzero"/><path d="M115.75,3.01 C115.14,3.78 113.51,4.19 111.94,4.00 C112.42,3.22 113.28,3.00 115.75,3.01 Z" fill="#88A8DE" fill-rule="nonzero"/><path d="M448.75,268.86 L454.50,268.86 L448.75,268.86 Z" fill="#88A8DE" fill-rule="nonzero"/><path d="M119.75,972.97 C117.28,972.99 116.42,972.77 115.94,972.00 C117.51,971.80 119.14,972.25 119.75,972.97 Z" fill="#88A8DE" fill-rule="nonzero"/><path d="M111.75,4.08 L107.92,5.09 C108.42,4.24 109.28,4.02 111.75,4.08 Z" fill="#88A8DE" fill-rule="nonzero"/><path d="M10.55,90.90 L9.07,94.25 C8.38,92.30 9.91,91.69 10.55,90.90 Z" fill="#88A8DE" fill-rule="nonzero"/><path d="M974.53,846.75 C975.75,847.41 974.56,849.81 973.99,850.25 L974.53,846.75 Z" fill="#88A8DE" fill-rule="nonzero"/><path d="M114.56,972.00 C112.62,972.00 111.92,971.80 111.45,971.12 C113.38,971.03 114.08,971.23 114.56,972.00 Z" fill="#88A8DE" fill-rule="nonzero"/><path d="M118.21,2.31 C116.86,4.76 116.71,2.85 115.94,3.00 C115.77,2.12 118.08,1.52 118.21,2.31 Z" fill="#88A8DE" fill-rule="nonzero"/><path d="M107.25,5.09 L103.93,6.10 C104.42,5.25 105.16,5.02 107.25,5.09 Z" fill="#88A8DE" fill-rule="nonzero"/><path d="M53.97,32.05 C54.45,33.57 53.29,34.18 51.75,34.11 L53.97,32.05 Z" fill="#88A8DE" fill-rule="nonzero"/><path d="M17.89,75.13 L16.67,77.84 L17.89,75.13 Z" fill="#88A8DE" fill-rule="nonzero"/><path d="M972.91,116.25 L971.90,112.93 C972.75,113.42 972.98,114.16 972.91,116.25 Z" fill="#88A8DE" fill-rule="nonzero"/><path d="M973.00,859.50 C973.00,861.00 972.77,861.58 972.00,862.06 C972.00,860.08 972.23,859.50 973.00,859.50 Z" fill="#88A8DE" fill-rule="nonzero"/><path d="M860.23,971.96 C860.03,972.87 857.84,973.62 857.25,972.54 L860.23,971.96 Z" fill="#88A8DE" fill-rule="nonzero"/><path d="M859.06,3.00 C857.51,3.00 856.92,2.78 856.46,2.03 C857.99,2.01 858.58,2.23 859.06,3.00 Z" fill="#88A8DE" fill-rule="nonzero"/><path d="M864.06,4.00 C862.51,4.00 861.92,3.78 861.44,3.00 C862.99,3.00 863.58,3.23 864.06,4.00 Z" fill="#88A8DE" fill-rule="nonzero"/><path d="M969.95,104.60 C969.21,104.09 969.00,103.49 969.00,101.94 C969.77,102.42 969.99,103.02 969.95,104.60 Z" fill="#88A8DE" fill-rule="nonzero"/><path d="M972.00,111.56 C971.23,111.08 971.00,110.49 971.00,108.94 C971.77,109.42 972.00,110.01 972.00,111.56 Z" fill="#88A8DE" fill-rule="nonzero"/><path d="M4.90,867.05 C4.20,866.58 4.00,865.99 4.00,864.44 C4.78,864.92 4.98,865.51 4.90,867.05 Z" fill="#88A8DE" fill-rule="nonzero"/><path d="M968.92,101.25 L967.90,99.04 C968.75,99.01 968.98,99.51 968.92,101.25 Z" fill="#88A8DE" fill-rule="nonzero"/><path d="M18.28,74.72 L17.89,75.13 L18.28,74.72 Z" fill="#88A8DE" fill-rule="nonzero"/><path d="M16.67,77.84 L15.75,78.73 L16.67,77.84 Z" fill="#88A8DE" fill-rule="nonzero"/><path d="M976.00,138.06 L975.86,174.50 L975.86,180.50 L975.85,475.50 L975.85,482.00 L976.00,835.44 L974.81,836.20 L974.75,137.29 L976.00,138.06 Z" fill="#88A8DE" fill-rule="nonzero"/><path d="M763.25,974.92 L759.75,975.91 L444.50,975.88 L442.50,975.88 L370.50,975.85 L361.50,975.85 L142.56,976.00 L141.81,974.84 L763.25,974.92 Z" fill="#88A8DE" fill-rule="nonzero"/><path d="M0.97,133.46 L1.00,842.00 L-0.00,842.00 L0.00,134.06 L0.97,133.46 Z" fill="#88A8DE" fill-rule="nonzero"/><path d="M834.64,974.88 L833.94,976.00 L769.25,975.91 L765.75,974.93 L834.64,974.88 Z" fill="#88A8DE" fill-rule="nonzero"/><path d="M129.00,1.00 L129.00,-0.00 L136.06,0.00 C135.60,1.89 131.22,0.64 129.00,1.00 Z" fill="#88A8DE" fill-rule="nonzero"/><path d="M839.44,0.00 L845.94,0.00 L846.54,0.97 C844.56,0.67 839.86,1.88 839.44,0.00 Z" fill="#88A8DE" fill-rule="nonzero"/></svg>
