<svg version="1.1" xmlns="http://www.w3.org/2000/svg" viewBox="0 0 1024 1024" width="1024" height="1024"><path d="M148.00,1.00 C150.75,1.00 151.50,0.79 151.50,-0.00 L874.00,-0.00 C874.00,0.78 874.56,1.00 876.50,1.00 C952.57,8.91 1010.58,66.60 1021.91,139.75 L1022.51,143.25 L1022.98,148.00 C1022.99,149.94 1023.23,150.50 1024.00,150.50 L1024.00,875.00 C1022.19,874.60 1023.30,875.92 1023.00,877.00 C1015.04,953.46 955.40,1014.68 878.02,1023.14 C877.63,1023.15 874.80,1022.28 875.50,1024.00 L149.50,1024.00 C149.50,1023.23 148.82,1023.02 146.49,1023.10 C116.12,1020.01 92.22,1009.57 72.25,995.94 C39.08,972.12 11.73,938.88 3.00,889.50 C1.90,886.82 0.51,880.08 1.00,874.56 C1.00,872.58 0.78,872.00 -0.00,872.00 L-0.00,152.00 C0.78,152.00 0.98,151.32 0.93,148.99 L1.50,143.57 L1.53,141.25 L2.33,136.71 L3.00,136.00 L3.00,133.80 L3.00,131.56 C3.77,131.08 3.98,130.50 3.92,128.96 C9.40,104.33 19.68,83.71 32.75,66.34 C58.30,33.47 94.90,6.12 148.00,1.00 Z" fill="#0472F9" fill-rule="nonzero"/><g><path d="M601.25,433.25 C585.01,433.91 576.90,430.45 571.25,444.75 L570.96,521.20 C571.95,528.05 576.29,532.91 582.66,535.00 L663.25,534.99 C668.85,533.14 672.57,529.30 674.54,523.75 L674.54,495.99 C699.18,507.07 726.39,516.52 761.75,517.09 C797.31,517.40 826.64,508.95 851.00,497.39 L851.00,777.92 C848.64,814.89 824.01,842.24 788.37,846.00 L160.23,846.00 C123.79,843.23 98.07,812.84 96.53,774.75 L96.54,441.25 C98.50,402.23 121.72,378.09 157.44,373.00 C294.76,372.51 435.69,373.98 571.22,372.25 C570.55,371.34 572.18,372.63 571.37,372.40 C578.31,395.65 589.10,414.98 601.25,433.25 Z" fill="#FCF9F5" fill-rule="nonzero"/><path d="M303.25,704.11 L691.96,704.00 C700.20,705.94 705.20,712.71 706.54,720.75 L706.25,792.25 C703.80,799.53 699.47,804.58 691.96,806.50 L303.71,806.50 C294.30,805.33 288.06,798.50 287.00,788.95 C286.63,785.58 286.71,725.89 287.01,722.75 C288.01,712.27 293.31,705.40 303.25,704.11 Z" fill="#153052" fill-rule="nonzero"/><path d="M162.25,704.11 C167.07,703.58 241.31,703.91 242.75,704.25 C248.64,706.36 252.14,709.86 254.25,715.75 L254.53,791.72 C253.48,798.35 249.49,803.29 243.25,805.75 C241.72,806.16 160.12,806.21 158.25,805.75 C153.25,804.52 147.99,799.24 146.75,794.25 C146.33,770.96 146.34,739.54 146.75,716.25 C149.53,708.83 153.51,705.07 162.25,704.11 Z" fill="#153052" fill-rule="nonzero"/><path d="M183.25,569.04 L273.54,569.00 C277.89,570.69 281.32,574.16 282.00,579.44 C282.26,581.47 282.08,659.80 282.00,660.32 C281.17,665.53 277.05,669.80 272.13,670.50 C269.50,670.87 185.18,670.62 184.25,670.46 C179.97,669.70 175.86,666.05 174.75,661.75 C174.33,636.30 174.34,602.71 174.75,577.25 C176.59,573.27 179.01,570.25 183.25,569.04 Z" fill="#153052" fill-rule="nonzero"/><path d="M327.11,569.00 L414.75,569.02 C419.12,570.33 422.85,574.31 423.50,578.87 C423.73,580.51 423.59,659.76 423.50,660.32 C422.63,665.79 418.22,669.80 413.18,670.52 C408.66,671.16 327.08,670.34 326.75,670.25 C323.15,669.24 319.17,664.99 318.25,661.25 C317.96,660.08 317.40,587.11 317.97,581.38 C318.56,575.48 321.56,570.11 327.11,569.00 Z" fill="#153052" fill-rule="nonzero"/><path d="M470.75,569.02 C471.27,568.92 555.33,568.67 557.18,569.00 C560.42,569.57 564.80,573.89 565.75,577.75 C565.91,578.39 566.58,653.13 566.04,658.15 C565.42,663.92 561.92,669.42 556.32,670.50 L471.87,670.50 C467.16,669.83 462.87,665.84 461.75,660.75 C461.36,658.96 461.31,582.80 461.81,579.25 C462.46,574.55 466.61,569.85 470.75,569.02 Z" fill="#153052" fill-rule="nonzero"/><path d="M613.25,569.09 L699.25,569.02 C703.30,570.48 705.82,573.37 707.50,577.21 L707.50,661.68 C706.22,666.00 702.13,669.93 697.25,670.54 C692.53,671.13 612.33,670.30 612.17,670.25 C608.38,668.48 606.02,666.12 604.25,662.33 C603.78,660.73 603.83,578.72 604.25,577.25 C606.18,573.34 608.71,569.92 613.25,569.09 Z" fill="#153052" fill-rule="nonzero"/><path d="M296.19,433.48 L378.33,433.75 C382.41,434.94 387.20,440.85 388.22,445.25 C388.52,446.56 389.11,515.54 388.53,520.61 C387.75,527.48 382.93,533.81 376.25,534.96 L296.25,534.99 C290.43,533.07 286.88,529.19 284.75,523.25 C284.31,521.39 284.31,447.11 284.75,445.25 C286.86,439.21 290.33,435.48 296.19,433.48 Z" fill="#153052" fill-rule="nonzero"/><path d="M520.25,433.25 C526.09,435.40 529.60,438.91 531.75,444.75 C532.20,446.57 532.20,521.93 531.75,523.75 C530.73,527.90 525.71,533.60 521.75,534.75 C496.80,535.16 463.70,535.16 438.75,534.75 C433.66,532.31 429.56,528.21 428.48,522.69 L428.75,444.25 C429.83,440.08 434.69,434.91 438.75,433.76 C441.21,433.07 516.85,432.44 520.25,433.25 Z" fill="#153052" fill-rule="nonzero"/><path d="M156.70,433.50 L237.25,433.51 C242.04,434.43 247.70,440.66 248.50,445.68 C248.63,446.49 248.72,521.07 248.50,522.46 C247.63,528.01 242.05,533.98 236.75,535.00 L157.68,535.00 C151.90,534.08 146.41,528.26 145.50,522.46 C145.45,522.17 145.45,446.33 145.50,446.04 C146.30,440.92 151.86,434.46 156.70,433.50 Z" fill="#153052" fill-rule="nonzero"/><path d="M801.25,568.77 C804.35,569.57 808.40,573.67 809.25,576.75 C809.67,602.74 809.66,636.73 809.25,662.78 C807.83,666.60 805.75,668.99 802.41,670.75 C802.41,670.75 745.80,671.48 742.75,671.04 C738.68,670.44 734.75,666.55 734.01,661.75 C733.79,660.38 733.73,580.58 734.00,578.68 C734.60,574.49 737.39,570.44 741.25,569.25 C742.64,568.82 799.13,568.23 801.25,568.77 Z" fill="#153052" fill-rule="nonzero"/><g><path d="M851.00,497.39 C826.64,508.95 797.31,517.40 761.75,517.09 C726.39,516.52 699.18,507.07 674.54,495.99 C645.44,480.07 619.77,458.41 601.25,433.25 C589.10,414.98 578.31,395.65 571.37,372.40 C572.18,372.63 570.55,371.34 571.22,372.25 C566.94,356.23 563.79,339.53 563.30,319.75 L563.35,312.50 L563.60,305.75 L563.90,300.75 C571.10,199.80 651.66,118.36 756.25,115.00 C860.94,111.64 937.09,184.55 957.11,266.75 C981.68,379.11 923.40,461.82 851.00,497.39 Z" fill="#FDC234" fill-rule="nonzero"/><path d="M843.43,271.75 C835.79,317.49 787.59,323.56 782.46,356.75 L781.84,370.75 L778.60,374.00 L738.90,374.00 L735.50,370.60 C735.50,370.60 735.43,353.88 735.50,352.94 C738.75,310.58 779.64,299.54 789.40,275.24 C806.41,232.88 744.46,211.04 728.60,256.25 C727.22,260.20 727.51,267.16 723.29,268.16 C723.29,268.16 683.60,267.67 683.01,267.54 C678.11,266.44 679.86,259.39 680.55,254.75 C695.13,155.76 860.05,172.41 843.43,271.75 Z" fill="#153052" fill-rule="nonzero"/><path d="M755.75,396.56 C797.89,394.67 798.96,453.11 757.67,453.63 C721.65,449.73 721.34,402.28 755.75,396.56 Z" fill="#153052" fill-rule="nonzero"/><path d="M674.54,495.99 L674.54,523.75 C672.57,529.30 668.85,533.14 663.25,534.99 L582.66,535.00 C576.29,532.91 571.95,528.05 570.96,521.20 L571.25,444.75 C576.90,430.45 585.01,433.91 601.25,433.25 C619.77,458.41 645.44,480.07 674.54,495.99 Z" fill="#153052" fill-rule="nonzero"/></g></g><path d="M563.35,312.50 L563.30,319.75 L563.35,312.50 Z" fill="#153052" fill-rule="nonzero"/><path d="M1022.51,143.25 L1021.91,139.75 C1023.03,139.89 1023.55,142.65 1022.51,143.25 Z" fill="#FCF9F5" fill-rule="nonzero"/><path d="M1.53,141.25 L1.50,143.57 L1.53,141.25 Z" fill="#FCF9F5" fill-rule="nonzero"/><path d="M563.90,300.75 L563.60,305.75 L563.90,300.75 Z" fill="#FCF9F5" fill-rule="nonzero"/><path d="M3.92,128.96 C3.98,130.50 3.77,131.08 3.00,131.56 C3.00,130.01 3.21,129.42 3.92,128.96 Z" fill="#FCF9F5" fill-rule="nonzero"/><path d="M3.00,133.80 L3.00,136.00 L2.33,136.71 C1.51,136.42 2.09,133.77 3.00,133.80 Z" fill="#FCF9F5" fill-rule="nonzero"/><path d="M3.00,136.00 L2.33,136.71 L3.00,136.00 Z" fill="#101010" fill-rule="nonzero"/><path d="M148.00,1.00 L148.00,-0.00 L151.50,-0.00 C151.50,0.79 150.75,1.00 148.00,1.00 Z" fill="#FCF9F5" fill-rule="nonzero"/><path d="M0.93,148.99 C0.98,151.32 0.78,152.00 -0.00,152.00 L-0.00,149.00 L0.93,148.99 Z" fill="#FCF9F5" fill-rule="nonzero"/><path d="M149.50,1024.00 L146.50,1024.00 L146.49,1023.10 C148.82,1023.02 149.50,1023.23 149.50,1024.00 Z" fill="#FCF9F5" fill-rule="nonzero"/><path d="M874.00,-0.00 L876.50,-0.00 L876.50,1.00 C874.56,1.00 874.00,0.78 874.00,-0.00 Z" fill="#FCF9F5" fill-rule="nonzero"/><path d="M1024.00,148.00 L1024.00,150.50 C1023.23,150.50 1022.99,149.94 1022.98,148.00 L1024.00,148.00 Z" fill="#FCF9F5" fill-rule="nonzero"/><path d="M878.02,1023.14 L878.00,1024.00 L875.50,1024.00 C874.80,1022.28 877.63,1023.15 878.02,1023.14 Z" fill="#FCF9F5" fill-rule="nonzero"/><path d="M0.00,873.94 L-0.00,872.00 C0.78,872.00 1.00,872.58 1.00,874.56 L0.00,873.94 Z" fill="#FCF9F5" fill-rule="nonzero"/><path d="M1023.00,877.00 C1023.30,875.92 1022.19,874.60 1024.00,875.00 L1024.00,877.00 L1023.00,877.00 Z" fill="#FCF9F5" fill-rule="nonzero"/></svg>
