<svg version="1.1" xmlns="http://www.w3.org/2000/svg" viewBox="0 0 924 924" width="1024" height="1024"><path d="M170.00,1.00 C172.75,1.00 173.50,0.79 173.50,-0.00 L749.50,-0.00 C749.50,0.80 750.42,1.00 754.00,1.00 C758.31,0.58 762.38,1.45 764.75,2.15 L768.58,3.09 L770.94,3.00 C771.42,3.78 772.01,4.00 773.56,4.00 L775.94,4.00 C776.42,4.78 777.01,5.00 778.56,5.00 C840.97,18.91 885.39,60.84 909.00,113.42 L914.04,128.01 L914.92,130.25 L915.00,130.84 L916.00,133.16 C915.45,134.87 917.63,135.65 917.05,138.03 L917.92,140.25 C920.30,149.92 922.80,162.09 923.13,174.50 C923.03,178.45 923.21,179.50 924.00,179.50 L924.00,746.50 C923.23,746.50 923.01,747.18 923.03,749.50 C923.49,755.31 922.37,760.04 921.97,765.00 C921.22,765.00 921.00,765.58 921.00,767.56 C919.84,782.02 914.53,795.36 910.60,806.25 C890.58,856.20 852.92,892.35 803.73,911.79 L787.25,917.14 C784.86,916.27 784.40,918.11 784.39,918.12 L779.25,919.14 C778.48,919.09 775.75,918.32 776.53,920.03 C773.43,919.65 771.97,921.73 768.54,921.03 C766.86,920.80 764.88,921.14 764.25,921.96 C762.10,922.60 757.36,923.40 753.55,923.02 C750.37,923.00 749.50,923.22 749.50,924.00 L175.50,924.00 C175.50,923.21 174.67,923.00 171.50,923.00 C151.11,922.44 135.15,916.23 119.99,911.16 C120.51,909.49 117.67,909.31 117.25,909.78 C113.48,908.69 107.09,905.17 102.99,903.67 C103.52,902.18 101.37,901.95 100.25,902.02 C70.87,887.37 46.85,864.80 29.25,837.28 L28.23,835.75 C18.83,820.12 10.39,802.31 5.92,782.75 C5.98,780.96 5.78,780.51 4.90,780.54 L5.00,778.00 C5.00,776.50 4.78,775.92 4.00,775.44 L4.00,773.00 C3.68,772.00 4.84,770.58 3.00,771.00 L3.00,768.06 C3.00,765.69 2.81,765.00 2.14,764.98 C2.17,760.16 0.38,756.67 1.00,751.00 C1.00,748.25 0.79,747.50 -0.00,747.50 L-0.00,177.50 C0.86,177.50 1.00,176.84 0.75,174.00 C0.79,166.65 1.97,160.63 3.00,153.00 C3.77,153.00 3.99,152.55 3.95,151.00 C7.08,130.14 15.14,111.32 23.25,96.71 C50.35,47.85 100.14,7.17 170.00,1.00 Z" fill="#157BEC" fill-rule="nonzero"/><path d="M500.22,141.01 C654.97,159.85 784.49,302.43 764.99,491.75 C749.55,641.72 623.90,775.94 453.75,771.13 C353.74,768.30 275.89,715.05 230.31,657.75 C226.02,652.36 211.88,633.22 209.61,626.75 C199.18,596.90 235.91,574.64 257.12,599.75 C316.48,697.51 457.20,758.94 586.65,681.91 C749.07,585.26 754.31,334.66 593.75,232.15 C442.01,139.00 270.95,227.91 228.00,363.50 L279.84,363.50 C289.89,366.69 294.92,377.26 289.14,387.75 L210.01,494.87 C201.84,502.23 190.25,502.16 182.53,494.44 L103.56,388.15 C97.16,377.87 102.58,366.98 111.75,363.75 L169.70,363.25 C202.18,237.94 330.88,120.40 500.22,141.01 Z" fill="#FEFEFE" fill-rule="nonzero"/><path d="M488.25,290.25 L488.52,457.68 C495.83,464.62 503.46,474.42 502.50,489.88 L583.25,559.73 C607.24,578.61 583.38,617.57 554.25,599.47 L471.43,527.43 C429.31,535.60 406.82,488.42 433.50,459.82 L433.56,291.75 C439.32,260.58 480.58,259.77 488.25,290.25 Z" fill="#FEFEFE" fill-rule="nonzero"/><path d="M768.54,921.03 C768.08,921.78 767.11,921.99 764.25,921.96 C764.88,921.14 766.86,920.80 768.54,921.03 Z" fill="#FEFEFE" fill-rule="nonzero"/><path d="M3.00,768.06 C1.94,768.20 1.75,765.85 2.14,764.98 C2.81,765.00 3.00,765.69 3.00,768.06 Z" fill="#FEFEFE" fill-rule="nonzero"/><path d="M768.58,3.09 L764.75,2.15 C766.05,1.86 768.62,1.71 768.58,3.09 Z" fill="#FEFEFE" fill-rule="nonzero"/><path d="M117.25,909.78 C117.67,909.31 120.51,909.49 119.99,911.16 L117.25,909.78 Z" fill="#FEFEFE" fill-rule="nonzero"/><path d="M921.97,765.00 C921.99,766.50 921.77,767.08 921.00,767.56 C921.00,765.58 921.22,765.00 921.97,765.00 Z" fill="#FEFEFE" fill-rule="nonzero"/><path d="M5.00,778.00 C4.22,778.00 4.00,777.42 4.00,775.44 C4.78,775.92 5.00,776.50 5.00,778.00 Z" fill="#FEFEFE" fill-rule="nonzero"/><path d="M102.99,903.67 L100.25,902.02 C101.37,901.95 103.52,902.18 102.99,903.67 Z" fill="#FEFEFE" fill-rule="nonzero"/><path d="M773.56,4.00 C772.01,4.00 771.42,3.78 770.94,3.00 C772.49,3.00 773.08,3.23 773.56,4.00 Z" fill="#FEFEFE" fill-rule="nonzero"/><path d="M778.56,5.00 C777.01,5.00 776.42,4.78 775.94,4.00 C777.49,4.00 778.08,4.23 778.56,5.00 Z" fill="#FEFEFE" fill-rule="nonzero"/><path d="M3.95,151.00 C3.99,152.55 3.77,153.00 3.00,153.00 C3.35,151.91 2.15,150.61 3.95,151.00 Z" fill="#FEFEFE" fill-rule="nonzero"/><path d="M4.00,773.00 C2.19,773.40 3.30,772.08 3.00,771.00 C4.84,770.58 3.68,772.00 4.00,773.00 Z" fill="#FEFEFE" fill-rule="nonzero"/><path d="M779.25,919.14 L776.53,920.03 C775.75,918.32 778.48,919.09 779.25,919.14 Z" fill="#FEFEFE" fill-rule="nonzero"/><path d="M914.92,130.25 L914.04,128.01 C915.68,127.44 914.85,129.34 914.92,130.25 Z" fill="#FEFEFE" fill-rule="nonzero"/><path d="M917.92,140.25 L917.05,138.03 C918.68,137.42 917.85,139.32 917.92,140.25 Z" fill="#FEFEFE" fill-rule="nonzero"/><path d="M5.92,782.75 L4.90,780.54 C5.78,780.51 5.98,780.96 5.92,782.75 Z" fill="#FEFEFE" fill-rule="nonzero"/><path d="M787.25,917.14 L784.39,918.12 C784.40,918.11 784.86,916.27 787.25,917.14 Z" fill="#FEFEFE" fill-rule="nonzero"/><path d="M916.00,133.16 L915.00,130.84 L916.00,133.16 Z" fill="#FEFEFE" fill-rule="nonzero"/><path d="M29.25,837.28 L28.23,835.75 L29.25,837.28 Z" fill="#FEFEFE" fill-rule="nonzero"/><path d="M924.00,175.06 L924.00,179.50 C923.21,179.50 923.03,178.45 923.13,174.50 L924.00,175.06 Z" fill="#FEFEFE" fill-rule="nonzero"/><path d="M749.50,-0.00 L754.00,-0.00 L754.00,1.00 C750.42,1.00 749.50,0.80 749.50,-0.00 Z" fill="#FEFEFE" fill-rule="nonzero"/><path d="M175.50,924.00 L171.50,924.00 L171.50,923.00 C174.67,923.00 175.50,923.21 175.50,924.00 Z" fill="#FEFEFE" fill-rule="nonzero"/><path d="M753.55,923.02 L752.94,924.00 L749.50,924.00 C749.50,923.22 750.37,923.00 753.55,923.02 Z" fill="#FEFEFE" fill-rule="nonzero"/><path d="M170.00,1.00 L170.00,-0.00 L173.50,-0.00 C173.50,0.79 172.75,1.00 170.00,1.00 Z" fill="#FEFEFE" fill-rule="nonzero"/><path d="M0.75,174.00 C1.00,176.84 0.86,177.50 -0.00,177.50 L-0.00,174.00 L0.75,174.00 Z" fill="#FEFEFE" fill-rule="nonzero"/><path d="M-0.00,751.00 L-0.00,747.50 C0.79,747.50 1.00,748.25 1.00,751.00 L-0.00,751.00 Z" fill="#FEFEFE" fill-rule="nonzero"/><path d="M923.03,749.50 C923.01,747.18 923.23,746.50 924.00,746.50 L924.00,749.50 L923.03,749.50 Z" fill="#FEFEFE" fill-rule="nonzero"/></svg>
