<svg version="1.1" xmlns="http://www.w3.org/2000/svg" viewBox="0 0 1024 1024" width="1024" height="1024"><path d="M151.28,0.00 L152.88,0.00 C153.58,2.57 160.31,1.62 161.25,0.06 L860.94,0.00 C918.77,6.90 957.43,33.51 986.25,69.74 C1004.86,92.11 1018.53,122.98 1024.00,160.00 L1024.00,864.00 C1023.94,864.29 1023.17,863.71 1023.11,864.00 C1022.75,865.89 1023.35,870.65 1022.49,871.25 C1008.72,953.79 948.61,1012.32 863.94,1024.00 L156.00,1024.00 C129.29,1019.38 104.45,1010.94 86.25,999.19 C51.81,978.06 24.33,946.42 9.96,906.25 C5.68,894.13 1.53,881.11 1.00,865.00 L-0.00,865.00 L-0.00,159.06 C2.07,149.14 3.89,136.15 6.82,128.25 C17.39,92.87 37.11,65.15 61.75,43.78 C84.67,24.36 113.82,6.72 152.72,2.00 C152.83,0.56 151.17,1.44 151.28,0.00 Z" fill="#237AFC" fill-rule="nonzero"/><path d="M455.16,340.75 L339.00,456.47 L339.00,457.50 L822.25,457.50 C888.02,466.23 888.72,557.92 822.25,566.50 L338.50,566.50 L338.50,567.79 C376.86,608.74 415.91,649.46 454.65,690.25 C495.20,740.32 432.42,800.85 381.75,761.59 C309.57,689.01 237.32,614.72 166.05,542.23 C149.85,524.54 150.35,500.28 165.43,482.74 L384.25,270.72 C433.78,232.74 494.40,293.11 455.16,340.75 Z" fill="#4CBD26" fill-rule="nonzero"/></svg>
