<svg version="1.1" xmlns="http://www.w3.org/2000/svg" viewBox="0 0 1024 1024" width="1024" height="1024"><path d="M151.00,1.00 C152.11,0.87 155.71,1.68 155.00,0.00 L869.00,0.00 C868.43,1.72 870.97,0.82 872.00,1.00 L877.94,1.00 C878.00,2.07 879.58,2.11 881.00,2.00 L883.44,2.00 C883.49,3.24 885.49,3.03 887.00,3.00 C889.67,2.53 891.18,3.82 892.25,4.06 C892.92,4.67 894.21,5.22 896.00,5.00 C898.40,5.00 899.00,5.22 899.00,5.53 C899.00,5.83 899.28,6.07 900.25,6.07 L902.97,7.09 L903.75,7.08 L905.98,7.98 L909.75,9.06 L911.98,10.09 L920.25,13.07 L921.94,14.09 C960.45,30.91 988.53,59.63 1007.50,96.25 C1012.07,105.30 1016.25,117.64 1018.90,129.03 L1019.88,132.25 L1021.06,138.75 L1021.97,144.00 L1022.53,146.75 L1023.05,152.00 C1022.96,153.18 1022.73,155.61 1024.00,155.56 L1024.00,868.50 C1022.30,867.86 1023.15,870.92 1023.00,872.00 C1021.90,888.62 1017.45,904.50 1011.83,918.25 C999.60,948.17 976.89,975.71 952.08,993.25 C935.28,1005.12 915.66,1014.96 892.00,1020.00 C890.66,1019.81 889.53,1020.13 889.44,1021.00 L887.00,1021.00 C885.66,1020.81 884.53,1021.13 884.44,1022.00 L882.00,1022.00 C881.04,1022.31 879.57,1021.18 880.00,1023.00 L874.00,1023.00 C873.02,1023.23 870.96,1022.26 871.50,1024.00 L153.50,1024.00 C154.13,1022.26 151.58,1023.20 150.99,1023.06 L146.25,1022.56 L143.01,1021.97 C139.30,1022.74 137.54,1020.81 134.54,1020.95 C134.51,1020.21 133.32,1019.77 132.00,1020.00 L130.75,1019.93 L128.03,1018.91 C105.05,1013.53 85.12,1003.35 68.75,990.76 C39.92,968.59 14.93,937.20 5.09,894.97 L4.07,892.25 L4.10,890.97 L3.09,887.75 L3.09,885.98 L2.10,881.75 L0.98,871.00 C0.80,870.25 1.72,867.91 0.00,868.50 L0.00,156.00 C1.75,156.67 0.82,153.61 0.93,152.99 L1.46,147.25 L2.03,145.00 L2.01,141.75 C2.73,141.08 3.19,139.78 3.00,138.00 L3.09,136.25 L3.96,133.01 C8.20,112.85 15.98,95.11 25.43,80.31 C50.01,42.94 85.08,13.47 136.98,2.91 C138.65,3.33 140.92,2.61 141.75,2.10 C144.51,1.75 146.12,0.49 151.00,1.00 Z" fill="#2075FD" fill-rule="nonzero"/><g><path d="M668.62,234.10 C683.37,256.84 700.48,296.49 700.49,334.25 L700.50,446.00 C736.64,444.12 773.12,480.30 773.25,512.75 L773.25,785.75 C773.25,816.07 738.22,852.17 708.25,852.24 L323.75,852.55 C278.13,852.53 248.55,819.36 248.53,772.25 L248.51,522.25 C248.54,479.69 279.18,448.37 319.50,445.87 L319.51,342.25 C319.51,285.81 343.01,240.81 370.20,211.25 C454.94,119.12 603.44,133.55 668.62,234.10 Z" fill="#FEFEFE" fill-rule="nonzero"/><path d="M595.13,252.05 C644.85,301.13 630.28,352.83 632.55,445.47 C632.41,445.66 630.25,446.02 630.25,446.02 L388.25,445.75 C388.35,408.32 387.14,364.85 388.26,328.25 C388.37,324.50 389.84,319.01 390.53,315.25 C408.45,225.98 521.65,181.94 595.13,252.05 Z" fill="#2075FD" fill-rule="nonzero"/><path d="M566.03,624.80 C562.27,640.33 552.54,651.16 541.75,659.35 C536.69,707.65 560.20,748.02 498.25,741.18 C491.46,740.43 480.61,730.56 480.25,723.75 C479.26,704.89 480.68,678.94 479.75,659.37 C442.12,633.61 446.57,576.81 488.25,559.12 C531.67,540.69 577.05,579.26 566.03,624.80 Z" fill="#2075FD" fill-rule="nonzero"/></g><path d="M141.75,2.10 C140.92,2.61 138.65,3.33 136.98,2.91 C136.28,1.24 140.68,2.21 141.75,2.10 Z" fill="#FEFEFE" fill-rule="nonzero"/><path d="M887.00,3.00 C885.49,3.03 883.49,3.24 883.44,2.00 C884.31,2.12 887.67,1.32 887.00,3.00 Z" fill="#FEFEFE" fill-rule="nonzero"/><path d="M3.09,885.98 C1.16,886.85 2.21,882.71 2.10,881.75 L3.09,885.98 Z" fill="#FEFEFE" fill-rule="nonzero"/><path d="M896.00,5.00 C894.21,5.22 892.92,4.67 892.25,4.06 C893.09,4.18 896.69,3.24 896.00,5.00 Z" fill="#FEFEFE" fill-rule="nonzero"/><path d="M3.00,138.00 C3.19,139.78 2.73,141.08 2.01,141.75 C2.14,140.85 1.30,137.33 3.00,138.00 Z" fill="#FEFEFE" fill-rule="nonzero"/><path d="M881.00,2.00 C879.58,2.11 878.00,2.07 877.94,1.00 C878.76,1.15 881.61,0.31 881.00,2.00 Z" fill="#FEFEFE" fill-rule="nonzero"/><path d="M146.25,1022.56 C146.23,1022.94 142.21,1023.80 143.01,1021.97 L146.25,1022.56 Z" fill="#FEFEFE" fill-rule="nonzero"/><path d="M1019.88,132.25 L1018.90,129.03 C1020.87,128.19 1019.74,131.42 1019.88,132.25 Z" fill="#FEFEFE" fill-rule="nonzero"/><path d="M3.96,133.01 L3.09,136.25 C3.24,135.44 2.22,132.26 3.96,133.01 Z" fill="#FEFEFE" fill-rule="nonzero"/><path d="M4.10,890.97 C2.16,891.79 3.25,888.62 3.09,887.75 L4.10,890.97 Z" fill="#FEFEFE" fill-rule="nonzero"/><path d="M1022.53,146.75 L1021.97,144.00 C1024.12,143.42 1022.50,146.36 1022.53,146.75 Z" fill="#FEFEFE" fill-rule="nonzero"/><path d="M134.54,1020.95 C133.87,1020.80 131.38,1021.74 132.00,1020.00 C133.32,1019.77 134.51,1020.21 134.54,1020.95 Z" fill="#FEFEFE" fill-rule="nonzero"/><path d="M892.00,1020.00 C892.58,1021.70 890.22,1020.82 889.44,1021.00 C889.53,1020.13 890.66,1019.81 892.00,1020.00 Z" fill="#FEFEFE" fill-rule="nonzero"/><path d="M887.00,1021.00 C887.58,1022.70 885.22,1021.82 884.44,1022.00 C884.53,1021.13 885.66,1020.81 887.00,1021.00 Z" fill="#FEFEFE" fill-rule="nonzero"/><path d="M902.97,7.09 L900.25,6.07 C901.08,6.26 903.75,5.17 902.97,7.09 Z" fill="#FEFEFE" fill-rule="nonzero"/><path d="M2.03,145.00 L1.46,147.25 C0.94,147.18 0.35,144.30 2.03,145.00 Z" fill="#FEFEFE" fill-rule="nonzero"/><path d="M5.09,894.97 C3.17,895.75 4.26,893.08 4.07,892.25 L5.09,894.97 Z" fill="#FEFEFE" fill-rule="nonzero"/><path d="M130.75,1019.93 C129.92,1019.74 127.25,1020.83 128.03,1018.91 L130.75,1019.93 Z" fill="#FEFEFE" fill-rule="nonzero"/><path d="M882.00,1022.00 C882.43,1023.82 880.96,1022.69 880.00,1023.00 C879.57,1021.18 881.04,1022.31 882.00,1022.00 Z" fill="#FEFEFE" fill-rule="nonzero"/><path d="M905.98,7.98 L903.75,7.08 C904.41,7.29 906.68,6.18 905.98,7.98 Z" fill="#FEFEFE" fill-rule="nonzero"/><path d="M911.98,10.09 L909.75,9.06 C910.56,9.32 912.60,8.11 911.98,10.09 Z" fill="#FEFEFE" fill-rule="nonzero"/><path d="M921.94,14.09 L920.25,13.07 C921.31,13.12 922.45,12.33 921.94,14.09 Z" fill="#FEFEFE" fill-rule="nonzero"/><path d="M151.00,1.00 L151.00,0.00 L155.00,0.00 C155.71,1.68 152.11,0.87 151.00,1.00 Z" fill="#FEFEFE" fill-rule="nonzero"/><path d="M1023.00,872.00 C1023.15,870.92 1022.30,867.86 1024.00,868.50 L1024.00,872.00 L1023.00,872.00 Z" fill="#FEFEFE" fill-rule="nonzero"/><path d="M1024.00,152.00 L1024.00,155.56 C1022.73,155.61 1022.96,153.18 1023.05,152.00 L1024.00,152.00 Z" fill="#FEFEFE" fill-rule="nonzero"/><path d="M869.00,0.00 L872.00,0.00 L872.00,1.00 C870.97,0.82 868.43,1.72 869.00,0.00 Z" fill="#FEFEFE" fill-rule="nonzero"/><path d="M0.93,152.99 C0.82,153.61 1.75,156.67 0.00,156.00 L-0.00,153.00 L0.93,152.99 Z" fill="#FEFEFE" fill-rule="nonzero"/><path d="M0.00,871.00 L-0.00,868.50 C1.72,867.91 0.80,870.25 0.98,871.00 L0.00,871.00 Z" fill="#FEFEFE" fill-rule="nonzero"/><path d="M153.50,1024.00 L151.00,1024.00 L150.99,1023.06 C151.58,1023.20 154.13,1022.26 153.50,1024.00 Z" fill="#FEFEFE" fill-rule="nonzero"/><path d="M874.00,1023.00 L874.00,1024.00 L871.50,1024.00 C870.96,1022.26 873.02,1023.23 874.00,1023.00 Z" fill="#FEFEFE" fill-rule="nonzero"/></svg>
