<svg version="1.1" xmlns="http://www.w3.org/2000/svg" viewBox="0 0 1024 1024" style="width: 100%; height: 100%;"><path d="M125.00,1.00 C127.28,1.00 128.08,0.78 128.56,0.00 L897.00,-0.00 C896.60,1.81 897.92,0.70 899.00,1.00 C903.03,0.56 906.65,1.49 908.75,2.16 L911.99,2.98 C966.35,14.12 1007.07,55.78 1020.20,108.25 C1021.36,112.75 1022.98,118.98 1023.01,125.00 C1023.00,127.28 1023.23,128.08 1024.00,128.56 L1024.00,896.00 C1023.22,896.00 1023.00,896.67 1023.00,899.00 C1021.25,922.59 1012.12,942.56 1001.87,959.25 C982.44,988.31 953.75,1012.32 913.06,1021.00 C911.48,1020.79 909.86,1021.28 909.25,1021.95 C907.18,1022.24 903.76,1023.45 900.00,1023.00 C898.06,1023.00 897.50,1023.23 897.50,1024.00 L124.06,1024.00 C54.35,1010.79 11.48,968.37 0.00,896.94 L-0.00,129.00 C0.78,129.00 0.99,128.44 0.96,126.50 C2.45,104.07 9.97,86.65 18.52,71.25 C34.95,42.89 60.05,20.01 93.75,7.92 C102.08,4.94 112.94,1.41 125.00,1.00 Z" fill="#0079FE" fill-rule="nonzero"/><path d="M844.05,477.75 L843.71,790.75 C830.16,861.55 732.93,860.52 720.78,789.25 L720.20,469.75 C712.86,378.08 639.68,306.14 550.25,297.57 C435.75,286.60 348.27,370.80 340.34,469.75 C339.58,514.21 340.25,564.02 339.94,609.95 L415.25,610.27 C425.56,613.45 432.68,624.11 426.91,636.54 C381.17,698.95 334.58,762.23 288.95,825.25 C281.77,833.15 269.42,834.60 261.03,825.96 C215.18,763.03 169.14,699.56 122.87,636.75 C116.99,625.38 123.47,613.66 134.25,610.25 L215.94,609.97 C216.25,563.15 215.58,512.55 216.34,467.25 C228.27,315.54 337.79,199.46 476.75,177.05 C681.60,144.00 838.59,297.29 844.05,477.75 Z" fill="#FEFEFE" fill-rule="nonzero"/><path d="M913.06,1021.00 C912.58,1021.77 911.72,1021.99 909.25,1021.95 C909.86,1021.28 911.48,1020.79 913.06,1021.00 Z" fill="#FEFEFE" fill-rule="nonzero"/><path d="M911.99,2.98 L908.75,2.16 C911.27,2.04 912.00,2.22 911.99,2.98 Z" fill="#FEFEFE" fill-rule="nonzero"/><path d="M125.00,1.00 L125.00,-0.00 L128.56,0.00 C128.08,0.78 127.28,1.00 125.00,1.00 Z" fill="#FEFEFE" fill-rule="nonzero"/><path d="M1024.00,125.00 L1024.00,128.56 C1023.23,128.08 1023.00,127.28 1023.01,125.00 L1024.00,125.00 Z" fill="#FEFEFE" fill-rule="nonzero"/><path d="M1023.00,899.00 C1023.00,896.67 1023.22,896.00 1024.00,896.00 L1024.00,899.00 L1023.00,899.00 Z" fill="#FEFEFE" fill-rule="nonzero"/><path d="M0.96,126.50 C0.99,128.44 0.78,129.00 -0.00,129.00 L-0.00,126.50 L0.96,126.50 Z" fill="#FEFEFE" fill-rule="nonzero"/><path d="M900.00,1023.00 L900.00,1024.00 L897.50,1024.00 C897.50,1023.23 898.06,1023.00 900.00,1023.00 Z" fill="#FEFEFE" fill-rule="nonzero"/><path d="M897.00,-0.00 L899.00,-0.00 L899.00,1.00 C897.92,0.70 896.60,1.81 897.00,-0.00 Z" fill="#FEFEFE" fill-rule="nonzero"/></svg>
