<svg version="1.1" xmlns="http://www.w3.org/2000/svg" viewBox="0 0 1024 1024" width="1024" height="1024"><path d="M123.50,1.00 C126.67,1.00 127.50,0.79 127.50,-0.00 L898.00,-0.00 C898.00,0.79 898.83,1.00 902.00,1.00 C965.47,9.84 1006.74,51.29 1021.08,108.96 C1021.02,110.88 1021.20,111.57 1021.90,112.01 L1023.01,122.50 C1023.00,124.44 1023.23,125.00 1024.00,125.00 L1024.00,899.50 C1023.23,899.50 1023.00,900.06 1023.00,902.00 C1016.37,964.99 969.31,1010.37 912.23,1022.01 L909.25,1022.56 L905.00,1023.05 C903.06,1023.01 902.50,1023.23 902.50,1024.00 L120.00,1024.00 C120.00,1023.22 119.33,1023.00 117.00,1023.00 C55.06,1013.69 10.57,968.70 1.00,907.00 C1.00,905.06 0.78,904.50 -0.00,904.50 L-0.00,125.50 C0.78,125.50 0.99,124.71 0.97,122.00 C1.29,117.35 2.50,112.80 3.10,108.53 C3.80,108.07 3.99,107.49 3.94,105.95 C16.97,54.84 54.66,16.56 105.93,4.10 L109.25,3.09 C112.99,2.51 118.37,1.08 123.50,1.00 Z" fill="#0070FE" fill-rule="nonzero"/><path d="M677.92,149.75 C737.36,200.93 798.00,252.51 857.32,302.93 C866.95,312.20 867.10,325.76 857.83,335.57 L674.57,490.35 C660.76,498.33 645.63,489.81 643.50,476.32 L643.50,384.50 L541.25,384.50 C418.33,391.32 319.04,495.04 313.50,618.02 L313.49,828.25 C308.61,873.58 271.22,891.73 218.75,880.37 C199.25,873.27 184.58,857.91 179.91,834.75 C178.05,762.97 179.17,681.87 179.38,609.25 C191.23,422.97 331.98,278.38 507.75,258.54 C549.12,253.98 598.61,256.85 643.48,255.92 L643.75,158.75 C648.05,144.00 666.51,138.97 677.92,149.75 Z" fill="#FEFEFE" fill-rule="nonzero"/><path d="M1021.90,112.01 C1021.20,111.57 1021.02,110.88 1021.08,108.96 C1021.79,109.42 1021.98,110.11 1021.90,112.01 Z" fill="#FEFEFE" fill-rule="nonzero"/><path d="M109.25,3.09 L105.93,4.10 C106.42,3.25 107.16,3.02 109.25,3.09 Z" fill="#FEFEFE" fill-rule="nonzero"/><path d="M912.23,1022.01 C912.09,1022.85 909.79,1023.60 909.25,1022.56 L912.23,1022.01 Z" fill="#FEFEFE" fill-rule="nonzero"/><path d="M3.94,105.95 C3.99,107.49 3.80,108.07 3.10,108.53 C3.02,107.00 3.21,106.42 3.94,105.95 Z" fill="#FEFEFE" fill-rule="nonzero"/><path d="M123.50,1.00 L123.50,-0.00 L127.50,-0.00 C127.50,0.79 126.67,1.00 123.50,1.00 Z" fill="#FEFEFE" fill-rule="nonzero"/><path d="M898.00,-0.00 L902.00,-0.00 L902.00,1.00 C898.83,1.00 898.00,0.79 898.00,-0.00 Z" fill="#FEFEFE" fill-rule="nonzero"/><path d="M0.97,122.00 C0.99,124.71 0.78,125.50 -0.00,125.50 L-0.00,122.00 L0.97,122.00 Z" fill="#FEFEFE" fill-rule="nonzero"/><path d="M120.00,1024.00 L117.00,1024.00 L117.00,1023.00 C119.33,1023.00 120.00,1023.22 120.00,1024.00 Z" fill="#FEFEFE" fill-rule="nonzero"/><path d="M1024.00,122.50 L1024.00,125.00 C1023.23,125.00 1023.00,124.44 1023.01,122.50 L1024.00,122.50 Z" fill="#FEFEFE" fill-rule="nonzero"/><path d="M1023.00,902.00 C1023.00,900.06 1023.23,899.50 1024.00,899.50 L1024.00,902.00 L1023.00,902.00 Z" fill="#FEFEFE" fill-rule="nonzero"/><path d="M-0.00,907.00 L-0.00,904.50 C0.78,904.50 1.00,905.06 1.00,907.00 L-0.00,907.00 Z" fill="#FEFEFE" fill-rule="nonzero"/><path d="M905.00,1023.05 L905.00,1024.00 L902.50,1024.00 C902.50,1023.23 903.06,1023.01 905.00,1023.05 Z" fill="#FEFEFE" fill-rule="nonzero"/></svg>
