<svg version="1.1" xmlns="http://www.w3.org/2000/svg" viewBox="0 0 1024 1024" width="1024" height="1024"><path d="M122.50,1.00 C126.08,1.00 127.00,0.80 127.00,-0.00 L897.50,-0.00 C897.50,0.79 898.26,1.00 901.06,1.00 C963.06,8.25 1008.78,53.42 1021.23,110.75 L1021.58,111.75 L1021.87,114.25 L1022.93,122.01 C1022.98,124.71 1023.23,125.50 1024.00,125.50 L1024.00,905.00 C1022.19,904.60 1023.30,905.92 1023.00,907.00 C1014.50,966.83 970.60,1010.42 914.00,1022.02 C912.45,1022.00 912.00,1022.23 912.00,1023.00 L907.00,1023.00 C905.06,1023.00 904.50,1023.23 904.50,1024.00 L119.00,1024.00 C53.95,1010.96 9.52,967.97 0.95,902.00 C0.99,899.68 0.78,899.00 -0.00,899.00 L-0.00,126.00 C0.78,126.00 0.98,125.21 0.93,122.49 L1.50,118.25 L2.04,114.77 L2.01,112.75 C2.73,112.17 3.28,110.44 2.94,108.95 C15.49,53.16 60.79,7.93 122.50,1.00 Z" fill="#0070FE" fill-rule="nonzero"/><path d="M380.25,158.75 L380.52,255.91 C425.36,256.94 474.92,253.86 516.25,258.53 C690.69,278.25 834.20,423.90 844.63,608.25 C844.87,681.09 845.95,762.72 844.08,834.75 C834.93,871.02 812.36,886.55 763.75,883.08 C735.10,881.03 712.80,857.61 710.51,828.25 L710.49,617.75 C702.17,492.67 610.66,397.45 489.75,384.83 C455.62,384.08 416.27,384.75 380.50,384.45 L380.50,476.32 C378.16,490.29 362.86,498.36 349.01,489.99 L166.05,335.48 C157.76,327.67 157.28,313.94 164.35,305.20 L348.25,147.90 C360.52,139.29 376.44,145.55 380.25,158.75 Z" fill="#FEFEFE" fill-rule="nonzero"/><path d="M2.94,108.95 C3.28,110.44 2.73,112.17 2.01,112.75 C2.00,110.28 2.21,109.42 2.94,108.95 Z" fill="#FEFEFE" fill-rule="nonzero"/><path d="M2.04,114.77 L1.50,118.25 C0.42,117.66 1.00,114.89 2.04,114.77 Z" fill="#FEFEFE" fill-rule="nonzero"/><path d="M914.00,1022.02 C914.39,1023.85 913.07,1022.66 912.00,1023.00 C912.00,1022.23 912.45,1022.00 914.00,1022.02 Z" fill="#FEFEFE" fill-rule="nonzero"/><path d="M1021.87,114.25 L1021.58,111.75 L1021.87,114.25 Z" fill="#FEFEFE" fill-rule="nonzero"/><path d="M1021.58,111.75 L1021.23,110.75 L1021.58,111.75 Z" fill="#FEFEFE" fill-rule="nonzero"/><path d="M122.50,1.00 L122.50,-0.00 L127.00,-0.00 C127.00,0.80 126.08,1.00 122.50,1.00 Z" fill="#FEFEFE" fill-rule="nonzero"/><path d="M1024.00,122.00 L1024.00,125.50 C1023.23,125.50 1022.98,124.71 1022.93,122.01 L1024.00,122.00 Z" fill="#FEFEFE" fill-rule="nonzero"/><path d="M0.93,122.49 C0.98,125.21 0.78,126.00 -0.00,126.00 L-0.00,122.50 L0.93,122.49 Z" fill="#FEFEFE" fill-rule="nonzero"/><path d="M897.50,-0.00 L900.44,0.00 L901.06,1.00 C898.26,1.00 897.50,0.79 897.50,-0.00 Z" fill="#FEFEFE" fill-rule="nonzero"/><path d="M-0.00,902.00 L-0.00,899.00 C0.78,899.00 0.99,899.68 0.95,902.00 L-0.00,902.00 Z" fill="#FEFEFE" fill-rule="nonzero"/><path d="M907.00,1023.00 L907.00,1024.00 L904.50,1024.00 C904.50,1023.23 905.06,1023.00 907.00,1023.00 Z" fill="#FEFEFE" fill-rule="nonzero"/><path d="M1023.00,907.00 C1023.30,905.92 1022.19,904.60 1024.00,905.00 L1024.00,907.00 L1023.00,907.00 Z" fill="#FEFEFE" fill-rule="nonzero"/></svg>
