<svg version="1.1" xmlns="http://www.w3.org/2000/svg" viewBox="0 0 1024 1024" width="1024" height="1024"><path d="M528.58,443.55 C527.32,449.78 524.57,455.83 525.50,464.50 C526.24,471.47 550.94,526.09 554.90,535.25 L632.65,713.52 L632.21,713.96 C622.01,707.02 610.83,697.20 598.75,692.97 C561.35,679.88 532.60,719.98 558.25,750.36 L690.20,883.67 L703.25,894.75 C688.09,912.84 667.81,927.80 636.75,930.48 L165.74,930.50 C119.17,927.37 85.31,891.66 78.33,848.25 C76.89,630.14 77.24,402.42 78.32,184.25 C86.15,140.55 114.62,111.42 158.98,104.50 L640.56,104.50 C684.67,110.90 715.35,143.63 718.98,190.75 L718.98,576.88 C693.61,573.21 675.63,589.83 675.85,613.55 L674.87,612.57 L600.85,443.59 C629.04,446.23 632.70,409.10 610.27,402.25 C521.26,401.84 424.21,401.83 335.25,402.25 C314.62,407.50 315.76,439.87 336.75,443.55 L528.58,443.55 Z" fill="#FEFDFD" fill-rule="nonzero"/><path d="M171.75,348.62 C188.06,348.62 249.89,347.20 261.25,349.53 C274.91,352.33 286.09,364.61 287.55,380.62 C288.02,385.78 287.54,466.07 287.19,468.25 C283.12,486.36 272.08,496.19 251.54,497.50 L171.25,497.47 C152.64,495.68 140.79,482.68 139.44,464.25 C138.97,457.70 139.43,378.85 139.78,376.75 C142.16,362.38 155.68,348.63 171.75,348.62 Z" fill="#FE7B00" fill-rule="nonzero"/><path d="M170.50,539.34 L254.25,539.28 C273.05,539.83 285.82,553.44 287.50,570.69 L287.50,656.75 C285.13,673.89 275.15,683.90 259.25,687.50 L168.11,687.50 C152.83,684.66 141.42,673.73 139.66,657.75 L139.66,589.00 L139.69,569.75 C141.70,553.35 152.50,540.96 170.50,539.34 Z" fill="#7749E4" fill-rule="nonzero"/><path d="M168.75,161.08 L258.84,161.00 C272.72,162.59 285.38,174.84 287.71,188.25 C288.60,193.34 288.01,276.00 287.15,280.75 C284.60,294.74 272.10,305.92 257.25,307.48 L169.45,307.50 C153.13,304.87 143.54,294.91 139.75,279.25 C139.23,276.09 139.22,193.17 139.75,189.75 C141.95,175.48 154.04,162.31 168.75,161.08 Z" fill="#14B96F" fill-rule="nonzero"/><path d="M168.75,729.58 L255.75,729.52 C270.74,731.12 283.26,743.41 285.69,757.75 C286.78,764.24 286.22,845.85 285.07,851.25 C282.06,865.36 269.83,876.20 254.67,877.53 C248.56,878.07 170.54,877.61 168.25,877.23 C151.62,874.47 140.67,860.60 139.44,843.25 C138.95,836.28 139.36,760.50 139.80,757.75 C142.02,743.69 154.22,730.79 168.75,729.58 Z" fill="#0468F0" fill-rule="nonzero"/><path d="M336.75,215.06 L610.75,215.25 C629.32,220.50 629.14,247.94 610.77,253.25 C521.27,253.67 423.70,253.67 334.25,253.25 C315.01,247.97 316.05,217.88 336.75,215.06 Z" fill="#14B96F" fill-rule="nonzero"/><path d="M337.25,782.08 L557.25,782.25 C577.34,788.57 577.26,817.45 556.75,823.25 L339.75,823.54 C313.32,821.21 314.66,785.08 337.25,782.08 Z" fill="#0468F0" fill-rule="nonzero"/><path d="M335.75,592.54 L557.77,592.75 C577.53,598.92 576.65,628.18 557.01,633.51 L334.25,633.25 C314.90,627.11 315.93,596.94 335.75,592.54 Z" fill="#7749E4" fill-rule="nonzero"/><path d="M170.50,539.34 L254.25,539.28 L170.50,539.34 Z" fill="#0468F0" fill-rule="nonzero"/><path d="M139.66,589.00 L139.69,569.75 L139.66,589.00 Z" fill="#0468F0" fill-rule="nonzero"/><g><path d="M128.00,1.00 C129.94,1.00 130.50,0.78 130.50,-0.00 L894.50,-0.00 C894.50,0.78 894.96,1.00 896.56,1.00 C911.04,2.05 923.28,6.68 934.75,11.08 C957.77,20.67 977.78,36.80 992.75,55.73 C1007.09,73.96 1019.49,98.24 1023.05,128.46 C1023.01,130.82 1023.23,131.50 1024.00,131.50 L1024.00,893.50 C1022.19,893.10 1023.30,894.42 1023.00,895.50 C1023.31,898.96 1021.68,901.75 1021.84,904.25 L1020.90,907.57 C1018.65,921.96 1013.04,935.69 1007.12,946.63 C991.73,913.93 979.92,877.38 964.86,844.26 C960.31,837.54 948.80,830.07 935.75,834.01 C941.08,818.08 945.72,800.77 946.16,780.00 L946.21,767.25 C944.98,741.11 938.93,719.96 931.91,699.75 C924.66,679.50 886.35,588.35 876.57,576.70 C856.82,553.19 821.28,559.81 812.65,587.70 L811.65,588.03 C796.91,555.97 750.80,560.17 743.05,595.23 L742.25,595.50 C737.79,586.25 729.70,579.87 718.98,576.88 L718.98,190.75 C715.35,143.63 684.67,110.90 640.56,104.50 L158.98,104.50 C114.62,111.42 86.15,140.55 78.32,184.25 C77.24,402.42 76.89,630.14 78.33,848.25 C85.31,891.66 119.17,927.37 165.74,930.50 L636.75,930.48 C667.81,927.80 688.09,912.84 703.25,894.75 C711.46,901.83 721.25,907.33 730.99,912.47 C723.87,917.20 718.16,923.50 716.80,934.25 L716.78,940.30 C717.72,944.52 725.02,963.36 749.21,1024.00 L128.25,1023.96 C107.82,1018.83 87.31,1015.14 72.75,1004.75 C36.84,983.62 6.85,946.17 1.00,895.00 C1.00,893.06 0.78,892.50 -0.00,892.50 L-0.00,131.50 C1.76,132.19 0.81,129.40 0.87,128.98 L2.03,119.05 C2.78,118.58 2.98,117.88 2.90,115.96 C18.81,53.54 59.82,11.45 128.00,1.00 Z" fill="#0468F0" fill-rule="nonzero"/><path d="M800.25,351.06 C804.32,350.78 843.58,350.89 844.75,351.25 C857.96,356.96 857.42,374.97 843.75,379.75 L803.17,380.25 C799.38,382.02 797.02,384.38 795.25,388.17 C794.84,420.93 794.83,461.07 795.25,493.83 C797.31,498.04 800.01,501.21 805.25,501.99 C807.10,502.27 900.61,502.25 902.25,501.99 C924.63,498.51 898.68,451.82 923.25,446.31 C931.03,444.56 939.90,450.63 941.06,457.57 C941.48,460.08 940.92,497.83 940.68,499.25 C937.99,515.03 923.33,528.72 907.25,531.21 C901.64,532.08 800.95,531.49 796.75,530.65 C780.18,525.60 769.76,514.96 765.79,497.25 L765.44,391.75 C766.57,369.12 779.62,354.84 800.25,351.06 Z" fill="#FEFDFD" fill-rule="nonzero"/><path d="M876.75,332.53 L947.89,332.50 C955.62,333.82 959.72,338.38 962.25,345.23 C962.69,347.09 962.69,420.91 962.25,422.77 C957.80,438.84 935.65,439.07 930.75,423.25 L930.25,388.28 L869.00,449.25 C853.83,460.10 834.44,443.22 844.65,425.75 L905.50,364.72 L905.50,364.00 L876.04,364.00 C858.61,359.87 859.63,336.06 876.75,332.53 Z" fill="#FEFDFD" fill-rule="nonzero"/><path d="M2.90,115.96 C2.98,117.88 2.78,118.58 2.03,119.05 C2.01,117.12 2.20,116.42 2.90,115.96 Z" fill="#FEFDFD" fill-rule="nonzero"/><path d="M1021.84,904.25 C1022.24,905.46 1022.14,907.64 1020.90,907.57 L1021.84,904.25 Z" fill="#FEFDFD" fill-rule="nonzero"/><g><path d="M600.85,443.59 L674.87,612.57 L675.85,613.55 C675.63,589.83 693.61,573.21 718.98,576.88 C729.70,579.87 737.79,586.25 742.25,595.50 L743.05,595.23 C750.80,560.17 796.91,555.97 811.65,588.03 L812.65,587.70 C821.28,559.81 856.82,553.19 876.57,576.70 C886.35,588.35 924.66,679.50 931.91,699.75 C938.93,719.96 944.98,741.11 946.21,767.25 L946.16,780.00 C945.72,800.77 941.08,818.08 935.75,834.01 L730.99,912.47 C721.25,907.33 711.46,901.83 703.25,894.75 L690.20,883.67 L558.25,750.36 C532.60,719.98 561.35,679.88 598.75,692.97 C610.83,697.20 622.01,707.02 632.21,713.96 L632.65,713.52 L554.90,535.25 C550.94,526.09 526.24,471.47 525.50,464.50 C524.57,455.83 527.32,449.78 528.58,443.55 C543.59,412.72 585.95,413.25 600.85,443.59 Z" fill="#FDB273" fill-rule="nonzero"/><g><path d="M935.75,834.01 C948.80,830.07 960.31,837.54 964.86,844.26 C979.92,877.38 991.73,913.93 1007.12,946.63 C985.11,985.51 951.00,1015.36 897.54,1023.05 C895.57,1023.01 895.00,1023.23 895.00,1024.00 L749.21,1024.00 C725.02,963.36 717.72,944.52 716.78,940.30 L716.80,934.25 C718.16,923.50 723.87,917.20 730.99,912.47 L935.75,834.01 Z" fill="#FCB900" fill-rule="nonzero"/><path d="M897.54,1023.05 L896.94,1024.00 L895.00,1024.00 C895.00,1023.23 895.57,1023.01 897.54,1023.05 Z" fill="#FDB273" fill-rule="nonzero"/></g><path d="M600.85,443.59 C585.95,413.25 543.59,412.72 528.58,443.55 L336.75,443.55 C315.76,439.87 314.62,407.50 335.25,402.25 C424.21,401.83 521.26,401.84 610.27,402.25 C632.70,409.10 629.04,446.23 600.85,443.59 Z" fill="#FE7B00" fill-rule="nonzero"/></g><path d="M1024.00,129.06 L1024.00,131.50 C1023.23,131.50 1023.01,130.82 1023.05,128.46 L1024.00,129.06 Z" fill="#FEFDFD" fill-rule="nonzero"/><path d="M128.00,1.00 L128.00,-0.00 L130.50,-0.00 C130.50,0.78 129.94,1.00 128.00,1.00 Z" fill="#FEFDFD" fill-rule="nonzero"/><path d="M0.87,128.98 C0.81,129.40 1.76,132.19 -0.00,131.50 L-0.00,129.00 L0.87,128.98 Z" fill="#FEFDFD" fill-rule="nonzero"/><path d="M-0.00,895.00 L-0.00,892.50 C0.78,892.50 1.00,893.06 1.00,895.00 L-0.00,895.00 Z" fill="#FEFDFD" fill-rule="nonzero"/><path d="M1023.00,895.50 C1023.30,894.42 1022.19,893.10 1024.00,893.50 L1024.00,895.50 L1023.00,895.50 Z" fill="#FEFDFD" fill-rule="nonzero"/><path d="M894.50,-0.00 L895.94,0.00 L896.56,1.00 C894.96,1.00 894.50,0.78 894.50,-0.00 Z" fill="#FEFDFD" fill-rule="nonzero"/></g><path d="M946.16,780.00 L946.21,767.25 L946.16,780.00 Z" fill="#FEFDFD" fill-rule="nonzero"/><path d="M716.80,934.25 L716.78,940.30 L716.80,934.25 Z" fill="#FEFDFD" fill-rule="nonzero"/></svg>
