<svg version="1.1" xmlns="http://www.w3.org/2000/svg" viewBox="0 0 1024 1024" width="1024" height="1024"><path d="M177.50,1.00 C179.83,1.00 180.50,0.78 180.50,-0.00 L841.44,0.00 C841.92,0.78 842.83,1.00 845.50,1.00 L853.04,0.90 C853.01,1.78 853.46,1.98 855.25,1.92 C938.30,14.06 1001.13,75.76 1019.00,154.00 C1019.00,155.50 1019.21,156.08 1019.95,156.54 C1019.92,159.08 1021.65,160.79 1021.03,163.96 C1021.01,165.88 1021.22,166.58 1022.00,167.06 L1022.00,169.94 C1022.00,171.92 1022.23,172.50 1023.00,172.50 L1023.00,178.00 C1023.00,181.49 1023.23,182.50 1024.00,182.50 L1024.00,843.00 C1023.23,843.00 1023.00,843.56 1023.00,845.50 C1023.00,851.56 1022.81,853.00 1022.51,853.00 C1022.23,853.00 1022.01,853.73 1022.01,856.25 C1021.43,856.70 1020.26,859.09 1021.46,859.75 C1020.50,865.47 1018.74,873.87 1016.92,879.42 C1016.21,879.92 1016.00,880.50 1016.00,882.00 C1009.54,906.35 997.74,927.26 985.09,944.25 C963.12,973.33 934.80,997.03 898.00,1010.94 L895.75,1011.93 C884.31,1016.32 869.85,1020.48 855.02,1022.14 C854.67,1022.05 852.33,1021.41 853.00,1023.00 L846.00,1023.00 C843.67,1023.00 843.00,1023.23 843.00,1024.00 L181.50,1024.00 C181.50,1023.23 180.82,1023.01 178.50,1023.06 C138.62,1020.10 109.34,1005.82 83.77,988.25 C54.90,967.63 29.81,938.31 14.86,902.25 C8.56,885.76 1.62,866.45 1.00,843.00 C1.00,840.67 0.78,840.00 -0.00,840.00 L-0.00,184.50 C0.79,184.50 0.99,183.55 0.94,180.00 C1.70,162.00 6.27,145.41 10.92,132.25 C31.90,72.02 83.25,22.29 147.25,6.08 C156.84,3.95 165.87,1.14 177.50,1.00 Z" fill="#1E77FC" fill-rule="nonzero"/><path d="M620.75,194.04 C729.58,251.05 771.34,401.08 678.13,507.78 C643.00,548.00 589.81,577.40 578.56,639.75 C574.94,659.83 579.76,673.64 556.43,675.50 C547.87,676.18 469.46,675.53 466.10,674.67 C450.88,669.30 453.06,654.68 454.57,636.25 C459.83,571.98 487.10,529.93 522.75,494.88 C548.64,469.42 597.82,433.65 605.41,392.25 C615.69,322.65 559.02,277.29 489.75,287.96 C444.29,294.96 420.61,323.32 410.54,364.75 C407.63,376.73 409.37,385.67 396.25,388.25 C394.04,388.68 301.88,388.72 299.25,388.25 C283.55,385.44 286.51,370.50 288.58,355.25 C298.39,282.89 344.06,223.62 398.17,194.38 C463.49,159.07 554.21,159.17 620.75,194.04 Z" fill="#FEFEFE" fill-rule="nonzero"/><path d="M570.47,746.37 C595.57,789.20 568.99,837.01 530.98,847.48 C474.03,863.19 426.44,806.51 450.04,753.29 C471.73,704.40 542.63,698.86 570.47,746.37 Z" fill="#FEFEFE" fill-rule="nonzero"/><path d="M1022.00,167.06 C1021.22,166.58 1021.01,165.88 1021.03,163.96 C1021.78,164.42 1022.00,165.12 1022.00,167.06 Z" fill="#FEFEFE" fill-rule="nonzero"/><path d="M1022.01,856.25 L1021.46,859.75 C1020.26,859.09 1021.43,856.70 1022.01,856.25 Z" fill="#FEFEFE" fill-rule="nonzero"/><path d="M1019.95,156.54 C1019.21,156.08 1019.00,155.50 1019.00,154.00 C1019.77,154.00 1019.99,154.57 1019.95,156.54 Z" fill="#FEFEFE" fill-rule="nonzero"/><path d="M1023.00,172.50 C1022.23,172.50 1022.00,171.92 1022.00,169.94 C1022.77,170.42 1023.00,171.00 1023.00,172.50 Z" fill="#FEFEFE" fill-rule="nonzero"/><path d="M1016.92,879.42 C1016.98,881.42 1016.77,882.00 1016.00,882.00 C1016.00,880.50 1016.21,879.92 1016.92,879.42 Z" fill="#FEFEFE" fill-rule="nonzero"/><path d="M855.02,1022.14 C855.00,1022.81 854.55,1023.00 853.00,1023.00 C852.33,1021.41 854.67,1022.05 855.02,1022.14 Z" fill="#FEFEFE" fill-rule="nonzero"/><path d="M855.25,1.92 C853.46,1.98 853.01,1.78 853.04,0.90 L855.25,1.92 Z" fill="#FEFEFE" fill-rule="nonzero"/><path d="M898.00,1010.94 C898.00,1011.76 897.49,1011.98 895.75,1011.93 L898.00,1010.94 Z" fill="#FEFEFE" fill-rule="nonzero"/><path d="M1024.00,178.00 L1024.00,182.50 C1023.23,182.50 1023.00,181.49 1023.00,178.00 L1024.00,178.00 Z" fill="#FEFEFE" fill-rule="nonzero"/><path d="M0.94,180.00 C0.99,183.55 0.79,184.50 -0.00,184.50 L-0.00,180.00 L0.94,180.00 Z" fill="#FEFEFE" fill-rule="nonzero"/><path d="M841.44,0.00 L845.50,-0.00 L845.50,1.00 C842.83,1.00 841.92,0.78 841.44,0.00 Z" fill="#FEFEFE" fill-rule="nonzero"/><path d="M177.50,1.00 L177.50,-0.00 L180.50,-0.00 C180.50,0.78 179.83,1.00 177.50,1.00 Z" fill="#FEFEFE" fill-rule="nonzero"/><path d="M-0.00,843.00 L-0.00,840.00 C0.78,840.00 1.00,840.67 1.00,843.00 L-0.00,843.00 Z" fill="#FEFEFE" fill-rule="nonzero"/><path d="M181.50,1024.00 L178.50,1024.00 L178.50,1023.06 C180.82,1023.01 181.50,1023.23 181.50,1024.00 Z" fill="#FEFEFE" fill-rule="nonzero"/><path d="M846.00,1023.00 L846.00,1024.00 L843.00,1024.00 C843.00,1023.23 843.67,1023.00 846.00,1023.00 Z" fill="#FEFEFE" fill-rule="nonzero"/><path d="M1023.00,845.50 C1023.00,843.56 1023.23,843.00 1024.00,843.00 L1024.00,845.50 L1023.00,845.50 Z" fill="#FEFEFE" fill-rule="nonzero"/></svg>
