<svg version="1.1" xmlns="http://www.w3.org/2000/svg" viewBox="0 0 1024 1024" width="1024" height="1024"><path d="M147.44,1.00 C150.24,1.00 151.00,0.79 151.00,-0.00 L872.94,0.00 C873.42,0.78 874.22,0.99 876.50,0.96 C884.79,0.80 891.56,2.92 898.44,4.01 C898.92,4.78 899.51,5.00 901.06,5.00 C961.25,20.49 1000.75,60.62 1017.97,118.91 L1018.87,122.25 C1020.13,124.23 1020.86,129.04 1021.00,133.00 L1021.66,133.66 L1021.90,137.75 L1023.07,147.49 C1023.02,149.82 1023.23,150.50 1024.00,150.50 L1024.00,154.00 C1023.23,154.00 1023.00,154.79 1023.00,155.75 C1023.00,156.71 1023.23,157.50 1024.00,157.50 L1024.00,873.50 C1023.22,873.50 1023.00,874.26 1023.01,877.00 C1022.98,884.34 1021.56,891.73 1019.85,897.75 L1018.90,901.07 C1003.14,960.73 963.85,1000.98 905.01,1018.06 C903.50,1018.01 902.92,1018.23 902.44,1019.00 L900.98,1018.92 L897.25,1019.92 L897.06,1020.00 C895.36,1019.85 893.38,1020.08 892.75,1020.99 L892.06,1021.00 C890.36,1020.85 888.38,1021.08 887.75,1021.99 L886.00,1021.97 L882.75,1022.53 L877.54,1023.04 C875.82,1023.24 871.67,1022.24 871.44,1024.00 L151.56,1024.00 C151.08,1023.23 150.17,1023.00 147.50,1023.00 C128.20,1022.14 111.89,1016.44 98.25,1011.07 C74.05,1000.92 53.42,984.72 38.15,966.67 C22.50,947.90 9.66,925.46 4.00,897.06 C4.19,895.49 3.78,893.86 3.01,893.25 L3.09,891.58 L2.16,887.75 C1.25,884.90 0.66,879.90 1.00,875.00 C1.00,872.67 0.78,872.00 -0.00,872.00 L-0.00,156.00 C0.80,156.00 0.99,154.44 0.96,148.00 C0.63,143.85 1.41,139.16 2.07,136.75 C2.71,135.87 3.19,133.78 3.00,131.94 C4.09,121.27 7.83,111.58 10.93,102.88 C31.20,50.59 80.03,6.53 147.44,1.00 Z" fill="#1977FC" fill-rule="nonzero"/><g><path d="M416.50,316.17 L751.75,316.17 C777.80,318.22 794.97,334.86 799.50,359.61 L799.47,655.75 C795.38,679.39 777.95,698.04 752.28,700.00 L571.50,700.00 C571.46,705.15 576.69,755.00 576.69,755.00 L616.53,755.00 C618.29,755.31 622.14,758.08 622.75,759.56 C622.75,767.89 625.30,777.37 617.63,780.00 L405.25,779.95 C402.51,779.31 400.63,777.02 399.25,775.07 C398.88,766.47 397.38,756.52 405.25,755.16 L445.56,755.24 L445.83,753.75 C447.21,735.64 449.81,718.54 450.50,700.02 L265.25,699.75 C240.95,693.95 225.69,678.24 222.49,652.14 L222.75,359.75 C228.02,334.91 243.35,319.23 269.75,316.17 L416.50,316.17 Z" fill="#FEFEFE" fill-rule="nonzero"/><g><path d="M755.25,662.75 L267.25,662.72 C262.96,661.81 260.66,658.98 260.01,654.75 L260.00,365.23 C260.81,361.78 263.24,359.75 266.01,358.25 C427.41,357.82 595.26,357.87 756.32,358.25 C758.82,359.58 761.50,361.70 762.00,364.40 L762.00,656.85 C760.73,659.53 758.03,662.08 755.25,662.75 Z" fill="#1977FC" fill-rule="nonzero"/><path d="M640.50,422.36 L645.00,422.36 C651.43,423.36 661.02,421.31 661.00,428.38 C661.00,428.47 651.28,463.99 650.55,466.75 C645.77,483.54 641.63,503.36 636.15,518.25 C618.00,540.75 600.27,563.94 581.90,586.00 L578.89,586.00 C563.24,571.92 551.09,552.86 547.85,525.75 L547.59,521.75 C544.77,466.36 587.63,423.06 640.50,422.36 Z" fill="#FDC401" fill-rule="nonzero"/><path d="M476.25,419.54 L509.62,419.50 L513.50,423.38 L513.50,602.25 C512.63,604.21 510.73,606.56 508.55,607.00 C508.54,607.00 476.46,607.00 476.45,607.00 C474.62,606.63 472.37,604.38 472.00,602.55 L472.00,423.95 C472.35,422.21 474.48,419.98 476.25,419.54 Z" fill="#FEFEFE" fill-rule="nonzero"/><path d="M674.56,428.00 L676.76,428.00 C725.29,446.47 757.20,507.36 723.92,565.06 L722.25,564.75 L650.25,517.11 C656.93,488.06 666.37,457.04 674.56,428.00 Z" fill="#42D16E" fill-rule="nonzero"/><path d="M643.56,528.50 L645.62,528.50 L715.50,574.11 L715.49,575.75 C689.22,609.17 633.40,623.38 590.80,594.64 L643.56,528.50 Z" fill="#73C3FC" fill-rule="nonzero"/><path d="M415.58,467.50 L449.42,467.50 C451.64,468.80 453.00,470.71 453.49,473.75 L453.48,601.25 C452.61,603.71 451.29,606.47 448.48,607.04 C446.62,607.41 415.02,606.75 415.02,606.75 L412.25,603.98 L411.74,473.25 C411.43,471.44 413.70,468.47 415.58,467.50 Z" fill="#FEFEFE" fill-rule="nonzero"/><path d="M354.90,511.50 L389.35,511.50 C390.86,512.68 392.58,514.29 393.00,516.57 C393.01,516.64 393.09,601.01 393.00,601.53 C392.68,603.33 390.49,606.55 388.87,607.00 C388.87,607.00 356.82,607.18 355.95,607.00 C354.63,606.73 351.88,604.65 351.50,603.28 C351.50,603.28 351.32,515.55 351.50,514.90 L354.90,511.50 Z" fill="#FEFEFE" fill-rule="nonzero"/><path d="M295.25,554.99 C296.54,554.69 328.68,555.13 328.98,555.25 L332.25,558.52 C332.64,559.46 332.64,602.54 332.25,603.48 L328.98,606.75 C319.25,607.16 303.81,607.15 293.92,606.75 C291.33,604.55 290.79,602.93 290.44,599.25 C290.13,596.01 290.68,559.27 290.75,559.07 C291.26,557.58 293.67,555.36 295.25,554.99 Z" fill="#FEFEFE" fill-rule="nonzero"/></g></g><path d="M640.50,422.36 L645.00,422.36 L640.50,422.36 Z" fill="#73C3FC" fill-rule="nonzero"/><path d="M547.85,525.75 L547.59,521.75 L547.85,525.75 Z" fill="#FEFEFE" fill-rule="nonzero"/><path d="M755.25,662.75 L267.25,662.72 L755.25,662.75 Z" fill="#73C3FC" fill-rule="nonzero"/><g><path d="M886.90,636.87 L888.25,637.71 C845.84,782.63 740.90,892.82 586.54,926.01 C433.58,956.01 305.89,888.26 234.50,813.50 C233.17,813.37 214.43,829.91 211.75,831.72 C207.06,835.08 200.50,844.24 194.75,833.75 L185.41,707.75 C185.74,703.73 188.98,700.48 194.68,701.00 L313.12,739.13 C315.27,740.74 316.48,745.28 314.27,748.66 L283.50,773.89 L283.50,775.90 C322.95,814.65 370.01,846.43 430.68,864.06 C596.48,908.17 731.13,815.81 794.10,719.13 C834.67,701.96 865.78,673.49 886.90,636.87 Z" fill="#FEFEFE" fill-rule="nonzero"/><path d="M886.90,636.87 C887.86,633.78 889.23,635.42 888.25,637.71 L886.90,636.87 Z" fill="#73C3FC" fill-rule="nonzero"/></g><path d="M786.62,209.50 C786.62,209.50 787.94,209.51 788.00,209.50 C788.41,209.43 817.69,184.34 819.08,184.00 C823.12,183.01 826.72,185.50 827.68,188.25 L837.64,313.37 C836.32,317.11 834.25,319.94 828.88,319.50 L711.21,283.52 C709.40,282.37 707.12,278.66 707.90,275.75 C708.59,273.19 738.64,250.21 739.00,248.95 L739.00,248.08 C699.19,208.62 649.43,176.23 585.75,161.52 C421.18,126.33 290.25,211.31 228.54,306.36 C187.77,323.10 156.08,349.60 134.47,385.50 L133.50,385.50 C168.55,245.11 288.15,131.75 433.25,103.06 C586.92,72.68 713.04,133.70 786.62,209.50 Z" fill="#FEFEFE" fill-rule="nonzero"/><path d="M751.75,316.17 L416.50,316.17 L751.75,316.17 Z" fill="#73C3FC" fill-rule="nonzero"/><path d="M445.56,755.24 L405.25,755.16 L445.56,755.24 Z" fill="#73C3FC" fill-rule="nonzero"/><path d="M3.00,131.94 C3.19,133.78 2.71,135.87 2.07,136.75 C2.08,135.24 1.46,132.02 3.00,131.94 Z" fill="#73C3FC" fill-rule="nonzero"/><path d="M897.06,1020.00 C896.58,1020.77 895.61,1021.00 892.75,1020.99 C893.38,1020.08 895.36,1019.85 897.06,1020.00 Z" fill="#73C3FC" fill-rule="nonzero"/><path d="M892.06,1021.00 C891.58,1021.77 890.61,1022.00 887.75,1021.99 C888.38,1021.08 890.36,1020.85 892.06,1021.00 Z" fill="#73C3FC" fill-rule="nonzero"/><path d="M4.00,897.06 C3.23,896.58 3.00,895.72 3.01,893.25 C3.78,893.86 4.19,895.49 4.00,897.06 Z" fill="#73C3FC" fill-rule="nonzero"/><path d="M900.98,1018.92 C901.00,1019.76 900.17,1019.98 897.25,1019.92 L900.98,1018.92 Z" fill="#73C3FC" fill-rule="nonzero"/><path d="M886.00,1021.97 C886.64,1024.13 883.06,1022.52 882.75,1022.53 L886.00,1021.97 Z" fill="#73C3FC" fill-rule="nonzero"/><path d="M3.09,891.58 C1.72,891.62 1.84,889.04 2.16,887.75 L3.09,891.58 Z" fill="#73C3FC" fill-rule="nonzero"/><path d="M1018.87,122.25 L1017.97,118.91 C1019.12,118.90 1019.21,121.02 1018.87,122.25 Z" fill="#73C3FC" fill-rule="nonzero"/><path d="M1021.90,137.75 L1021.66,133.66 L1021.90,137.75 Z" fill="#73C3FC" fill-rule="nonzero"/><path d="M1019.85,897.75 C1020.23,898.97 1020.14,901.14 1018.90,901.07 L1019.85,897.75 Z" fill="#73C3FC" fill-rule="nonzero"/><path d="M905.01,1018.06 C905.00,1018.79 904.42,1019.00 902.44,1019.00 C902.92,1018.23 903.50,1018.01 905.01,1018.06 Z" fill="#73C3FC" fill-rule="nonzero"/><path d="M901.06,5.00 C899.51,5.00 898.92,4.78 898.44,4.01 C899.99,4.00 900.58,4.22 901.06,5.00 Z" fill="#73C3FC" fill-rule="nonzero"/><path d="M445.83,753.75 L445.56,755.24 L445.83,753.75 Z" fill="#73C3FC" fill-rule="nonzero"/><path d="M1021.66,133.66 L1021.00,133.00 L1021.66,133.66 Z" fill="#73C3FC" fill-rule="nonzero"/><path d="M0.96,148.00 C0.99,154.44 0.80,156.00 -0.00,156.00 L-0.00,148.00 L0.96,148.00 Z" fill="#73C3FC" fill-rule="nonzero"/><path d="M877.54,1023.04 L876.94,1024.00 L871.44,1024.00 C871.67,1022.24 875.82,1023.24 877.54,1023.04 Z" fill="#73C3FC" fill-rule="nonzero"/><path d="M151.56,1024.00 L147.50,1024.00 L147.50,1023.00 C150.17,1023.00 151.08,1023.23 151.56,1024.00 Z" fill="#73C3FC" fill-rule="nonzero"/><path d="M1024.00,154.00 L1024.00,157.50 C1023.23,157.50 1023.00,156.71 1023.00,155.75 C1023.00,154.79 1023.23,154.00 1024.00,154.00 Z" fill="#73C3FC" fill-rule="nonzero"/><path d="M1023.01,877.00 C1023.00,874.26 1023.22,873.50 1024.00,873.50 L1024.00,877.00 L1023.01,877.00 Z" fill="#73C3FC" fill-rule="nonzero"/><path d="M147.44,1.00 L148.06,-0.00 L151.00,-0.00 C151.00,0.79 150.24,1.00 147.44,1.00 Z" fill="#73C3FC" fill-rule="nonzero"/><path d="M872.94,0.00 L876.50,-0.00 L876.50,0.96 C874.22,0.99 873.42,0.78 872.94,0.00 Z" fill="#73C3FC" fill-rule="nonzero"/><path d="M1024.00,147.50 L1024.00,150.50 C1023.23,150.50 1023.02,149.82 1023.07,147.49 L1024.00,147.50 Z" fill="#73C3FC" fill-rule="nonzero"/><path d="M-0.00,875.00 L-0.00,872.00 C0.78,872.00 1.00,872.67 1.00,875.00 L-0.00,875.00 Z" fill="#73C3FC" fill-rule="nonzero"/></svg>
