<svg version="1.1" xmlns="http://www.w3.org/2000/svg" viewBox="0 0 1024 1024" width="1024" height="1024"><path d="M595.49,1.91 C595.93,1.48 598.43,1.78 598.00,-0.00 L883.00,-0.00 C938.00,8.91 976.51,36.02 1000.69,75.75 C1011.89,93.16 1020.12,117.12 1024.00,143.06 L1024.00,879.50 C1023.23,879.50 1023.00,879.96 1023.00,881.56 C1021.02,909.01 1010.82,931.36 1000.10,949.25 C976.79,986.18 939.63,1013.87 890.75,1022.42 C890.60,1022.09 887.86,1021.19 888.50,1023.03 C884.24,1023.01 883.00,1023.23 883.00,1024.00 L395.75,1023.94 C393.08,1019.97 390.51,1021.63 392.89,1012.75 L478.09,566.75 C478.68,566.09 478.39,564.48 478.39,564.48 L539.46,564.50 L539.75,616.75 C542.46,623.88 549.88,627.69 557.39,623.10 L649.25,528.49 C653.95,522.89 656.59,517.57 651.96,508.83 C621.50,476.97 588.78,444.47 557.59,412.99 C549.00,407.86 541.19,412.83 539.50,421.04 L539.50,470.72 C527.30,471.20 509.72,471.14 497.25,470.75 L561.01,135.75 L586.68,12.25 C587.93,8.76 591.25,3.56 595.49,1.91 Z" fill="#05B28B" fill-rule="nonzero"/><g><path d="M823.89,651.75 L824.10,708.25 C827.30,714.93 831.21,719.05 838.25,721.89 L895.62,721.99 L895.59,878.75 C892.38,885.15 888.65,889.36 881.75,891.75 C822.81,892.16 755.69,892.17 696.75,891.75 C688.93,889.32 684.30,884.37 682.53,876.25 L682.50,666.70 C684.56,659.18 688.91,654.33 696.23,651.76 C736.19,651.32 783.66,651.34 823.89,651.75 Z" fill="#FEFEFD" fill-rule="nonzero"/><path d="M825.25,834.22 L746.50,834.16 C742.16,834.21 738.92,831.73 739.50,826.89 L780.04,742.75 C782.38,739.69 787.25,739.41 790.09,743.03 L831.50,826.36 C832.24,831.67 829.54,833.61 825.25,834.22 Z" fill="#FD7C00" fill-rule="nonzero"/><path d="M895.62,721.99 L838.25,721.89 C831.21,719.05 827.30,714.93 824.10,708.25 L823.89,651.75 C827.36,652.73 831.94,654.55 833.30,656.25 L893.87,717.74 C894.06,718.48 895.61,720.49 895.62,721.99 Z" fill="#A4E3D8" fill-rule="nonzero"/></g><path d="M825.25,834.22 L746.50,834.16 L825.25,834.22 Z" fill="#FCBBB6" fill-rule="nonzero"/><g><path d="M868.48,380.75 L868.48,434.81 C870.22,442.86 875.30,447.26 881.98,450.42 L939.51,450.52 L940.00,451.00 L940.00,603.79 C938.88,612.81 932.25,619.04 923.67,620.01 L741.25,619.75 C733.75,617.44 728.75,611.65 727.48,604.25 L727.75,393.75 C730.35,386.95 736.02,381.27 743.25,380.72 C784.39,380.38 828.54,380.31 868.48,380.75 Z" fill="#FEFEFD" fill-rule="nonzero"/><path d="M862.72,550.75 C820.86,586.66 764.03,535.36 797.54,489.99 C840.17,443.99 905.44,504.72 862.72,550.75 Z" fill="#63BA27" fill-rule="nonzero"/><path d="M939.51,450.52 L881.98,450.42 C875.30,447.26 870.22,442.86 868.48,434.81 L868.48,380.75 L874.77,382.50 L937.57,445.25 C937.79,446.00 939.78,448.26 939.51,450.52 Z" fill="#A4E3D8" fill-rule="nonzero"/></g><g><path d="M794.00,112.50 L794.42,112.81 L794.42,167.25 C796.57,174.78 801.23,178.92 808.23,181.91 L865.57,182.01 L865.54,337.25 C862.42,344.07 858.33,348.60 851.05,350.51 L666.75,350.25 C660.27,347.63 655.68,343.33 654.03,336.25 L654.25,125.25 C656.68,118.69 661.21,114.63 667.75,112.50 L794.00,112.50 Z" fill="#FEFEFD" fill-rule="nonzero"/><path d="M722.75,209.04 C723.22,208.94 791.72,208.70 793.43,209.00 C797.51,209.72 799.90,213.49 800.50,217.68 C800.81,219.85 800.66,284.81 800.48,285.75 C799.85,288.90 796.71,292.42 793.43,293.00 C793.06,293.07 723.44,293.07 723.07,293.00 C719.41,292.36 716.62,289.02 716.01,285.25 C715.80,284.00 715.75,218.11 716.00,216.65 C716.59,213.15 719.44,209.75 722.75,209.04 Z" fill="#046ED8" fill-rule="nonzero"/><path d="M865.57,182.01 L808.23,181.91 C801.23,178.92 796.57,174.78 794.42,167.25 L794.42,112.81 L800.70,114.80 L832.32,146.28 C857.75,171.60 864.11,178.18 865.57,182.01 Z" fill="#A4E3D8" fill-rule="nonzero"/></g><path d="M890.75,1022.42 L888.50,1023.03 C887.86,1021.19 890.60,1022.09 890.75,1022.42 Z" fill="#A4E3D8" fill-rule="nonzero"/><path d="M794.42,112.81 L794.00,112.50 L794.42,112.81 Z" fill="#A4E3D8" fill-rule="nonzero"/><path d="M940.00,451.00 L939.51,450.52 L940.00,451.00 Z" fill="#A4E3D8" fill-rule="nonzero"/><g><path d="M141.50,1.00 C143.44,1.00 144.00,0.78 144.00,-0.00 L595.50,-0.00 L595.49,1.91 C591.25,3.56 587.93,8.76 586.68,12.25 L561.01,135.75 L497.25,470.75 C478.02,471.23 450.22,471.01 431.25,470.87 C426.74,473.87 422.43,476.85 421.50,482.68 C421.31,483.88 421.34,551.93 421.50,552.83 C423.20,559.12 427.38,562.84 433.72,564.50 L478.09,564.50 L478.09,566.75 L392.89,1012.75 C390.51,1021.63 393.08,1019.97 395.75,1023.94 L144.00,1024.00 C144.00,1023.22 143.33,1023.00 141.00,1023.00 C135.90,1023.00 134.91,1022.87 132.75,1021.92 C132.24,1021.82 129.43,1020.33 129.25,1021.68 C104.79,1016.66 83.02,1006.84 65.75,993.91 C40.28,975.84 19.05,948.22 8.18,915.75 C5.96,909.07 3.95,901.46 2.29,894.57 C3.44,894.05 2.47,891.55 2.05,890.75 C0.40,889.19 1.97,881.68 0.00,879.80 L-0.00,146.00 C0.78,146.00 0.98,145.32 0.91,142.99 L2.00,133.25 C2.46,132.66 3.71,129.92 2.53,129.25 C6.87,105.74 17.48,83.39 28.78,67.25 C50.70,36.60 84.02,11.43 128.00,2.99 L132.75,2.11 L134.25,1.52 C135.30,2.74 138.85,1.49 139.75,1.04 L141.50,1.00 Z" fill="#046ED8" fill-rule="nonzero"/><g><path d="M235.87,127.76 L236.07,190.18 C237.64,198.10 243.86,203.23 250.96,206.43 L314.00,206.54 L314.00,383.75 C309.78,381.98 307.42,377.75 301.50,377.50 L301.53,439.25 C303.36,446.92 308.50,451.64 315.08,454.72 C334.28,455.48 359.13,455.86 379.11,455.25 L379.11,631.25 C377.20,641.40 370.57,647.93 359.75,649.08 L264.81,649.08 L239.50,623.51 C237.64,624.30 234.73,621.09 232.50,622.97 L232.54,682.25 C234.29,690.45 239.26,694.93 246.25,698.44 L308.51,698.53 L308.47,878.75 C305.08,885.77 300.98,890.30 293.29,892.51 L99.75,892.25 C92.31,889.88 87.94,885.38 85.25,878.27 C84.83,800.05 84.84,714.72 85.25,635.96 C88.23,627.98 94.00,622.76 103.25,621.02 L153.50,621.00 L153.50,400.04 L101.25,399.75 C93.79,397.10 88.77,392.34 86.50,385.07 L86.50,142.60 C89.39,134.11 95.21,127.88 105.75,127.01 L230.75,127.10 L235.87,127.76 Z" fill="#FEFEFD" fill-rule="nonzero"/><path d="M122.20,773.50 L270.75,773.52 C274.98,774.93 278.23,777.85 278.99,782.75 C279.24,784.33 279.24,839.17 278.99,840.75 C278.20,845.85 274.48,849.33 269.60,850.01 L121.17,849.75 C118.13,848.10 115.28,846.47 114.25,842.75 C113.80,841.14 113.80,781.61 114.25,780.18 C115.85,776.69 118.69,774.81 122.20,773.50 Z" fill="#FD5B41" fill-rule="nonzero"/><path d="M123.75,281.58 C173.43,281.56 228.30,281.22 277.41,281.75 C280.38,283.40 282.73,285.54 283.98,288.75 L284.00,348.53 C283.41,351.90 279.17,355.61 276.25,356.03 L122.09,355.75 C119.65,353.99 117.56,352.32 116.25,349.25 L115.97,289.82 C117.05,286.27 119.79,282.70 123.75,281.58 Z" fill="#FDB316" fill-rule="nonzero"/><path d="M190.75,528.08 C239.93,528.06 294.29,527.72 342.91,528.25 C345.57,529.87 348.29,531.79 349.25,535.25 C349.51,536.20 350.11,588.86 349.52,593.06 C348.92,597.43 345.42,601.65 341.25,602.48 L191.63,602.50 C186.70,601.71 183.12,597.75 182.47,593.15 C181.90,589.18 182.55,535.93 182.75,535.25 C184.46,531.69 186.69,528.84 190.75,528.08 Z" fill="#9460D5" fill-rule="nonzero"/><path d="M314.00,206.54 L250.96,206.43 C243.86,203.23 237.64,198.10 236.07,190.18 L235.87,127.76 L243.23,130.15 L311.25,198.56 C314.72,203.25 313.49,205.41 314.00,206.54 Z" fill="#95C2F6" fill-rule="nonzero"/><path d="M314.00,383.75 C314.00,384.90 328.24,399.53 345.66,417.01 L377.32,448.78 L379.11,455.25 C359.13,455.86 334.28,455.48 315.08,454.72 C308.50,451.64 303.36,446.92 301.53,439.25 L301.50,377.50 C307.42,377.75 309.78,381.98 314.00,383.75 Z" fill="#A4E3D8" fill-rule="nonzero"/><path d="M264.81,649.08 C268.50,652.89 307.02,692.42 307.02,692.42 C308.76,695.38 308.33,698.13 308.51,698.53 L246.25,698.44 C239.26,694.93 234.29,690.45 232.54,682.25 L232.50,622.97 C234.73,621.09 237.64,624.30 239.50,623.51 L264.81,649.08 Z" fill="#FCBBB6" fill-rule="nonzero"/></g><path d="M139.75,1.04 C138.85,1.49 135.30,2.74 134.25,1.52 L139.75,1.04 Z" fill="#95C2F6" fill-rule="nonzero"/><path d="M132.75,2.11 L128.00,2.99 C128.00,2.22 129.07,2.02 132.75,2.11 Z" fill="#95C2F6" fill-rule="nonzero"/><path d="M2.53,129.25 C3.71,129.92 2.46,132.66 2.00,133.25 L2.53,129.25 Z" fill="#95C2F6" fill-rule="nonzero"/><path d="M2.29,894.57 L2.05,890.75 C2.47,891.55 3.44,894.05 2.29,894.57 Z" fill="#95C2F6" fill-rule="nonzero"/><path d="M132.75,1021.92 L129.25,1021.68 C129.43,1020.33 132.24,1021.82 132.75,1021.92 Z" fill="#95C2F6" fill-rule="nonzero"/><path d="M497.25,470.75 C509.72,471.14 527.30,471.20 539.50,470.72 L539.50,421.04 C541.19,412.83 549.00,407.86 557.59,412.99 C588.78,444.47 621.50,476.97 651.96,508.83 C656.59,517.57 653.95,522.89 649.25,528.49 L557.39,623.10 C549.88,627.69 542.46,623.88 539.75,616.75 L539.46,564.50 L478.39,564.48 C478.39,564.48 478.68,566.09 478.09,566.75 L478.09,564.50 L433.72,564.50 C427.38,562.84 423.20,559.12 421.50,552.83 C421.34,551.93 421.31,483.88 421.50,482.68 C422.43,476.85 426.74,473.87 431.25,470.87 C450.22,471.01 478.02,471.23 497.25,470.75 Z" fill="#FEFEFD" fill-rule="nonzero"/><path d="M595.49,1.91 L595.50,-0.00 L598.00,-0.00 C598.43,1.78 595.93,1.48 595.49,1.91 Z" fill="#95C2F6" fill-rule="nonzero"/><path d="M0.91,142.99 C0.98,145.32 0.78,146.00 -0.00,146.00 L-0.00,143.00 L0.91,142.99 Z" fill="#95C2F6" fill-rule="nonzero"/><path d="M144.00,1024.00 L141.00,1024.00 L141.00,1023.00 C143.33,1023.00 144.00,1023.22 144.00,1024.00 Z" fill="#95C2F6" fill-rule="nonzero"/><path d="M141.50,1.00 L141.50,-0.00 L144.00,-0.00 C144.00,0.78 143.44,1.00 141.50,1.00 Z" fill="#95C2F6" fill-rule="nonzero"/></g><path d="M1023.00,881.56 C1023.00,879.96 1023.23,879.50 1024.00,879.50 L1024.00,880.94 L1023.00,881.56 Z" fill="#A4E3D8" fill-rule="nonzero"/></svg>
