<svg version="1.1" xmlns="http://www.w3.org/2000/svg" viewBox="0 0 1024 1024" style="width: 100%; height: 100%;"><path d="M99.50,1.00 C101.83,1.00 102.50,0.78 102.50,-0.00 L922.00,-0.00 C922.00,0.78 922.56,1.00 924.50,1.00 C935.92,1.28 944.10,5.07 952.75,8.10 C983.63,20.61 1008.45,46.39 1019.12,80.25 C1020.69,84.72 1022.45,92.53 1023.06,98.99 C1023.01,101.32 1023.23,102.00 1024.00,102.00 L1024.00,924.92 C1014.23,978.33 979.02,1013.60 926.00,1024.00 L99.20,1024.00 C65.35,1018.26 41.62,1002.30 23.80,980.25 C13.16,965.99 2.86,947.47 1.00,923.00 C0.70,921.92 1.81,920.60 -0.00,921.00 L-0.00,103.00 C0.78,103.00 0.99,102.44 0.96,100.50 C6.32,48.80 47.93,6.67 99.50,1.00 Z" fill="#1874F5" fill-rule="nonzero"/><g><path d="M720.57,507.52 C704.12,409.91 613.68,323.30 492.75,334.57 C395.41,343.65 318.14,419.46 304.49,513.25 C283.97,659.22 410.69,782.93 557.58,753.51 C571.08,789.75 592.63,819.12 620.09,841.38 L172.25,841.35 C141.19,834.33 122.01,815.39 116.52,783.25 L116.51,349.75 C119.19,319.36 144.61,294.06 174.55,290.50 L319.75,290.48 C334.12,287.69 378.26,190.13 390.62,179.46 C393.48,176.99 398.46,175.05 403.75,174.52 L623.32,174.50 C627.51,174.93 632.59,176.74 634.84,178.43 C641.65,183.57 662.85,225.51 668.99,234.75 C674.80,244.79 697.40,288.90 706.47,290.50 L851.80,290.50 C883.82,295.72 905.03,317.10 909.36,349.75 L909.36,634.25 C884.30,563.42 820.81,503.27 720.57,507.52 Z" fill="#F7F6F3" fill-rule="nonzero"/><path d="M827.45,390.45 C801.60,414.46 763.53,383.82 782.57,352.63 C808.79,320.61 854.39,357.06 827.45,390.45 Z" fill="#1874F5" fill-rule="nonzero"/><g><path d="M720.57,507.52 C820.81,503.27 884.30,563.42 909.36,634.25 C963.51,817.50 764.29,948.22 620.09,841.38 C592.63,819.12 571.08,789.75 557.58,753.51 C553.27,737.56 550.06,720.05 548.38,701.37 C548.46,681.62 550.38,662.36 554.62,646.31 C565.09,602.80 589.90,570.71 619.56,545.50 C634.15,535.93 649.74,525.90 667.14,519.06 C682.73,513.70 700.74,509.01 720.57,507.52 Z" fill="#3BCBB2" fill-rule="nonzero"/><path d="M698.41,589.58 C812.03,558.31 889.18,681.74 830.11,773.25 C785.33,841.45 684.79,847.01 633.51,781.15 C623.95,763.29 643.49,746.58 659.41,757.51 C707.08,817.16 797.70,795.07 812.96,722.02 C824.60,658.66 770.64,605.82 707.91,620.67 C708.52,628.78 718.61,643.64 710.99,650.32 C708.53,652.48 704.43,653.16 701.25,652.63 C700.80,652.55 644.03,634.59 644.03,634.59 C639.15,632.11 637.28,627.08 639.97,621.45 C641.70,617.83 675.93,567.33 677.25,566.37 C694.31,558.97 693.42,579.90 698.41,589.58 Z" fill="#F7F6F3" fill-rule="nonzero"/><path d="M667.14,519.06 C644.35,391.87 487.93,340.60 394.96,440.19 C296.08,551.23 389.68,733.92 548.38,701.37 C550.06,720.05 553.27,737.56 557.58,753.51 C410.69,782.93 283.97,659.22 304.49,513.25 C318.14,419.46 395.41,343.65 492.75,334.57 C613.68,323.30 704.12,409.91 720.57,507.52 C700.74,509.01 682.73,513.70 667.14,519.06 Z" fill="#1874F5" fill-rule="nonzero"/><g><path d="M619.56,545.50 C589.90,570.71 565.09,602.80 554.62,646.31 C455.62,685.07 371.09,581.51 417.90,492.25 C471.28,397.59 616.09,428.26 619.56,545.50 Z" fill="#1874F5" fill-rule="nonzero"/><path d="M667.14,519.06 C649.74,525.90 634.15,535.93 619.56,545.50 C616.09,428.26 471.28,397.59 417.90,492.25 C371.09,581.51 455.62,685.07 554.62,646.31 C550.38,662.36 548.46,681.62 548.38,701.37 C389.68,733.92 296.08,551.23 394.96,440.19 C487.93,340.60 644.35,391.87 667.14,519.06 Z" fill="#F7F6F3" fill-rule="nonzero"/></g></g></g><path d="M215.75,240.04 C216.97,239.83 286.54,239.71 288.35,240.00 C292.84,240.72 296.84,244.85 297.51,248.87 L297.25,281.75 L206.50,282.01 C208.22,266.27 200.96,242.65 215.75,240.04 Z" fill="#F7F6F3" fill-rule="nonzero"/><path d="M99.50,1.00 L99.50,-0.00 L102.50,-0.00 C102.50,0.78 101.83,1.00 99.50,1.00 Z" fill="#F7F6F3" fill-rule="nonzero"/><path d="M1024.00,99.00 L1024.00,102.00 C1023.23,102.00 1023.01,101.32 1023.06,98.99 L1024.00,99.00 Z" fill="#F7F6F3" fill-rule="nonzero"/><path d="M922.00,-0.00 L924.50,-0.00 L924.50,1.00 C922.56,1.00 922.00,0.78 922.00,-0.00 Z" fill="#F7F6F3" fill-rule="nonzero"/><path d="M0.96,100.50 C0.99,102.44 0.78,103.00 -0.00,103.00 L-0.00,100.50 L0.96,100.50 Z" fill="#F7F6F3" fill-rule="nonzero"/><path d="M-0.00,923.00 L-0.00,921.00 C1.81,920.60 0.70,921.92 1.00,923.00 L-0.00,923.00 Z" fill="#F7F6F3" fill-rule="nonzero"/></svg>
