<svg version="1.1" xmlns="http://www.w3.org/2000/svg" viewBox="0 0 1024 1024" width="1024" height="1024"><path d="M164.00,1.00 C166.34,1.00 167.00,0.78 167.00,-0.00 L857.50,-0.00 C857.50,0.78 858.18,0.99 860.53,0.94 C873.20,1.93 885.73,5.07 895.75,8.11 L897.98,9.06 C950.09,25.99 993.39,68.15 1011.99,117.75 L1018.04,136.94 C1018.01,138.49 1018.23,139.08 1019.00,139.56 L1019.00,140.94 C1019.00,142.49 1019.23,143.08 1020.00,143.56 L1019.90,144.93 L1020.91,148.25 L1021.00,150.00 L1021.65,150.65 L1021.85,153.93 L1022.89,163.01 C1023.53,163.43 1022.02,166.73 1024.00,166.00 L1024.00,859.00 C1023.23,859.00 1023.01,859.57 1023.03,861.55 L1021.92,870.77 C1021.15,871.36 1020.82,873.38 1021.00,875.06 L1020.91,876.75 L1019.91,880.10 C1008.96,931.35 976.67,972.17 938.25,996.68 C925.78,1004.39 909.79,1012.50 893.02,1017.06 C891.50,1017.01 890.92,1017.21 890.45,1017.93 C887.16,1018.07 885.00,1020.55 881.04,1020.03 C879.51,1020.01 878.92,1020.23 878.44,1021.00 L876.56,1021.00 C874.62,1021.00 873.92,1021.23 873.44,1022.00 L871.00,1021.97 L868.25,1022.41 L863.04,1023.05 C860.68,1023.01 860.00,1023.23 860.00,1024.00 L165.00,1024.00 C165.00,1023.23 164.32,1023.01 162.00,1023.04 L151.75,1021.98 C151.19,1021.29 149.39,1020.68 147.96,1021.09 C101.76,1012.62 66.10,986.92 41.25,956.73 C27.11,939.39 15.08,918.50 8.05,895.25 C4.74,884.47 1.73,872.60 1.00,859.56 C1.00,857.18 0.78,856.50 -0.00,856.50 L-0.00,168.00 C0.78,168.00 0.99,167.32 0.94,164.99 L2.02,153.55 C3.41,153.31 2.99,151.67 2.47,150.77 L6.39,135.25 C24.85,70.02 76.11,18.99 144.44,3.99 C146.38,4.00 147.08,3.79 147.54,3.05 C152.89,2.55 158.17,1.29 164.00,1.00 Z" fill="#1C76F9" fill-rule="nonzero"/><path d="M165.25,785.56 L326.25,785.50 C328.76,786.04 330.96,788.24 331.50,790.75 L331.50,829.33 L333.76,831.45 L743.29,831.75 L745.96,833.49 C760.13,893.98 864.46,897.07 878.02,833.77 C877.51,834.20 879.48,832.28 879.53,832.25 C880.11,831.96 930.98,831.24 934.25,832.15 L937.50,835.40 C937.50,835.40 937.57,917.15 937.50,917.45 C937.17,919.00 935.32,921.17 933.75,921.75 C679.45,921.65 416.72,923.19 162.57,920.98 L160.49,917.61 L160.75,789.08 C161.26,787.85 163.96,785.86 165.25,785.56 Z" fill="#173052" fill-rule="nonzero"/><path d="M285.50,456.85 L296.00,456.85 C303.06,457.46 323.99,458.17 323.00,464.83 C322.98,464.98 309.32,486.42 307.87,488.75 C304.56,496.18 288.30,510.08 300.78,519.09 C334.44,531.83 369.77,544.27 402.96,557.56 C426.40,571.52 422.32,613.04 389.00,613.00 L389.00,614.09 C406.62,629.62 399.81,657.70 376.75,661.75 L370.25,661.70 L363.50,660.38 C382.39,683.32 362.19,715.07 331.43,704.90 C349.38,725.68 333.15,756.68 304.25,753.49 L187.16,740.50 C163.39,739.82 152.46,751.60 137.25,759.64 C133.13,762.02 91.38,786.95 89.82,787.11 C87.61,787.33 84.93,785.06 84.50,783.05 L84.50,600.04 L86.50,594.75 C115.20,562.51 146.65,531.92 179.44,504.01 C207.77,481.60 237.10,459.16 285.50,456.85 Z" fill="#FDCB87" fill-rule="nonzero"/><g><path d="M558.75,531.56 L605.25,531.52 C619.27,536.10 608.21,558.50 619.11,567.03 C619.52,567.36 632.56,573.38 633.75,573.67 C648.22,577.16 655.14,552.54 668.75,559.56 L699.61,590.25 C708.24,605.01 684.37,611.10 686.50,626.10 C686.85,628.56 692.95,642.05 694.57,643.46 C702.05,650.02 725.24,643.13 727.50,654.96 C727.50,654.98 727.50,701.02 727.50,701.04 C725.09,713.67 700.43,705.08 692.97,714.61 C692.26,715.51 686.72,728.45 686.50,729.92 C684.28,744.98 709.07,752.65 699.53,766.26 C698.80,767.30 669.22,796.46 669.22,796.46 C655.98,804.22 648.28,780.30 634.75,781.98 C634.75,781.98 621.17,787.28 620.41,787.74 C608.37,794.94 618.12,820.21 606.83,824.25 L558.50,824.53 C544.65,820.28 555.66,796.08 544.64,788.46 C543.24,787.49 528.34,781.38 526.65,781.42 C516.84,781.67 506.41,804.66 494.25,796.11 C489.85,790.20 463.55,767.70 462.50,762.55 C460.49,752.65 476.45,741.91 477.60,735.85 C478.60,730.63 472.29,716.31 470.60,714.25 C463.34,705.38 438.91,713.67 436.50,701.04 C436.48,700.96 436.50,654.84 436.50,654.84 C441.18,641.57 463.14,652.24 470.89,641.25 C471.68,640.13 477.32,627.24 477.50,625.98 C479.48,612.37 456.22,604.10 464.11,590.75 C464.47,590.14 493.09,561.00 494.75,559.89 C507.04,551.68 516.99,576.97 529.33,574.12 C529.41,574.10 543.39,568.00 543.74,567.78 C556.10,560.04 544.71,534.57 558.75,531.56 Z" fill="#D0D0D1" fill-rule="nonzero"/><path d="M623.67,713.25 C595.59,747.16 543.18,734.42 530.51,695.49 C519.21,660.76 542.92,629.16 570.33,623.98 C624.70,613.71 654.76,675.72 623.67,713.25 Z" fill="#1C76F9" fill-rule="nonzero"/></g><g><path d="M850.41,358.46 C903.87,387.24 926.27,463.05 881.60,517.81 C875.99,524.69 857.52,542.07 855.75,550.25 L855.22,833.75 C846.66,884.90 778.69,881.41 774.51,829.25 L774.50,558.21 C773.02,545.33 761.25,542.43 753.25,535.91 C692.76,491.75 694.80,398.65 759.95,360.50 C765.47,361.00 763.86,364.36 764.50,369.08 C765.75,378.32 770.58,443.31 772.45,445.34 C778.17,447.84 804.25,465.03 809.43,464.50 C811.76,464.26 841.75,439.10 842.15,437.40 C843.08,433.51 834.03,359.12 835.65,355.25 C837.64,350.51 847.90,357.11 850.41,358.46 Z" fill="#F3F2F2" fill-rule="nonzero"/><path d="M837.49,818.75 C839.30,850.44 796.08,852.24 793.42,822.25 C794.76,793.69 832.22,791.28 837.49,818.75 Z" fill="#1C76F9" fill-rule="nonzero"/></g><g><path d="M438.15,315.34 C411.52,285.83 473.74,277.88 435.64,240.75 C409.31,215.10 364.08,210.18 314.25,213.95 C308.96,214.35 293.72,219.05 296.50,208.75 C336.67,169.32 427.71,126.82 504.25,159.58 C543.73,179.00 577.26,207.52 613.67,231.25 C626.77,241.47 617.59,257.75 631.86,270.85 C634.65,273.41 648.47,282.09 653.78,280.61 C655.59,280.10 664.20,267.65 679.00,274.15 C704.18,294.12 735.69,298.48 704.16,337.25 L662.90,398.25 C658.41,404.65 647.71,409.47 637.49,404.75 C637.49,404.75 608.02,384.83 607.33,384.25 C592.41,371.53 603.44,358.76 602.50,355.12 C594.64,345.04 574.86,326.80 556.46,335.75 C539.69,343.47 537.22,382.09 509.54,362.75 C487.65,346.87 462.99,331.36 440.25,315.34 C439.64,314.93 438.15,315.34 438.15,315.34 Z" fill="#173052" fill-rule="nonzero"/><path d="M509.54,362.75 L402.58,539.75 C399.72,541.46 378.12,531.25 373.75,530.37 L315.75,508.73 C314.64,507.74 314.15,508.27 314.50,506.08 L438.15,315.34 C438.15,315.34 439.64,314.93 440.25,315.34 C462.99,331.36 487.65,346.87 509.54,362.75 Z" fill="#FDBB25" fill-rule="nonzero"/></g><path d="M285.50,456.85 L296.00,456.85 L285.50,456.85 Z" fill="#D0D0D1" fill-rule="nonzero"/><path d="M376.75,661.75 L370.25,661.70 L376.75,661.75 Z" fill="#D0D0D1" fill-rule="nonzero"/><path d="M1021.92,870.77 C1021.98,873.62 1021.77,874.58 1021.00,875.06 C1020.82,873.38 1021.15,871.36 1021.92,870.77 Z" fill="#D0D0D1" fill-rule="nonzero"/><path d="M151.75,1021.98 C149.28,1022.00 148.43,1021.79 147.96,1021.09 C149.39,1020.68 151.19,1021.29 151.75,1021.98 Z" fill="#D0D0D1" fill-rule="nonzero"/><path d="M147.54,3.05 C147.08,3.79 146.38,4.00 144.44,3.99 C144.92,3.22 145.62,3.01 147.54,3.05 Z" fill="#D0D0D1" fill-rule="nonzero"/><path d="M876.56,1021.00 C876.08,1021.77 875.38,1022.00 873.44,1022.00 C873.92,1021.23 874.62,1021.00 876.56,1021.00 Z" fill="#D0D0D1" fill-rule="nonzero"/><path d="M1020.91,148.25 L1019.90,144.93 C1020.75,145.42 1020.98,146.16 1020.91,148.25 Z" fill="#D0D0D1" fill-rule="nonzero"/><path d="M1020.91,876.75 C1021.15,878.03 1021.17,880.09 1019.91,880.10 L1020.91,876.75 Z" fill="#D0D0D1" fill-rule="nonzero"/><path d="M893.02,1017.06 C893.57,1018.77 891.27,1017.75 890.45,1017.93 C890.92,1017.21 891.50,1017.01 893.02,1017.06 Z" fill="#D0D0D1" fill-rule="nonzero"/><path d="M871.00,1021.97 C871.65,1024.25 868.46,1022.40 868.25,1022.41 L871.00,1021.97 Z" fill="#D0D0D1" fill-rule="nonzero"/><path d="M1019.00,139.56 C1018.23,139.08 1018.01,138.49 1018.04,136.94 C1018.78,137.42 1019.00,138.01 1019.00,139.56 Z" fill="#D0D0D1" fill-rule="nonzero"/><path d="M1020.00,143.56 C1019.23,143.08 1019.00,142.49 1019.00,140.94 C1019.78,141.42 1020.00,142.01 1020.00,143.56 Z" fill="#D0D0D1" fill-rule="nonzero"/><path d="M2.47,150.77 C2.99,151.67 3.41,153.31 2.02,153.55 L2.47,150.77 Z" fill="#D0D0D1" fill-rule="nonzero"/><path d="M881.04,1020.03 C880.58,1020.78 879.99,1021.00 878.44,1021.00 C878.92,1020.23 879.51,1020.01 881.04,1020.03 Z" fill="#D0D0D1" fill-rule="nonzero"/><path d="M897.98,9.06 L895.75,8.11 C897.49,8.02 898.00,8.24 897.98,9.06 Z" fill="#D0D0D1" fill-rule="nonzero"/><path d="M1021.85,153.93 L1021.65,150.65 L1021.85,153.93 Z" fill="#D0D0D1" fill-rule="nonzero"/><path d="M1021.65,150.65 L1021.00,150.00 L1021.65,150.65 Z" fill="#D0D0D1" fill-rule="nonzero"/><path d="M164.00,1.00 L164.00,-0.00 L167.00,-0.00 C167.00,0.78 166.34,1.00 164.00,1.00 Z" fill="#D0D0D1" fill-rule="nonzero"/><path d="M1024.00,163.00 L1024.00,166.00 C1022.02,166.73 1023.53,163.43 1022.89,163.01 L1024.00,163.00 Z" fill="#D0D0D1" fill-rule="nonzero"/><path d="M0.94,164.99 C0.99,167.32 0.78,168.00 -0.00,168.00 L-0.00,165.00 L0.94,164.99 Z" fill="#D0D0D1" fill-rule="nonzero"/><path d="M165.00,1024.00 L162.00,1024.00 L162.00,1023.04 C164.32,1023.01 165.00,1023.23 165.00,1024.00 Z" fill="#D0D0D1" fill-rule="nonzero"/><path d="M857.50,-0.00 L859.94,0.00 L860.53,0.94 C858.18,0.99 857.50,0.78 857.50,-0.00 Z" fill="#D0D0D1" fill-rule="nonzero"/><path d="M0.00,858.94 L-0.00,856.50 C0.78,856.50 1.00,857.18 1.00,859.56 L0.00,858.94 Z" fill="#D0D0D1" fill-rule="nonzero"/><path d="M863.04,1023.05 L862.44,1024.00 L860.00,1024.00 C860.00,1023.23 860.68,1023.01 863.04,1023.05 Z" fill="#D0D0D1" fill-rule="nonzero"/><path d="M1023.03,861.55 C1023.01,859.57 1023.23,859.00 1024.00,859.00 L1024.00,860.94 L1023.03,861.55 Z" fill="#D0D0D1" fill-rule="nonzero"/></svg>
