<svg version="1.1" xmlns="http://www.w3.org/2000/svg" viewBox="0 0 1024 1024" width="1024" height="1024"><path d="M132.00,1.00 C134.75,1.00 135.50,0.79 135.50,-0.00 L890.00,-0.00 C889.60,1.81 890.92,0.70 892.00,1.00 C907.41,1.64 920.51,6.83 931.25,10.86 C976.60,30.92 1008.84,66.09 1021.00,118.94 C1021.00,120.88 1021.21,121.58 1021.95,122.04 C1021.82,125.19 1023.52,127.41 1023.06,130.99 C1023.01,133.32 1023.23,134.00 1024.00,134.00 L1024.00,890.50 C1023.23,890.50 1023.00,891.06 1023.00,893.00 C1015.51,956.84 969.05,1005.58 910.75,1020.17 C906.63,1021.04 900.03,1023.51 893.56,1023.00 C891.18,1023.00 890.50,1023.22 890.50,1024.00 L134.00,1024.00 C134.00,1023.22 133.33,1023.00 131.00,1023.00 C117.20,1022.50 105.72,1017.76 95.75,1014.58 C69.88,1004.53 48.94,987.76 33.15,968.67 C17.16,948.27 3.86,924.56 1.00,891.00 C1.00,889.06 0.78,888.50 -0.00,888.50 L-0.00,135.50 C0.78,135.50 0.99,134.94 0.98,133.00 C0.33,128.46 2.16,125.88 2.05,122.04 C2.79,121.57 3.00,120.99 3.00,119.44 C3.45,112.57 6.07,106.34 7.97,100.75 C12.43,88.14 18.76,75.84 26.00,65.30 L26.00,65.04 C37.45,48.99 52.55,33.69 68.75,23.75 C86.22,12.52 105.98,3.55 132.00,1.00 Z" fill="#0077FE" fill-rule="nonzero"/><path d="M845.75,548.75 C853.94,734.57 730.42,858.05 582.25,887.93 C422.12,921.00 312.60,841.61 242.86,759.50 L241.00,759.50 L182.71,815.33 C170.42,823.25 157.19,815.97 155.51,803.25 L155.50,583.47 C158.23,570.79 168.83,563.99 184.75,566.79 L383.75,590.59 C395.45,593.11 401.52,606.44 394.07,618.48 C373.70,638.64 352.24,658.44 331.50,678.18 L331.50,679.45 C365.67,717.11 406.60,748.77 462.18,765.03 C635.91,810.06 761.76,667.35 792.60,539.00 C805.80,513.68 840.25,521.74 845.75,548.75 Z" fill="#FEFEFD" fill-rule="nonzero"/><path d="M780.64,278.00 L781.60,278.00 L840.97,220.46 C854.50,212.48 866.76,220.93 868.05,234.25 L867.75,454.75 C864.22,465.12 854.95,472.63 841.25,470.20 L642.25,448.43 C629.29,446.83 621.54,432.67 630.25,419.83 L691.50,360.44 L691.50,357.25 C642.99,305.13 570.00,257.17 463.75,273.55 C347.18,294.55 262.76,386.69 234.38,497.25 C220.98,525.90 177.33,514.34 178.53,479.75 C177.46,305.19 300.93,184.92 445.25,156.52 C601.12,127.48 710.94,199.40 780.64,278.00 Z" fill="#FEFEFD" fill-rule="nonzero"/><path d="M1021.95,122.04 C1021.21,121.58 1021.00,120.88 1021.00,118.94 C1021.77,119.42 1021.99,120.12 1021.95,122.04 Z" fill="#FEFEFD" fill-rule="nonzero"/><path d="M3.00,119.44 C3.00,120.99 2.79,121.57 2.05,122.04 C2.01,120.50 2.22,119.92 3.00,119.44 Z" fill="#FEFEFD" fill-rule="nonzero"/><path d="M132.00,1.00 L132.00,-0.00 L135.50,-0.00 C135.50,0.79 134.75,1.00 132.00,1.00 Z" fill="#FEFEFD" fill-rule="nonzero"/><path d="M1024.00,131.00 L1024.00,134.00 C1023.23,134.00 1023.01,133.32 1023.06,130.99 L1024.00,131.00 Z" fill="#FEFEFD" fill-rule="nonzero"/><path d="M134.00,1024.00 L131.00,1024.00 L131.00,1023.00 C133.33,1023.00 134.00,1023.22 134.00,1024.00 Z" fill="#FEFEFD" fill-rule="nonzero"/><path d="M893.56,1023.00 L892.94,1024.00 L890.50,1024.00 C890.50,1023.22 891.18,1023.00 893.56,1023.00 Z" fill="#FEFEFD" fill-rule="nonzero"/><path d="M0.98,133.00 C0.99,134.94 0.78,135.50 -0.00,135.50 L-0.00,133.00 L0.98,133.00 Z" fill="#FEFEFD" fill-rule="nonzero"/><path d="M-0.00,891.00 L-0.00,888.50 C0.78,888.50 1.00,889.06 1.00,891.00 L-0.00,891.00 Z" fill="#FEFEFD" fill-rule="nonzero"/><path d="M1023.00,893.00 C1023.00,891.06 1023.23,890.50 1024.00,890.50 L1024.00,893.00 L1023.00,893.00 Z" fill="#FEFEFD" fill-rule="nonzero"/><path d="M890.00,-0.00 L892.00,-0.00 L892.00,1.00 C890.92,0.70 889.60,1.81 890.00,-0.00 Z" fill="#FEFEFD" fill-rule="nonzero"/></svg>
