<svg version="1.1" xmlns="http://www.w3.org/2000/svg" viewBox="0 0 1024 1024" width="1024" height="1024"><path d="M1010.45,852.00 C1010.93,853.55 1011.28,854.00 1012.00,854.00 C1010.88,859.12 1009.25,863.94 1007.51,868.25 L964.08,707.62 C962.32,703.17 959.16,698.85 955.83,695.92 C953.06,693.49 895.52,657.82 892.25,656.55 C891.96,656.43 880.89,653.11 879.50,654.50 C881.31,664.00 882.77,673.80 883.12,684.75 C889.37,690.12 892.59,703.13 887.75,713.25 C867.29,746.52 822.30,712.08 853.14,684.44 C853.15,680.74 850.47,662.45 849.05,661.89 C836.50,663.72 828.88,670.71 823.28,679.75 C818.26,690.98 790.77,733.58 789.40,745.25 C788.25,755.06 797.75,789.91 799.94,799.25 C811.04,845.42 822.37,891.66 833.08,938.25 C836.10,950.43 845.23,959.78 862.69,958.50 L979.56,924.91 C978.31,928.47 976.03,931.92 973.56,933.99 C936.39,943.33 900.77,955.00 864.26,965.00 C843.80,966.97 832.74,957.37 827.31,943.50 L255.84,1007.00 C189.13,1010.27 175.08,963.55 149.75,924.84 C119.82,876.03 88.20,825.08 57.52,775.93 C53.13,767.37 49.45,755.65 48.95,743.75 L39.96,367.81 C42.38,340.81 62.13,340.13 88.64,337.50 C85.91,299.51 80.50,259.54 80.93,220.75 C83.80,199.38 99.25,181.23 118.57,176.41 C128.36,173.98 142.26,174.21 153.50,172.83 C150.83,134.74 164.33,110.15 194.25,103.97 L562.25,76.51 C581.74,75.71 593.06,86.15 599.25,99.47 C600.22,100.05 657.83,94.98 666.75,95.89 C688.90,98.16 706.98,118.48 707.50,142.44 C708.51,141.57 707.53,144.06 708.41,143.00 L754.53,139.48 C784.52,141.91 798.90,162.65 799.76,193.68 C840.62,190.84 858.74,217.66 857.28,258.70 C890.89,263.25 912.33,286.84 916.45,321.25 C916.61,352.26 912.73,382.49 912.00,413.47 L972.17,476.25 C976.74,480.77 981.18,488.82 982.49,497.75 C982.53,577.90 980.03,659.57 979.50,739.29 C989.75,776.63 999.85,815.17 1010.45,852.00 Z" fill="#242F38" fill-rule="nonzero"/><g><path d="M89.00,344.50 C90.39,365.93 92.11,387.34 94.07,408.00 C89.88,408.51 70.39,361.08 68.00,380.57 L202.70,599.75 C217.77,619.44 239.06,612.93 266.87,610.01 C281.90,608.43 347.68,599.39 357.75,601.40 C385.96,607.03 399.41,675.05 429.25,680.56 C430.91,680.86 437.12,681.15 439.25,681.12 L740.25,646.94 C746.72,646.16 754.50,642.12 758.30,638.59 C765.81,631.63 790.76,583.71 798.19,570.75 C824.72,524.50 817.76,531.92 880.75,523.98 C890.17,522.79 934.74,518.01 940.75,515.89 C946.65,513.80 954.05,506.84 955.00,498.82 C956.33,487.60 948.92,488.98 948.00,492.00 C950.16,515.45 923.25,510.25 905.88,514.00 L911.00,423.43 C911.18,423.20 912.31,423.75 912.31,423.75 C912.31,423.75 963.46,476.87 965.89,479.75 C970.28,484.97 974.45,489.75 975.75,498.25 C975.65,567.64 974.23,642.19 972.89,712.50 L972.11,712.50 C970.29,702.98 965.83,695.05 959.52,690.00 C947.34,683.15 900.49,650.66 889.25,648.41 C888.75,648.32 877.47,647.93 877.29,647.75 C870.36,626.16 859.66,606.06 839.33,597.25 C805.21,590.43 801.25,643.24 837.83,636.55 C839.23,638.26 847.99,654.05 846.75,655.06 C834.84,658.11 825.59,664.11 819.43,672.98 C816.36,677.39 787.01,730.48 785.59,734.29 C782.72,742.02 782.20,749.13 783.48,758.23 C796.78,817.25 812.58,877.23 825.50,936.85 L251.57,1000.50 C218.95,1001.70 197.74,985.99 184.34,967.75 C145.22,904.80 105.36,839.16 65.38,775.75 C61.38,768.50 57.20,759.00 55.95,747.75 C53.09,622.15 49.32,492.97 47.02,366.75 C48.58,346.47 68.89,346.30 89.00,344.50 Z" fill="#1387EE" fill-rule="nonzero"/><g><path d="M740.62,724.75 L741.12,755.34 C791.05,765.35 786.91,834.93 742.25,847.34 C744.27,878.79 735.83,896.53 712.25,902.45 L466.25,930.99 C444.38,932.19 433.17,919.17 428.90,901.75 C428.08,899.23 429.21,878.54 427.53,877.64 C376.88,869.18 379.46,800.41 425.43,788.94 C425.99,773.77 423.85,760.04 428.36,749.25 C433.05,737.99 443.23,728.86 456.11,725.98 C537.67,716.60 622.89,708.24 704.75,699.49 C724.34,697.39 737.97,708.31 740.62,724.75 Z" fill="#242F38" fill-rule="nonzero"/><g><path d="M713.75,706.02 C739.42,711.74 733.62,733.32 734.75,761.21 C783.65,765.95 780.48,833.11 736.75,841.66 L735.50,842.62 C735.19,843.38 735.73,863.20 735.50,865.87 C733.96,883.55 723.73,893.52 708.25,896.42 L463.25,924.65 C437.44,922.64 433.37,902.52 434.88,872.95 C434.18,870.85 431.05,871.89 429.25,871.49 C387.52,862.21 386.57,812.72 423.54,796.53 C425.16,795.82 431.41,794.71 431.93,793.43 L432.25,758.75 C436.10,745.00 444.41,735.98 458.25,732.45 C529.74,724.35 605.79,716.75 677.75,709.02 C684.72,708.27 708.00,705.29 713.75,706.02 Z" fill="#9BA0A9" fill-rule="nonzero"/><g><path d="M702.39,739.53 C706.62,741.77 710.73,747.39 711.50,753.09 C711.74,754.89 711.73,853.45 711.50,855.29 C710.28,865.12 702.76,873.34 694.75,875.52 L488.75,899.20 C472.81,902.05 462.03,894.38 460.50,880.45 L460.50,778.61 C463.21,767.08 469.74,760.93 481.25,759.03 C545.91,752.29 610.54,745.74 675.25,738.90 C683.00,738.08 695.36,735.81 702.39,739.53 Z" fill="#242F38" fill-rule="nonzero"/><g><path d="M695.53,744.00 C699.05,744.61 703.77,749.25 704.75,752.75 L705.05,852.75 C704.54,860.75 699.88,866.71 692.90,869.05 L483.21,893.00 C473.89,893.62 469.70,888.82 467.25,882.25 C466.84,849.96 466.83,809.53 467.25,777.25 C469.41,771.88 474.20,767.23 479.25,766.05 C531.86,760.33 585.01,755.06 637.75,749.48 C644.02,748.81 691.55,743.31 695.53,744.00 Z" fill="#FDFDFD" fill-rule="nonzero"/><path d="M608.75,787.51 C608.75,787.51 613.41,787.39 613.92,787.50 C615.94,787.96 650.36,825.52 650.56,827.57 C650.76,829.57 648.36,832.49 646.92,833.00 L530.25,845.09 C528.47,844.16 526.59,842.30 527.50,839.04 C527.50,839.04 552.77,810.99 553.07,810.75 C563.16,802.72 571.47,825.42 577.90,821.91 C579.65,820.95 605.42,788.35 608.75,787.51 Z" fill="#656C76" fill-rule="nonzero"/><path d="M647.58,845.00 C652.19,847.73 650.87,852.77 646.25,853.94 L531.00,866.07 C526.44,865.51 524.26,858.75 531.75,857.06 L647.58,845.00 Z" fill="#656C76" fill-rule="nonzero"/><path d="M577.09,785.40 C575.28,805.98 545.75,798.20 556.00,779.19 C562.91,770.62 576.21,774.13 577.09,785.40 Z" fill="#656C76" fill-rule="nonzero"/></g></g><g><path d="M436.46,821.94 C449.78,830.18 442.35,852.07 425.21,850.12 C405.26,844.55 415.79,813.16 436.46,821.94 Z" fill="#242F38" fill-rule="nonzero"/><path d="M437.15,837.29 C434.10,848.61 416.87,844.97 420.84,832.46 C423.89,822.84 440.43,825.07 437.15,837.29 Z" fill="#656C76" fill-rule="nonzero"/></g><g><path d="M749.35,788.26 C764.21,794.43 759.38,816.56 743.50,817.57 C721.69,815.55 728.51,783.96 749.35,788.26 Z" fill="#242F38" fill-rule="nonzero"/><path d="M750.19,795.81 C758.71,804.34 744.35,817.85 737.36,808.30 C731.98,800.94 742.84,788.47 750.19,795.81 Z" fill="#656C76" fill-rule="nonzero"/></g></g></g></g><g><path d="M242.95,562.64 L241.98,561.67 C239.76,509.08 235.69,456.11 234.50,403.25 C237.46,383.82 248.88,372.06 266.75,367.43 L849.73,312.00 C895.14,310.83 877.01,357.81 877.51,392.75 L869.52,518.16 C855.56,521.03 835.69,520.37 824.02,526.02 C808.02,533.76 801.44,552.02 792.60,566.75 C761.57,555.39 732.44,541.67 701.00,530.89 C671.39,549.47 643.63,570.64 612.77,588.03 C566.90,569.28 518.10,549.09 475.13,527.72 C444.67,507.26 421.11,479.91 375.75,474.48 L373.26,474.85 C328.88,503.14 286.17,533.40 242.95,562.64 Z" fill="#5CBCF8" fill-rule="nonzero"/><path d="M592.30,427.75 C612.74,454.27 592.83,494.73 557.75,490.98 C532.66,488.31 514.92,458.19 529.62,432.25 C542.59,409.36 575.53,405.99 592.30,427.75 Z" fill="#FCBB16" fill-rule="nonzero"/><path d="M348.89,409.81 C361.18,410.35 367.23,417.50 370.82,426.25 C380.09,424.68 394.76,435.99 386.55,443.50 L265.13,443.50 C256.20,437.30 271.07,426.62 276.75,426.50 C280.16,416.70 287.10,409.49 298.88,408.48 C310.93,387.71 338.64,389.12 348.89,409.81 Z" fill="#FDFDFD" fill-rule="nonzero"/><path d="M836.01,423.00 C845.78,422.98 849.54,428.55 853.75,433.98 C863.30,432.61 868.14,444.94 858.40,448.58 C822.73,455.25 784.68,462.12 748.12,468.19 C739.65,463.62 752.92,452.74 758.51,452.93 C762.60,443.18 769.43,434.40 783.54,434.36 C791.86,416.23 818.29,403.83 836.01,423.00 Z" fill="#FDFDFD" fill-rule="nonzero"/><g><path d="M869.52,518.16 L877.51,392.75 C877.01,357.81 895.14,310.83 849.73,312.00 L266.75,367.43 C248.88,372.06 237.46,383.82 234.50,403.25 C235.69,456.11 239.76,509.08 241.98,561.67 L242.95,562.64 C242.28,563.90 242.54,573.20 244.12,605.55 C217.11,610.58 209.17,598.81 200.66,583.25 L191.00,399.75 C188.98,359.17 212.14,333.27 244.25,325.92 C442.98,305.92 646.92,287.87 844.25,265.51 C884.46,263.31 909.91,292.24 909.99,330.25 L899.00,514.53 C889.85,516.05 879.39,517.34 869.52,518.16 Z" fill="#FDFDFD" fill-rule="nonzero"/><g><path d="M375.75,474.48 C382.70,491.44 390.83,507.92 398.59,524.00 L448.91,566.06 C460.55,592.05 481.44,609.90 497.12,632.10 L459.25,635.95 C428.65,603.91 395.61,573.37 362.49,543.75 C361.32,543.06 360.45,542.47 359.09,544.05 C358.47,544.76 336.64,588.81 334.00,593.99 C334.00,593.99 334.00,595.43 334.00,595.43 L244.12,605.55 C242.54,573.20 242.28,563.90 242.95,562.64 C286.17,533.40 328.88,503.14 373.26,474.85 L375.75,474.48 Z" fill="#29734D" fill-rule="nonzero"/><g><path d="M612.77,588.03 C630.55,596.84 651.12,604.03 668.75,612.92 L497.12,632.10 C481.44,609.90 460.55,592.05 448.91,566.06 L398.59,524.00 C390.83,507.92 382.70,491.44 375.75,474.48 C421.11,479.91 444.67,507.26 475.13,527.72 C518.10,549.09 566.90,569.28 612.77,588.03 Z" fill="#6AB446" fill-rule="nonzero"/><g><path d="M772.14,602.37 C764.60,616.52 758.12,636.13 741.11,640.04 L451.75,673.03 C419.45,680.20 413.82,661.22 402.28,642.62 C420.81,639.99 441.11,638.89 459.25,635.95 L497.12,632.10 L668.75,612.92 L679.91,612.12 L772.14,602.37 Z" fill="#1387EE" fill-rule="nonzero"/><g><path d="M792.60,566.75 C786.19,577.78 779.21,592.12 772.14,602.37 L679.91,612.12 C679.91,612.12 680.23,610.48 680.23,610.48 C683.71,607.68 716.05,582.47 716.25,582.11 C717.65,579.59 701.34,560.45 699.50,556.91 C699.14,548.04 700.80,539.51 701.00,530.89 C732.44,541.67 761.57,555.39 792.60,566.75 Z" fill="#6AB446" fill-rule="nonzero"/><path d="M701.00,530.89 C700.80,539.51 699.14,548.04 699.50,556.91 C701.34,560.45 717.65,579.59 716.25,582.11 C716.05,582.47 683.71,607.68 680.23,610.48 C680.23,610.48 679.91,612.12 679.91,612.12 L668.75,612.92 C651.12,604.03 630.55,596.84 612.77,588.03 C643.63,570.64 671.39,549.47 701.00,530.89 Z" fill="#29734D" fill-rule="nonzero"/></g><path d="M334.00,595.43 C334.00,595.43 334.00,593.99 334.00,593.99 C336.64,588.81 358.47,544.76 359.09,544.05 C360.45,542.47 361.32,543.06 362.49,543.75 C395.61,573.37 428.65,603.91 459.25,635.95 C441.11,638.89 420.81,639.99 402.28,642.62 C384.93,619.93 379.82,585.75 334.00,595.43 Z" fill="#6AB446" fill-rule="nonzero"/></g></g></g></g></g><path d="M677.05,186.50 C697.05,188.16 703.49,206.92 705.96,207.59 C741.24,205.38 776.57,201.51 812.25,200.36 C840.12,204.64 851.45,225.44 850.50,258.50 C822.90,260.22 797.53,264.20 770.50,266.50 C768.54,241.76 752.47,223.95 724.75,225.90 C557.08,240.99 388.77,255.84 219.85,269.50 C219.28,243.43 234.49,222.94 255.75,218.98 C394.60,207.86 536.70,196.97 677.05,186.50 Z" fill="#6AB446" fill-rule="nonzero"/><path d="M654.94,148.07 C655.29,148.45 657.93,152.90 658.11,153.01 C678.95,154.81 747.36,143.52 764.75,148.09 C782.05,154.14 793.18,169.86 792.64,194.33 L709.11,200.63 C701.42,186.37 686.05,177.05 663.25,180.34 C508.40,192.85 351.75,203.79 197.85,217.00 C197.19,190.09 213.07,170.37 234.25,166.61 C362.55,156.48 491.35,146.92 619.75,136.95 C638.92,135.47 645.07,137.46 654.94,148.07 Z" fill="#1387EE" fill-rule="nonzero"/><path d="M567.93,83.50 C582.49,85.18 589.97,94.35 594.48,105.98 C596.96,107.79 658.65,101.30 669.25,103.25 C687.46,108.11 701.10,123.93 700.25,143.86 L662.23,146.64 C655.15,135.66 643.78,128.13 625.17,129.50 L234.75,159.58 C227.45,160.75 218.14,164.15 213.17,167.96 L160.50,171.98 C158.07,138.28 169.19,117.45 194.01,111.03 C317.80,101.31 443.09,91.94 567.93,83.50 Z" fill="#8D49E0" fill-rule="nonzero"/><path d="M724.75,232.56 C749.30,230.95 761.29,246.02 764.05,266.91 C762.93,266.31 764.01,268.26 763.08,267.51 C600.87,284.98 435.71,300.16 271.84,316.13 C272.67,290.39 291.21,269.89 315.25,268.56 C451.84,256.81 589.30,245.26 724.75,232.56 Z" fill="#FCAC13" fill-rule="nonzero"/><path d="M288.25,271.01 C275.35,280.58 265.71,294.79 265.00,316.46 C264.56,317.45 247.37,318.61 244.83,319.03 C209.37,324.89 184.24,353.62 183.89,394.75 C186.54,453.06 190.94,512.56 192.62,570.05 L165.05,525.15 L153.52,333.99 C154.97,303.53 172.78,281.02 200.75,278.02 C229.93,275.90 258.85,272.86 288.25,271.01 Z" fill="#FDFDFD" fill-rule="nonzero"/><path d="M204.50,175.50 C196.53,186.12 190.53,198.79 190.85,217.53 C190.59,218.01 162.96,220.25 159.44,221.03 C133.14,226.86 114.36,252.98 114.39,285.25 C117.48,343.25 122.14,402.29 124.68,459.25 L101.98,422.55 L87.50,236.09 C86.04,205.36 102.32,185.36 127.25,182.05 L204.50,175.50 Z" fill="#FDFDFD" fill-rule="nonzero"/><path d="M233.47,221.50 C221.48,232.15 212.33,246.62 213.00,269.98 C172.42,270.51 152.15,292.25 146.89,328.25 C148.75,389.85 154.20,450.39 157.00,511.71 C148.60,499.53 140.94,485.43 133.08,472.93 C128.93,412.22 125.26,349.70 121.50,288.42 C119.77,255.60 139.25,231.16 165.25,227.04 C169.90,226.31 232.55,221.26 233.47,221.50 Z" fill="#FDFDFD" fill-rule="nonzero"/><path d="M830.25,603.58 C849.82,600.28 866.97,635.54 871.51,650.61 C876.73,666.56 884.00,717.64 855.92,709.27 C867.37,680.15 850.36,624.79 826.00,620.50 C818.59,626.99 831.27,627.88 832.25,630.24 C814.17,631.77 814.94,606.16 830.25,603.58 Z" fill="#FDFDFD" fill-rule="nonzero"/><path d="M881.50,695.92 C890.43,710.73 868.88,728.04 856.50,716.75 C871.48,718.80 879.99,709.01 881.50,695.92 Z" fill="#1387EE" fill-rule="nonzero"/><path d="M852.25,694.75 C853.34,697.86 851.00,701.79 850.37,704.50 C847.79,704.25 851.42,695.69 852.25,694.75 Z" fill="#FDFDFD" fill-rule="nonzero"/><g><path d="M218.25,8.72 L231.25,8.88 L242.00,8.84 L270.50,8.84 L285.25,8.85 L309.25,8.49 L311.00,8.50 L392.50,8.50 L393.25,8.50 L511.00,9.00 L514.50,9.00 L602.00,9.00 L687.50,9.00 L695.50,9.00 L696.50,9.00 L720.25,8.98 L722.99,8.75 L791.50,9.03 L799.25,8.50 L800.25,8.68 L810.25,8.90 L823.75,9.12 L831.48,9.32 C865.43,12.71 892.83,23.46 915.60,38.00 L915.84,38.00 C960.06,65.63 994.54,110.07 1010.00,165.79 C1012.45,173.61 1014.50,183.50 1015.48,190.75 C1014.33,191.45 1015.63,194.51 1015.96,195.25 L1015.92,197.01 L1016.88,202.75 L1017.54,206.76 C1016.40,208.57 1017.59,212.48 1017.90,214.25 L1018.45,226.75 L1018.41,802.25 L1017.89,812.75 L1016.94,818.75 L1017.43,820.75 L1016.87,824.25 L1015.91,829.59 C1016.78,832.62 1015.03,836.46 1015.03,838.25 C1014.30,841.47 1014.01,846.64 1012.85,848.75 L1011.92,852.03 L1010.45,852.00 C999.85,815.17 989.75,776.63 979.50,739.29 C980.03,659.57 982.53,577.90 982.49,497.75 C981.18,488.82 976.74,480.77 972.17,476.25 L912.00,413.47 C912.73,382.49 916.61,352.26 916.45,321.25 C912.33,286.84 890.89,263.25 857.28,258.70 C858.74,217.66 840.62,190.84 799.76,193.68 C798.90,162.65 784.52,141.91 754.53,139.48 L708.41,143.00 C707.53,144.06 708.51,141.57 707.50,142.44 C706.98,118.48 688.90,98.16 666.75,95.89 C657.83,94.98 600.22,100.05 599.25,99.47 C593.06,86.15 581.74,75.71 562.25,76.51 L194.25,103.97 C164.33,110.15 150.83,134.74 153.50,172.83 C142.26,174.21 128.36,173.98 118.57,176.41 C99.25,181.23 83.80,199.38 80.93,220.75 C80.50,259.54 85.91,299.51 88.64,337.50 C62.13,340.13 42.38,340.81 39.96,367.81 L48.95,743.75 C49.45,755.65 53.13,767.37 57.52,775.93 C88.20,825.08 119.82,876.03 149.75,924.84 C175.08,963.55 189.13,1010.27 255.84,1007.00 L827.31,943.50 C832.74,957.37 843.80,966.97 864.26,965.00 C900.77,955.00 936.39,943.33 973.56,933.99 C941.44,975.78 896.95,1008.13 833.25,1017.49 C832.50,1016.38 829.13,1017.68 828.25,1017.94 L823.75,1018.60 C822.64,1017.34 818.15,1018.77 816.75,1018.90 L809.75,1019.34 L224.75,1019.17 L222.75,1019.11 L216.25,1019.32 L209.75,1018.84 L204.49,1018.50 L200.01,1017.98 C194.91,1018.31 191.66,1017.58 188.75,1016.95 C188.26,1016.71 185.46,1015.49 185.27,1016.56 C160.63,1012.58 136.48,1003.48 118.75,993.24 C64.79,963.12 20.24,908.83 9.00,836.00 C9.00,834.50 8.78,833.92 8.00,833.44 L8.00,829.06 C8.00,827.12 7.78,826.42 7.00,825.94 L7.00,819.56 C7.00,816.85 6.78,815.92 6.04,815.46 L5.61,800.75 L6.02,794.50 L5.59,226.25 L6.05,211.53 C6.79,211.07 7.00,210.28 7.00,208.00 L7.00,206.00 L7.01,201.25 C7.88,200.64 8.21,198.61 7.95,197.00 C8.04,192.73 8.14,189.91 9.14,187.25 L10.10,184.03 C12.27,165.03 19.18,147.55 25.45,133.25 C51.35,75.96 103.63,26.53 172.40,12.34 C173.12,13.42 174.98,12.56 175.75,12.03 L177.75,11.45 C178.25,12.81 180.71,11.23 181.25,11.08 C183.81,10.36 188.44,9.62 193.00,10.00 L195.01,10.06 L199.49,9.50 L203.75,9.15 L218.25,8.72 Z" fill="#1387EE" fill-rule="nonzero"/><g><path d="M6.02,794.50 L4.98,794.50 L5.59,226.25 L6.02,794.50 Z" fill="#5CBCF8" fill-rule="nonzero"/><path d="M6.02,794.50 L5.61,800.75 L4.98,794.50 L6.02,794.50 Z" fill="#9BA0A9" fill-rule="nonzero"/></g><path d="M224.75,1019.17 L807.75,1019.85 L216.75,1019.69 L222.75,1019.11 L224.75,1019.17 Z" fill="#9BA0A9" fill-rule="nonzero"/><path d="M809.75,1019.34 L807.75,1019.85 L224.75,1019.17 L809.75,1019.34 Z" fill="#5CBCF8" fill-rule="nonzero"/><g><path d="M511.00,8.00 L511.00,9.00 L393.25,8.50 L511.00,8.00 Z" fill="#5CBCF8" fill-rule="nonzero"/><path d="M514.50,8.00 L514.50,9.00 L511.00,9.00 L511.00,8.00 L514.50,8.00 Z" fill="#9BA0A9" fill-rule="nonzero"/></g><g><path d="M602.00,8.00 L602.00,9.00 L514.50,9.00 L514.50,8.00 L602.00,8.00 Z" fill="#5CBCF8" fill-rule="nonzero"/><g><path d="M687.50,8.00 L687.50,9.00 L602.00,9.00 L602.00,8.00 L687.50,8.00 Z" fill="#9BA0A9" fill-rule="nonzero"/><path d="M695.50,8.00 L695.50,9.00 L687.50,9.00 L687.50,8.00 L695.50,8.00 Z" fill="#5CBCF8" fill-rule="nonzero"/></g></g><g><path d="M735.00,8.00 L735.50,8.00 L791.50,7.98 L791.50,9.03 L722.99,8.75 L723.00,8.00 L735.00,8.00 Z" fill="#5CBCF8" fill-rule="nonzero"/><path d="M799.25,8.50 L791.50,9.03 L791.50,7.98 L799.25,8.50 Z" fill="#9BA0A9" fill-rule="nonzero"/></g><path d="M309.25,8.49 L285.25,8.85 L270.50,8.84 L242.00,8.84 L231.25,8.88 L221.75,8.10 L309.25,8.49 Z" fill="#9BA0A9" fill-rule="nonzero"/><path d="M221.75,8.10 L231.25,8.88 L218.25,8.72 L221.75,8.10 Z" fill="#5CBCF8" fill-rule="nonzero"/><path d="M800.75,8.15 L806.25,8.36 L810.25,8.90 L800.25,8.68 L800.75,8.15 Z" fill="#5CBCF8" fill-rule="nonzero"/><path d="M1017.90,214.25 C1017.59,212.48 1016.40,208.57 1017.54,206.76 L1017.90,214.25 Z" fill="#5CBCF8" fill-rule="nonzero"/><path d="M823.75,1018.60 L816.75,1018.90 C818.15,1018.77 822.64,1017.34 823.75,1018.60 Z" fill="#5CBCF8" fill-rule="nonzero"/><path d="M1016.88,202.75 L1015.92,197.01 C1016.79,197.00 1016.98,198.11 1016.88,202.75 Z" fill="#5CBCF8" fill-rule="nonzero"/><path d="M1016.87,824.25 C1016.93,825.87 1017.63,829.47 1015.91,829.59 L1016.87,824.25 Z" fill="#5CBCF8" fill-rule="nonzero"/><g><path d="M199.50,9.00 L199.49,9.50 L195.01,10.06 L195.00,9.00 L199.50,9.00 Z" fill="#9BA0A9" fill-rule="nonzero"/><path d="M195.00,9.00 L195.01,10.06 L193.00,10.00 C192.60,8.19 193.92,9.30 195.00,9.00 Z" fill="#5CBCF8" fill-rule="nonzero"/></g><path d="M7.95,197.00 C8.21,198.61 7.88,200.64 7.01,201.25 C7.00,197.96 7.21,197.00 7.95,197.00 Z" fill="#5CBCF8" fill-rule="nonzero"/><g><path d="M1017.89,812.75 L1018.02,817.25 L1016.94,818.75 L1017.89,812.75 Z" fill="#5CBCF8" fill-rule="nonzero"/><path d="M1018.02,817.25 L1017.43,820.75 L1016.94,818.75 L1018.02,817.25 Z" fill="#9BA0A9" fill-rule="nonzero"/></g><path d="M7.00,819.56 C6.23,819.08 6.01,818.16 6.04,815.46 C6.78,815.92 7.00,816.85 7.00,819.56 Z" fill="#5CBCF8" fill-rule="nonzero"/><path d="M204.49,1018.50 L204.50,1019.00 C201.01,1019.00 200.00,1018.77 200.01,1017.98 L204.49,1018.50 Z" fill="#9BA0A9" fill-rule="nonzero"/><g><path d="M7.00,208.00 C7.00,210.28 6.79,211.07 6.05,211.53 L6.00,208.00 L7.00,208.00 Z" fill="#9BA0A9" fill-rule="nonzero"/><path d="M7.00,206.00 L7.00,208.00 L6.00,208.00 C6.32,207.00 5.16,205.58 7.00,206.00 Z" fill="#5CBCF8" fill-rule="nonzero"/></g><path d="M833.25,1017.49 L828.25,1017.94 C829.13,1017.68 832.50,1016.38 833.25,1017.49 Z" fill="#5CBCF8" fill-rule="nonzero"/><path d="M1015.48,190.75 L1015.96,195.25 C1015.63,194.51 1014.33,191.45 1015.48,190.75 Z" fill="#5CBCF8" fill-rule="nonzero"/><path d="M8.00,829.06 C7.23,828.58 7.00,827.88 7.00,825.94 C7.78,826.42 8.00,827.12 8.00,829.06 Z" fill="#9BA0A9" fill-rule="nonzero"/><path d="M1011.92,852.03 L1012.00,854.00 C1011.28,854.00 1010.93,853.55 1010.45,852.00 L1011.92,852.03 Z" fill="#5CBCF8" fill-rule="nonzero"/><path d="M181.25,11.08 C180.71,11.23 178.25,12.81 177.75,11.45 L181.25,11.08 Z" fill="#9BA0A9" fill-rule="nonzero"/><path d="M9.00,836.00 C8.22,836.00 8.00,835.42 8.00,833.44 C8.78,833.92 9.00,834.50 9.00,836.00 Z" fill="#9BA0A9" fill-rule="nonzero"/><path d="M1012.85,848.75 C1013.22,849.90 1013.15,852.19 1011.92,852.03 L1012.85,848.75 Z" fill="#5CBCF8" fill-rule="nonzero"/><path d="M175.75,12.03 C174.98,12.56 173.12,13.42 172.40,12.34 L175.75,12.03 Z" fill="#5CBCF8" fill-rule="nonzero"/></g><g><path d="M1007.51,868.25 C1001.30,888.82 991.56,909.78 979.56,924.91 L862.69,958.50 C845.23,959.78 836.10,950.43 833.08,938.25 C822.37,891.66 811.04,845.42 799.94,799.25 C797.75,789.91 788.25,755.06 789.40,745.25 C790.77,733.58 818.26,690.98 823.28,679.75 C828.88,670.71 836.50,663.72 849.05,661.89 C850.47,662.45 853.15,680.74 853.14,684.44 C822.30,712.08 867.29,746.52 887.75,713.25 C892.59,703.13 889.37,690.12 883.12,684.75 C882.77,673.80 881.31,664.00 879.50,654.50 C880.89,653.11 891.96,656.43 892.25,656.55 C895.52,657.82 953.06,693.49 955.83,695.92 C959.16,698.85 962.32,703.17 964.08,707.62 L1007.51,868.25 Z" fill="#FCBB16" fill-rule="nonzero"/><path d="M958.75,825.60 C965.80,824.71 966.15,831.78 962.19,833.99 L847.85,867.08 C842.23,867.29 840.98,860.80 846.06,858.43 C883.21,847.83 922.07,836.87 958.75,825.60 Z" fill="#C6801A" fill-rule="nonzero"/><path d="M949.17,790.50 C955.64,789.37 957.34,795.16 953.53,798.36 C915.87,809.73 876.39,820.69 838.62,831.50 C832.09,831.51 833.29,824.61 836.25,823.06 C873.83,812.29 912.33,801.89 949.17,790.50 Z" fill="#C6801A" fill-rule="nonzero"/><path d="M941.25,756.09 C947.48,755.19 947.83,761.74 944.01,764.38 L829.84,796.00 C823.96,797.13 823.25,788.66 828.16,787.38 L941.25,756.09 Z" fill="#C6801A" fill-rule="nonzero"/><path d="M935.75,870.56 C943.07,869.77 942.43,876.87 939.75,878.53 C939.75,878.53 859.78,902.38 858.48,902.50 C850.69,903.21 851.56,896.28 854.75,894.46 L935.75,870.56 Z" fill="#C6801A" fill-rule="nonzero"/></g><path d="M1018.45,226.75 L1018.41,802.25 L1018.45,226.75 Z" fill="#5CBCF8" fill-rule="nonzero"/><path d="M392.50,8.50 L311.00,8.50 L392.50,8.50 Z" fill="#5CBCF8" fill-rule="nonzero"/><path d="M242.00,8.84 L270.50,8.84 L242.00,8.84 Z" fill="#5CBCF8" fill-rule="nonzero"/><path d="M309.25,8.49 L285.25,8.85 L309.25,8.49 Z" fill="#5CBCF8" fill-rule="nonzero"/><path d="M831.48,9.32 L823.75,9.12 L831.48,9.32 Z" fill="#5CBCF8" fill-rule="nonzero"/><path d="M222.75,1019.11 L216.75,1019.69 L216.25,1019.32 L222.75,1019.11 Z" fill="#5CBCF8" fill-rule="nonzero"/><path d="M806.25,8.36 L800.75,8.15 L806.25,8.36 Z" fill="#9BA0A9" fill-rule="nonzero"/><path d="M10.10,184.03 L9.14,187.25 C9.03,184.73 9.25,184.01 10.10,184.03 Z" fill="#5CBCF8" fill-rule="nonzero"/><path d="M209.75,1018.84 L204.50,1019.00 L204.49,1018.50 L209.75,1018.84 Z" fill="#5CBCF8" fill-rule="nonzero"/><path d="M203.75,9.15 L199.49,9.50 L199.50,9.00 L203.75,9.15 Z" fill="#5CBCF8" fill-rule="nonzero"/><path d="M188.75,1016.95 L185.27,1016.56 C185.46,1015.49 188.26,1016.71 188.75,1016.95 Z" fill="#5CBCF8" fill-rule="nonzero"/><path d="M735.50,8.00 L735.00,8.00 L735.50,8.00 Z" fill="#9BA0A9" fill-rule="nonzero"/><path d="M718.25,8.05 L720.25,8.98 L696.50,9.00 L696.50,8.00 L718.25,8.05 Z" fill="#5CBCF8" fill-rule="nonzero"/><path d="M723.00,8.00 L722.99,8.75 L720.25,8.98 L718.25,8.05 L723.00,8.00 Z" fill="#9BA0A9" fill-rule="nonzero"/><path d="M696.50,8.00 L696.50,9.00 L695.50,9.00 L695.50,8.00 L696.50,8.00 Z" fill="#9BA0A9" fill-rule="nonzero"/></svg>
