<svg version="1.1" xmlns="http://www.w3.org/2000/svg" viewBox="0 0 1024 1024" width="1024" height="1024"><path d="M577.50,106.46 C675.06,123.59 745.90,169.37 801.86,227.42 C839.08,267.56 869.65,314.83 891.45,370.25 C902.35,400.31 912.08,434.24 916.47,471.50 C922.54,521.88 917.06,577.53 905.97,618.50 C900.40,639.85 892.46,661.03 884.66,679.37 L874.51,700.75 L861.98,723.25 C808.19,810.39 729.18,875.93 620.00,908.47 C569.82,923.77 492.13,928.22 435.50,915.58 C415.12,911.34 395.22,906.02 377.00,899.50 C310.10,875.10 255.32,836.88 211.70,790.04 C202.09,779.38 192.52,768.04 183.86,756.50 C167.29,734.15 151.98,708.17 139.60,681.37 C128.23,655.21 118.35,626.01 111.97,594.50 C105.97,564.50 102.66,525.90 105.30,490.58 C107.36,457.51 113.98,427.48 121.59,400.75 C166.67,259.05 269.38,148.88 418.75,111.56 L439.23,107.37 L461.25,104.12 C497.03,99.93 543.76,100.56 577.50,106.46 Z" fill="#000000" fill-rule="nonzero"/><g><path d="M528.50,261.96 C528.93,264.91 534.47,264.28 537.14,264.97 C537.64,265.10 538.35,267.17 545.04,267.15 C546.27,267.14 546.24,265.85 547.43,265.87 C553.22,265.95 582.76,270.12 585.42,271.50 C588.11,275.48 592.98,278.52 596.42,281.51 C634.26,299.21 666.82,319.85 693.18,349.75 C697.94,357.51 707.17,364.34 714.09,371.25 L711.75,373.49 L718.75,380.05 L735.14,397.48 C734.28,399.22 737.33,403.34 737.00,406.75 C741.94,425.01 753.71,439.89 754.02,462.75 C768.82,508.85 760.05,576.50 745.24,614.75 L743.22,622.25 C743.24,624.51 740.76,626.09 741.16,627.25 C725.50,669.66 695.14,697.93 666.25,727.14 C651.96,739.50 632.37,749.81 613.75,759.15 C580.45,776.68 536.23,779.23 484.00,776.50 C474.92,776.18 467.03,774.41 460.25,772.05 C425.01,772.95 405.65,755.74 380.75,745.41 C379.24,743.18 373.37,740.04 371.25,738.72 C369.22,737.61 367.14,735.24 364.22,736.00 C336.76,711.93 303.48,692.96 290.00,654.91 C276.93,643.70 273.01,622.04 264.00,606.46 C246.75,558.49 253.48,477.14 268.57,431.75 C272.63,420.95 280.72,410.52 284.30,398.53 C284.47,398.29 287.71,397.50 288.25,396.48 C289.76,397.22 292.13,395.23 292.04,394.24 C293.93,392.30 313.13,373.10 313.13,373.10 C313.82,371.52 309.02,369.73 307.25,368.33 C325.17,350.93 359.14,314.31 381.75,304.08 C396.16,300.41 408.37,290.46 420.25,284.61 C434.03,274.65 453.33,269.34 474.75,270.03 C482.38,269.15 480.00,267.85 481.75,267.11 C483.85,266.22 487.04,267.61 487.54,264.50 C493.59,265.06 497.94,263.01 504.04,263.50 L504.71,261.75 L528.50,261.96 Z" fill="#410000" fill-rule="nonzero"/><g><path d="M589.44,297.00 C589.44,297.00 590.06,298.00 590.06,298.00 C638.92,314.07 673.23,346.29 704.45,380.08 C710.30,393.88 717.35,407.94 727.00,418.16 C726.50,421.38 727.98,421.51 728.00,421.56 C728.02,421.60 727.92,423.34 728.00,423.51 C752.99,479.58 753.17,558.77 731.00,616.81 C715.83,656.53 674.61,707.24 640.85,728.00 C606.47,749.13 566.12,765.67 520.19,763.06 C499.40,761.88 471.59,762.22 451.47,757.98 C406.50,748.50 372.40,725.55 342.81,702.75 L339.74,697.51 C304.86,669.50 282.99,625.24 270.11,576.25 C268.18,555.08 269.25,529.08 269.05,507.25 C267.81,455.37 291.22,427.66 304.00,389.82 C304.14,389.54 318.15,375.25 319.19,374.51 C360.98,345.07 364.13,318.08 426.63,301.52 C427.63,301.26 426.37,302.37 427.52,302.07 C439.40,298.98 447.39,295.01 458.67,291.00 C494.60,278.24 553.74,281.54 589.44,297.00 Z" fill="#4E0000" fill-rule="nonzero"/><g><path d="M587.49,317.52 C631.26,327.22 657.12,357.76 683.75,383.25 C728.48,432.79 744.27,511.09 722.38,594.75 C715.54,620.87 686.43,667.17 670.10,685.11 C649.73,707.49 612.98,729.57 581.25,739.89 C528.93,756.89 454.62,750.16 407.03,728.00 C359.41,705.82 325.42,669.67 301.89,623.25 C274.26,568.74 276.49,489.33 300.81,433.25 C319.30,390.64 366.58,344.47 408.93,326.00 C423.93,320.48 442.27,317.02 453.89,308.44 C460.18,306.97 466.13,304.47 471.75,306.57 L475.64,301.89 C511.08,293.49 561.40,296.31 587.49,317.52 Z" fill="#5C0000" fill-rule="nonzero"/><g><path d="M555.08,309.52 L554.43,313.38 L565.77,322.86 C621.85,344.38 669.22,376.08 695.84,425.75 C728.73,491.68 724.56,582.00 688.14,638.75 C665.73,673.68 657.12,683.89 622.11,706.00 C587.15,728.08 566.85,733.43 520.31,734.68 C461.10,736.26 427.25,725.64 382.50,699.00 C341.02,666.81 310.21,623.26 298.02,562.04 C285.41,457.51 335.84,394.01 392.28,351.00 L471.57,318.13 C467.03,306.15 481.89,310.88 485.75,305.61 C507.97,301.88 536.94,303.17 555.08,309.52 Z" fill="#6B0302" fill-rule="nonzero"/><g><path d="M549.25,330.35 C549.80,330.84 550.51,333.50 551.51,333.86 C560.16,334.39 563.69,340.65 573.15,340.64 C594.71,352.88 625.04,360.22 639.58,379.85 C676.60,407.20 695.51,453.57 701.55,512.16 C701.56,512.24 702.64,514.00 702.66,514.23 C707.34,564.54 687.39,616.72 668.00,645.11 C650.81,671.93 620.76,688.38 593.67,704.92 C549.80,720.85 500.10,719.59 453.15,714.75 C419.82,700.46 381.29,690.23 364.04,659.70 C332.89,635.20 320.85,590.62 309.84,545.95 C306.79,522.46 320.88,466.27 327.00,448.42 C327.00,448.42 327.00,446.88 327.00,446.88 C350.87,404.95 381.91,367.61 430.93,352.00 C432.04,347.70 438.96,348.79 442.00,346.45 C442.00,346.45 442.00,345.03 442.00,345.03 C442.38,344.70 449.69,341.33 450.75,340.92 C457.35,338.85 470.17,335.95 475.81,330.00 C497.17,326.63 529.01,324.93 549.25,330.35 Z" fill="#790000" fill-rule="nonzero"/><g><path d="M544.75,350.64 C566.61,354.51 582.74,366.06 603.46,372.00 C658.25,405.44 693.91,467.64 685.89,555.75 C671.43,609.49 663.70,629.48 627.48,662.30 C597.21,689.74 549.81,706.19 499.75,703.65 C450.51,701.16 398.77,678.55 373.92,648.75 C333.83,600.66 315.68,555.55 337.17,475.75 C351.55,422.35 357.21,424.76 390.25,391.56 C397.98,383.80 406.69,379.78 416.75,374.51 C457.97,352.90 488.87,341.35 544.75,350.64 Z" fill="#890000" fill-rule="nonzero"/><g><path d="M584.58,380.50 C584.61,380.51 586.87,380.47 586.94,380.50 C616.15,393.02 654.60,434.54 664.00,467.00 C680.75,524.83 674.30,581.33 647.00,621.65 C647.00,621.65 647.00,622.75 647.00,622.75 C646.00,624.14 608.03,661.74 607.25,662.30 C565.29,687.30 514.26,699.20 455.33,682.00 C455.17,681.95 453.89,680.60 453.74,680.56 C445.63,678.20 433.73,677.51 427.75,674.08 C400.35,658.38 355.40,612.35 347.59,579.25 C341.86,556.57 344.63,525.16 343.98,497.49 C361.72,423.42 413.51,382.13 483.25,359.89 C520.63,350.28 563.53,362.19 584.58,380.50 Z" fill="#960100" fill-rule="nonzero"/><g><path d="M592.62,397.50 C626.48,414.30 648.59,445.50 656.00,489.18 C667.17,511.63 661.73,549.68 656.75,574.40 C631.88,629.77 615.53,649.90 559.06,671.50 C512.91,689.15 435.80,669.46 408.25,646.76 C380.00,623.48 347.54,571.95 354.44,516.25 C364.38,467.71 381.73,424.83 420.25,404.82 C424.98,399.75 433.80,393.70 441.99,391.75 C448.05,387.43 450.84,379.46 461.75,379.89 C500.19,358.12 566.66,373.72 592.62,397.50 Z" fill="#A40200" fill-rule="nonzero"/><g><path d="M483.25,385.07 C504.07,384.83 529.40,384.65 547.96,386.76 C583.54,399.85 610.45,422.12 632.58,448.69 C655.72,511.97 657.84,558.71 622.00,610.55 C619.84,615.98 594.03,640.18 590.57,641.00 C589.50,641.25 586.28,640.82 585.64,641.00 C563.98,661.80 517.37,666.02 475.00,661.11 C461.29,655.06 444.91,651.19 432.25,643.85 L388.43,600.25 C385.99,597.15 375.67,577.35 374.16,573.25 C360.11,492.49 390.02,433.35 437.75,405.50 C445.40,401.03 473.73,386.75 483.25,385.07 Z" fill="#B20200" fill-rule="nonzero"/><g><path d="M466.62,401.79 L468.33,407.52 L468.81,407.50 C492.37,396.62 534.50,397.21 557.45,408.09 L558.94,405.25 C564.17,411.95 575.22,413.85 581.84,418.72 L580.75,421.70 C588.24,427.48 594.99,433.84 600.99,440.73 L605.25,436.46 C612.40,445.22 619.67,457.73 624.01,469.25 C640.84,520.20 642.99,533.68 622.25,581.19 C612.83,608.72 569.76,641.06 538.25,646.48 C524.90,649.47 509.18,648.61 493.50,648.50 C441.39,644.38 393.20,598.24 385.00,550.25 C382.89,537.92 386.04,497.44 391.16,489.25 C391.51,488.69 394.13,486.52 394.75,485.45 C398.20,470.19 405.14,454.91 413.39,443.75 C414.91,445.79 416.41,445.61 419.41,445.50 C426.91,436.27 435.17,427.73 445.36,420.70 L443.59,415.98 C453.16,413.99 459.72,407.01 466.62,401.79 Z" fill="#C30300" fill-rule="nonzero"/><g><path d="M617.46,502.75 C625.09,549.64 604.88,585.36 581.25,607.49 C578.18,609.70 542.33,628.49 539.19,629.02 C512.15,628.12 479.04,632.74 464.38,619.50 C441.08,616.25 409.73,577.66 404.46,556.75 C392.57,481.19 430.69,436.69 481.41,416.39 C547.15,401.61 606.18,444.33 617.46,502.75 Z" fill="#D30400" fill-rule="nonzero"/><g><path d="M518.25,430.89 C520.32,431.14 521.89,431.73 523.58,432.00 C524.53,432.15 529.91,431.79 530.69,432.00 C584.46,446.71 617.30,497.02 591.88,562.25 C584.73,580.61 554.73,600.17 535.51,608.08 C510.02,618.57 474.54,606.52 456.75,595.30 C443.85,587.17 425.24,560.49 421.16,543.25 C410.82,482.41 463.19,424.34 518.25,430.89 Z" fill="#EB0D00" fill-rule="nonzero"/><g><path d="M561.69,499.25 C561.71,511.66 563.43,532.02 560.28,543.75 C554.23,548.89 540.26,566.54 532.63,569.50 C497.28,575.83 480.44,567.40 464.58,548.97 C463.53,540.37 460.76,532.52 458.50,525.01 C454.47,458.60 540.85,445.95 561.69,499.25 Z" fill="#F93601" fill-rule="nonzero"/><g><path d="M519.19,479.50 C564.20,483.77 565.41,568.11 502.75,557.40 C459.48,550.01 459.76,473.86 519.19,479.50 Z" fill="#FC6001" fill-rule="nonzero"/><g><path d="M525.75,491.93 C550.15,501.00 546.76,550.87 509.25,548.07 C468.37,545.02 474.92,473.05 525.75,491.93 Z" fill="#FC8B04" fill-rule="nonzero"/><g><path d="M504.70,500.00 C540.57,493.83 537.83,545.75 502.58,534.98 C495.29,527.82 492.91,525.78 494.00,511.25 C496.80,506.94 499.77,502.17 504.70,500.00 Z" fill="#FDBF28" fill-rule="nonzero"/><g><path d="M507.25,506.58 C525.83,502.26 527.04,525.79 516.96,528.56 C495.94,534.35 497.27,508.90 507.25,506.58 Z" fill="#FCE87A" fill-rule="nonzero"/><path d="M509.20,513.50 C518.14,513.36 516.31,512.89 516.50,522.00 C516.50,522.00 509.65,522.00 509.65,522.00 C507.53,521.24 507.19,514.32 509.20,513.50 Z" fill="#F9F9F8" fill-rule="nonzero"/></g></g></g></g></g></g></g><path d="M466.62,401.79 C487.32,387.47 537.15,388.89 559.39,401.27 L558.94,405.25 L557.45,408.09 C534.50,397.21 492.37,396.62 468.81,407.50 L468.33,407.52 L466.62,401.79 Z" fill="#DB3F36" fill-rule="nonzero"/><path d="M443.59,415.98 L445.36,420.70 C435.17,427.73 426.91,436.27 419.41,445.50 C416.41,445.61 414.91,445.79 413.39,443.75 C420.53,432.76 430.95,422.61 441.63,414.46 C442.67,414.32 443.51,415.96 443.59,415.98 Z" fill="#DB3F36" fill-rule="nonzero"/><path d="M605.25,436.46 L600.99,440.73 C594.99,433.84 588.24,427.48 580.75,421.70 L581.84,418.72 C582.73,409.12 603.45,434.72 605.25,436.46 Z" fill="#DB3F36" fill-rule="nonzero"/></g></g></g></g></g></g></g></g></g><path d="M288.25,396.48 C287.71,397.50 284.47,398.29 284.30,398.53 C280.72,410.52 272.63,420.95 268.57,431.75 C253.48,477.14 246.75,558.49 264.00,606.46 C273.01,622.04 276.93,643.70 290.00,654.91 C303.48,692.96 336.76,711.93 364.22,736.00 C367.14,735.24 369.22,737.61 371.25,738.72 C373.37,740.04 379.24,743.18 380.75,745.41 C405.65,755.74 425.01,772.95 460.25,772.05 C467.03,774.41 474.92,776.18 484.00,776.50 C536.23,779.23 580.45,776.68 613.75,759.15 C632.37,749.81 651.96,739.50 666.25,727.14 C695.14,697.93 725.50,669.66 741.16,627.25 C740.76,626.09 743.24,624.51 743.22,622.25 L745.24,614.75 C760.05,576.50 768.82,508.85 754.02,462.75 C753.71,439.89 741.94,425.01 737.00,406.75 C737.33,403.34 734.28,399.22 735.14,397.48 L742.50,394.45 C749.64,404.69 756.22,418.17 760.82,429.75 L769.86,466.75 C778.07,507.58 773.77,556.43 766.12,594.75 C747.50,664.01 707.13,714.30 654.75,750.56 C643.47,757.70 629.61,765.50 615.75,771.01 C588.82,785.24 549.80,789.64 510.50,792.50 C441.03,791.11 390.46,770.19 349.75,740.96 C338.09,732.32 325.70,722.02 315.75,712.57 C284.64,683.03 250.77,624.61 243.01,572.75 C235.44,522.16 244.26,466.09 258.00,427.56 C262.62,414.60 271.55,405.70 273.50,390.00 L288.25,396.48 Z" fill="#350000" fill-rule="nonzero"/><g><path d="M603.60,246.07 L602.27,249.44 L600.25,254.50 L594.62,267.50 C588.03,267.50 587.18,267.69 584.74,269.70 C567.20,265.84 548.46,263.16 528.50,261.96 L504.71,261.75 C478.34,262.38 455.70,266.62 433.85,271.58 L432.97,270.00 L426.09,253.75 L423.25,246.99 L421.75,242.91 C450.24,247.12 492.00,238.81 522.70,245.00 C543.56,246.02 563.37,242.88 583.25,245.47 C586.21,247.69 597.03,246.46 603.60,246.07 Z" fill="#AAA6A6" fill-rule="nonzero"/><path d="M603.85,235.45 C604.62,236.23 607.40,235.81 607.05,237.64 L603.60,246.07 C597.03,246.46 586.21,247.69 583.25,245.47 C563.37,242.88 543.56,246.02 522.70,245.00 C492.00,238.81 450.24,247.12 421.75,242.91 L419.25,236.91 C440.91,228.62 468.70,223.69 495.75,221.56 C536.43,219.12 573.75,226.18 603.85,235.45 Z" fill="#B5B2B2" fill-rule="nonzero"/><path d="M504.71,261.75 L504.04,263.50 C497.94,263.01 493.59,265.06 487.54,264.50 C487.04,267.61 483.85,266.22 481.75,267.11 C480.00,267.85 482.38,269.15 474.75,270.03 C453.33,269.34 434.03,274.65 420.25,284.61 C408.37,290.46 396.16,300.41 381.75,304.08 C359.14,314.31 325.17,350.93 307.25,368.33 L298.30,362.60 C311.23,346.39 324.62,330.56 342.06,319.00 C351.65,311.88 358.57,301.30 370.25,295.84 C376.33,292.69 387.13,290.28 391.75,284.43 C399.82,282.09 410.49,278.02 416.37,272.99 C416.39,272.98 422.81,273.90 422.81,273.90 C427.22,273.54 428.45,270.06 432.97,270.00 L433.85,271.58 C455.70,266.62 478.34,262.38 504.71,261.75 Z" fill="#350000" fill-rule="nonzero"/><g><path d="M584.74,269.70 C585.91,269.62 591.95,272.29 593.32,271.04 C598.79,272.55 607.65,275.79 612.81,274.00 C620.76,281.55 635.18,285.66 643.25,291.75 C675.47,310.80 701.33,335.90 722.75,365.67 L714.09,371.25 C707.17,364.34 697.94,357.51 693.18,349.75 C666.82,319.85 634.26,299.21 596.42,281.51 C592.98,278.52 588.11,275.48 585.42,271.50 C582.76,270.12 553.22,265.95 547.43,265.87 C546.24,265.85 546.27,267.14 545.04,267.15 C538.35,267.17 537.64,265.10 537.14,264.97 C534.47,264.28 528.93,264.91 528.50,261.96 C548.46,263.16 567.20,265.84 584.74,269.70 Z" fill="#350000" fill-rule="nonzero"/><g><path d="M600.25,254.50 C604.72,255.70 609.74,259.07 611.00,262.83 C622.79,269.31 635.23,273.22 646.75,280.63 C679.54,298.11 704.16,327.96 729.48,353.98 C730.15,354.67 731.51,358.53 732.25,359.62 L722.75,365.67 C701.33,335.90 675.47,310.80 643.25,291.75 C635.18,285.66 620.76,281.55 612.81,274.00 C607.65,275.79 598.79,272.55 593.32,271.04 L594.62,267.50 L600.25,254.50 Z" fill="#2D0000" fill-rule="nonzero"/><path d="M594.62,267.50 L593.32,271.04 C591.95,272.29 585.91,269.62 584.74,269.70 C587.18,267.69 588.03,267.50 594.62,267.50 Z" fill="#988483" fill-rule="nonzero"/></g></g></g></g><g><path d="M598.10,148.61 C616.56,153.79 637.72,160.19 652.95,168.23 C653.04,169.06 645.85,184.44 645.12,186.25 C644.52,184.73 641.22,184.48 641.09,183.75 C630.69,180.23 615.19,181.24 603.25,178.62 C572.03,176.28 535.87,173.84 510.57,184.50 C474.15,171.92 421.88,178.25 379.35,182.01 L373.09,168.25 C375.43,166.47 381.55,164.00 384.90,162.87 C436.71,137.11 531.64,130.17 598.10,148.61 Z" fill="#DCDBDB" fill-rule="nonzero"/><g><path d="M645.12,186.25 L644.93,187.75 L632.95,213.52 C632.76,213.66 632.49,215.30 631.69,215.43 C631.53,215.46 613.93,209.51 611.75,208.90 C539.51,188.61 461.65,190.16 394.77,215.53 C394.08,215.42 392.64,211.32 392.08,210.51 L380.20,184.75 L379.35,182.01 C421.88,178.25 474.15,171.92 510.57,184.50 C535.87,173.84 572.03,176.28 603.25,178.62 C615.19,181.24 630.69,180.23 641.09,183.75 C641.22,184.48 644.52,184.73 645.12,186.25 Z" fill="#C7C6C6" fill-rule="nonzero"/><path d="M644.93,187.75 L645.12,186.25 C645.85,184.44 653.04,169.06 652.95,168.23 C637.72,160.19 616.56,153.79 598.10,148.61 C605.40,143.63 654.17,164.29 654.50,165.03 C653.43,170.98 657.38,168.83 657.00,173.22 C651.80,176.03 650.77,184.85 644.93,187.75 Z" fill="#101010" fill-rule="nonzero"/><path d="M379.35,182.01 L380.20,184.75 C377.69,183.98 376.55,181.26 375.57,179.52 C371.31,178.28 369.76,172.04 373.09,168.25 L379.35,182.01 Z" fill="#101010" fill-rule="nonzero"/></g></g><path d="M815.63,260.11 C838.78,293.31 863.18,329.32 878.41,370.25 C878.58,370.71 884.10,382.89 879.75,379.68 C861.24,329.65 832.74,287.17 803.00,248.08 C803.89,239.28 814.56,258.56 815.63,260.11 Z" fill="#101010" fill-rule="nonzero"/><path d="M219.21,248.99 C219.84,248.80 220.61,249.63 220.53,250.34 C186.51,291.05 157.82,338.61 139.23,394.17 C138.31,394.85 137.54,394.30 137.41,393.04 C156.06,336.63 184.45,289.28 219.21,248.99 Z" fill="#101010" fill-rule="nonzero"/><path d="M241.48,278.08 L240.87,278.63 L241.48,278.08 Z" fill="#404040" fill-rule="nonzero"/><path d="M235.67,282.79 L235.14,283.25 L235.67,282.79 Z" fill="#AAA6A6" fill-rule="nonzero"/><path d="M205.50,311.54 L205.00,312.00 L205.50,311.54 Z" fill="#101010" fill-rule="nonzero"/><path d="M205.00,312.00 L204.75,312.26 L205.00,312.00 Z" fill="#101010" fill-rule="nonzero"/><path d="M249.00,369.08 L248.75,369.28 L249.00,369.08 Z" fill="#140000" fill-rule="nonzero"/><path d="M782.63,377.39 L782.00,378.00 L782.63,377.39 Z" fill="#5D5C5C" fill-rule="nonzero"/><g><path d="M340.00,82.81 C340.00,107.55 340.08,108.69 341.00,110.50 C341.77,112.00 342.00,113.45 342.00,116.67 C342.00,119.84 342.19,121.04 343.53,122.15 L343.27,122.41 C230.12,176.30 151.46,266.78 109.81,392.01 C100.88,419.10 94.29,451.44 91.33,484.87 C88.14,517.73 90.96,555.83 95.82,584.46 C91.07,582.76 83.92,580.39 78.45,579.13 C74.72,576.24 70.10,572.20 66.18,570.00 L55.96,570.00 C53.20,544.98 51.93,513.69 53.87,487.00 L55.22,470.05 L58.58,445.00 C59.35,440.00 60.91,433.78 61.15,428.05 C61.68,425.21 68.00,400.24 67.63,398.51 C67.42,397.54 51.29,390.63 48.25,390.50 C51.94,376.42 56.57,361.86 61.29,349.25 C66.54,356.02 75.58,358.86 78.59,367.61 C83.26,356.29 88.16,343.85 92.54,331.97 C92.77,331.99 95.63,326.05 105.25,305.57 C108.27,299.99 112.87,292.12 115.52,286.25 L132.88,258.00 L145.95,239.00 C159.31,220.35 174.85,202.51 190.08,186.15 L209.52,167.07 C229.71,148.75 252.63,130.45 275.32,115.75 L301.12,101.04 L301.50,101.00 L302.00,100.50 L302.50,100.50 L302.76,100.25 C315.16,94.39 327.16,87.93 340.00,82.81 Z" fill="#8A8989" fill-rule="nonzero"/><g><path d="M32.43,485.43 C36.56,488.58 47.74,486.31 53.87,487.00 C51.93,513.69 53.20,544.98 55.96,570.00 C62.55,622.66 76.82,668.86 95.84,708.75 C106.38,731.83 119.98,754.71 133.83,774.75 C141.14,785.25 150.18,796.79 158.36,806.73 L165.75,815.13 C169.62,820.16 175.04,825.08 179.48,829.75 C187.38,838.92 198.22,848.23 207.25,856.92 L195.32,868.95 L194.89,875.15 C168.47,852.70 143.55,825.26 123.22,797.75 C88.67,750.67 61.08,695.99 44.96,630.75 C34.82,590.16 28.03,536.70 32.43,485.43 Z" fill="#404040" fill-rule="nonzero"/><g><path d="M95.82,584.46 L97.48,594.50 C104.18,628.84 114.79,660.48 127.40,688.50 L132.10,698.50 L118.43,698.50 C111.12,701.66 100.55,702.53 95.84,708.75 C76.82,668.86 62.55,622.66 55.96,570.00 L66.18,570.00 C70.10,572.20 74.72,576.24 78.45,579.13 C83.92,580.39 91.07,582.76 95.82,584.46 Z" fill="#9B9A9A" fill-rule="nonzero"/><g><path d="M132.10,698.50 C140.14,715.68 150.83,733.13 160.54,748.25 L133.83,774.75 C119.98,754.71 106.38,731.83 95.84,708.75 C100.55,702.53 111.12,701.66 118.43,698.50 L132.10,698.50 Z" fill="#AAA6A6" fill-rule="nonzero"/><path d="M160.54,748.25 L173.36,765.75 C175.92,770.18 180.55,775.10 183.75,779.46 C164.65,798.67 158.94,804.81 158.36,806.73 C150.18,796.79 141.14,785.25 133.83,774.75 L160.54,748.25 Z" fill="#B5B2B2" fill-rule="nonzero"/></g><g><path d="M105.30,490.58 C102.66,525.90 105.97,564.50 111.97,594.50 L97.48,594.50 L95.82,584.46 C90.96,555.83 88.14,517.73 91.33,484.87 C94.60,489.04 102.00,487.96 105.30,490.58 Z" fill="#6A6A69" fill-rule="nonzero"/><g><path d="M111.97,594.50 C118.35,626.01 128.23,655.21 139.60,681.37 C134.28,682.23 131.86,686.95 127.40,688.50 C114.79,660.48 104.18,628.84 97.48,594.50 L111.97,594.50 Z" fill="#797878" fill-rule="nonzero"/><path d="M139.60,681.37 C151.98,708.17 167.29,734.15 183.86,756.50 C183.01,756.50 180.65,758.58 173.36,765.75 L160.54,748.25 C150.83,733.13 140.14,715.68 132.10,698.50 L127.40,688.50 C131.86,686.95 134.28,682.23 139.60,681.37 Z" fill="#8A8989" fill-rule="nonzero"/></g><path d="M121.59,400.75 C113.98,427.48 107.36,457.51 105.30,490.58 C102.00,487.96 94.60,489.04 91.33,484.87 C94.29,451.44 100.88,419.10 109.81,392.01 C112.44,392.00 113.62,392.88 121.59,400.75 Z" fill="#5D5C5C" fill-rule="nonzero"/></g></g></g><g><path d="M407.75,100.00 L418.75,111.56 C269.38,148.88 166.67,259.05 121.59,400.75 C113.62,392.88 112.44,392.00 109.81,392.01 C151.46,266.78 230.12,176.30 343.27,122.41 L343.53,122.15 L370.72,111.12 L394.00,103.50 L407.75,100.00 Z" fill="#4E4E4E" fill-rule="nonzero"/><path d="M374.33,70.25 C375.50,75.60 373.33,80.70 374.00,87.22 C370.90,92.21 366.96,103.31 370.72,111.12 L343.53,122.15 C342.19,121.04 342.00,119.84 342.00,116.67 C342.00,113.45 341.77,112.00 341.00,110.50 C340.08,108.69 340.00,107.55 340.00,82.81 C350.32,78.61 362.93,73.69 374.33,70.25 Z" fill="#9B9A9A" fill-rule="nonzero"/></g><path d="M265.75,95.31 C271.98,99.17 271.45,110.13 275.32,115.75 C252.63,130.45 229.71,148.75 209.52,167.07 C201.47,168.28 196.39,157.56 190.47,153.25 C212.87,132.52 239.07,111.95 265.75,95.31 Z" fill="#C7C6C6" fill-rule="nonzero"/><g><path d="M174.35,169.41 C179.50,174.95 184.27,181.29 190.08,186.15 C174.85,202.51 159.31,220.35 145.95,239.00 C141.05,238.15 137.87,233.23 134.64,231.00 C130.29,231.49 129.02,228.21 126.25,226.91 C140.42,206.41 157.19,186.66 174.35,169.41 Z" fill="#F9F9F8" fill-rule="nonzero"/><path d="M190.47,153.25 C196.39,157.56 201.47,168.28 209.52,167.07 L190.08,186.15 C184.27,181.29 179.50,174.95 174.35,169.41 L190.47,153.25 Z" fill="#DCDBDB" fill-rule="nonzero"/></g><g><path d="M92.54,331.97 C88.16,343.85 83.26,356.29 78.59,367.61 C75.58,358.86 66.54,356.02 61.29,349.25 C65.37,338.37 70.30,326.15 75.03,315.33 C76.81,318.83 88.65,323.42 90.00,326.08 C89.34,329.02 91.65,330.33 92.54,331.97 Z" fill="#9B9A9A" fill-rule="nonzero"/><g><path d="M105.25,305.57 C95.63,326.05 92.77,331.99 92.54,331.97 C91.65,330.33 89.34,329.02 90.00,326.08 C88.65,323.42 76.81,318.83 75.03,315.33 L86.31,291.63 L90.76,292.30 C95.40,297.00 101.11,300.51 105.25,305.57 Z" fill="#AAA6A6" fill-rule="nonzero"/><path d="M115.52,286.25 C112.87,292.12 108.27,299.99 105.25,305.57 C101.11,300.51 95.40,297.00 90.76,292.30 L86.31,291.63 L98.56,269.32 L115.52,286.25 Z" fill="#B5B2B2" fill-rule="nonzero"/></g></g><g><path d="M113.75,244.94 C117.85,250.53 126.02,253.25 130.36,258.00 L132.88,258.00 L115.52,286.25 L98.56,269.32 C103.09,261.95 108.81,251.90 113.75,244.94 Z" fill="#C7C6C6" fill-rule="nonzero"/><path d="M126.25,226.91 C129.02,228.21 130.29,231.49 134.64,231.00 C137.87,233.23 141.05,238.15 145.95,239.00 L132.88,258.00 L130.36,258.00 C126.02,253.25 117.85,250.53 113.75,244.94 C117.70,239.20 122.12,231.88 126.25,226.91 Z" fill="#DCDBDB" fill-rule="nonzero"/></g><path d="M48.25,390.50 C51.29,390.63 67.42,397.54 67.63,398.51 C68.00,400.24 61.68,425.21 61.15,428.05 C57.15,422.93 51.29,419.25 40.96,420.50 C42.96,410.46 45.72,399.16 48.25,390.50 Z" fill="#797878" fill-rule="nonzero"/><g><path d="M37.33,440.25 L39.22,441.96 C46.68,441.89 50.55,445.78 58.58,445.00 L55.22,470.05 L52.25,466.78 L33.99,466.41 C34.78,458.07 36.23,448.26 37.33,440.25 Z" fill="#5D5C5C" fill-rule="nonzero"/><path d="M61.15,428.05 C60.91,433.78 59.35,440.00 58.58,445.00 C50.55,445.78 46.68,441.89 39.22,441.96 L37.33,440.25 L40.96,420.50 C51.29,419.25 57.15,422.93 61.15,428.05 Z" fill="#6A6A69" fill-rule="nonzero"/><path d="M55.22,470.05 L53.87,487.00 C47.74,486.31 36.56,488.58 32.43,485.43 C32.67,479.30 33.11,472.05 33.99,466.41 L52.25,466.78 L55.22,470.05 Z" fill="#4E4E4E" fill-rule="nonzero"/></g></g><g><path d="M719.49,98.49 L720.00,99.00 L720.33,98.98 L746.37,113.99 C768.70,127.90 790.34,145.21 808.79,161.75 L820.96,173.08 C840.66,192.41 859.56,213.36 876.25,236.25 L876.52,236.50 L892.44,259.90 C900.26,272.43 908.33,285.73 915.37,298.75 L931.42,332.25 C937.33,347.17 939.14,351.49 939.46,351.47 C943.11,365.59 949.24,378.35 952.38,392.71 C956.37,394.22 948.40,382.15 955.30,379.00 L969.79,378.79 C970.17,379.46 971.62,381.35 973.18,381.75 C976.15,391.47 979.39,404.70 982.02,416.00 L962.67,416.00 L960.39,418.43 L963.90,437.64 L967.96,465.40 C968.91,478.82 970.53,491.95 970.50,506.50 L970.58,520.50 L937.13,520.50 L933.00,524.98 C933.35,542.24 931.31,557.67 929.47,572.75 C928.41,580.43 926.96,590.49 924.92,598.25 C924.04,608.44 914.16,613.25 907.37,618.50 C907.37,618.50 905.97,618.50 905.97,618.50 C917.06,577.53 922.54,521.88 916.47,471.50 L921.27,471.50 L929.50,463.23 C929.68,462.33 925.75,436.99 924.93,434.75 C920.14,410.50 912.20,384.27 903.71,363.57 C881.65,306.62 850.07,257.30 811.73,217.51 C782.31,186.27 747.83,158.96 709.35,137.15 C705.97,119.05 687.15,107.99 688.90,84.25 C699.69,88.29 709.53,93.76 719.49,98.49 Z" fill="#8A8989" fill-rule="nonzero"/><g><path d="M584.03,93.25 L595.00,95.09 L622.51,101.67 C636.52,105.76 651.51,110.99 665.25,116.08 L686.75,125.55 L709.35,137.15 C747.83,158.96 782.31,186.27 811.73,217.51 L801.86,227.42 C745.90,169.37 675.06,123.59 577.50,106.46 L577.50,99.72 L584.03,93.25 Z" fill="#5D5C5C" fill-rule="nonzero"/><g><path d="M903.71,363.57 C898.29,363.50 898.25,363.52 891.45,370.25 C869.65,314.83 839.08,267.56 801.86,227.42 L811.73,217.51 C850.07,257.30 881.65,306.62 903.71,363.57 Z" fill="#6A6A69" fill-rule="nonzero"/><path d="M903.71,363.57 C912.20,384.27 920.14,410.50 924.93,434.75 C925.75,436.99 929.68,462.33 929.50,463.23 L921.27,471.50 L916.47,471.50 C912.08,434.24 902.35,400.31 891.45,370.25 C898.25,363.52 898.29,363.50 903.71,363.57 Z" fill="#797878" fill-rule="nonzero"/></g><g><path d="M688.90,84.25 C687.15,107.99 705.97,119.05 709.35,137.15 L686.75,125.55 L665.25,116.08 C658.99,111.36 658.99,100.69 653.99,94.91 L653.99,70.93 C665.77,74.76 679.11,79.45 688.90,84.25 Z" fill="#9B9A9A" fill-rule="nonzero"/><g><path d="M653.99,70.93 L653.99,94.91 C658.99,100.69 658.99,111.36 665.25,116.08 C651.51,110.99 636.52,105.76 622.51,101.67 L625.55,98.76 C627.01,94.56 615.82,67.79 616.52,60.39 C629.47,63.04 642.58,66.95 653.99,70.93 Z" fill="#AAA6A6" fill-rule="nonzero"/><g><path d="M616.52,60.39 C615.82,67.79 627.01,94.56 625.55,98.76 L622.51,101.67 L595.00,95.09 L595.00,79.08 C591.26,73.20 589.96,64.17 589.51,54.97 C598.22,56.76 608.78,58.01 616.52,60.39 Z" fill="#B5B2B2" fill-rule="nonzero"/><path d="M589.51,54.97 C589.96,64.17 591.26,73.20 595.00,79.08 L595.00,95.09 L584.03,93.25 L572.25,91.18 C569.72,80.31 571.56,64.87 571.00,52.26 L589.51,54.97 Z" fill="#C7C6C6" fill-rule="nonzero"/></g></g></g></g><path d="M898.25,227.32 C892.67,231.85 884.77,234.86 876.52,236.50 L876.25,236.25 C859.56,213.36 840.66,192.41 820.96,173.08 C826.61,168.03 830.81,161.26 835.23,154.91 C857.68,176.52 879.98,201.24 898.25,227.32 Z" fill="#F9F9F8" fill-rule="nonzero"/><g><path d="M823.75,144.40 C818.07,149.34 813.89,156.94 808.79,161.75 C790.34,145.21 768.70,127.90 746.37,113.99 C752.21,110.04 752.12,99.39 755.60,92.98 C779.43,108.33 803.16,125.66 823.75,144.40 Z" fill="#C7C6C6" fill-rule="nonzero"/><path d="M755.60,92.98 C752.12,99.39 752.21,110.04 746.37,113.99 L720.33,98.98 L724.93,94.30 C725.01,87.73 727.63,82.82 729.68,78.61 C738.05,82.42 747.34,88.26 755.60,92.98 Z" fill="#DCDBDB" fill-rule="nonzero"/><path d="M835.23,154.91 C830.81,161.26 826.61,168.03 820.96,173.08 L808.79,161.75 C813.89,156.94 818.07,149.34 823.75,144.40 L835.23,154.91 Z" fill="#DCDBDB" fill-rule="nonzero"/></g><path d="M956.71,334.25 C962.68,348.90 968.29,365.36 973.18,381.75 C971.62,381.35 970.17,379.46 969.79,378.79 L955.30,379.00 C948.40,382.15 956.37,394.22 952.38,392.71 C949.24,378.35 943.11,365.59 939.46,351.47 C940.86,350.53 940.89,346.78 941.27,345.25 C947.06,343.04 952.45,338.81 956.71,334.25 Z" fill="#9B9A9A" fill-rule="nonzero"/><g><path d="M915.69,253.25 C921.28,262.38 927.66,273.27 932.75,282.75 C926.23,287.53 921.13,293.34 915.37,298.75 C908.33,285.73 900.26,272.43 892.44,259.90 L902.93,260.23 C906.06,256.86 913.00,257.34 915.69,253.25 Z" fill="#C7C6C6" fill-rule="nonzero"/><path d="M915.69,253.25 C913.00,257.34 906.06,256.86 902.93,260.23 L892.44,259.90 L876.52,236.50 C884.77,234.86 892.67,231.85 898.25,227.32 C903.84,235.10 910.48,245.07 915.69,253.25 Z" fill="#DCDBDB" fill-rule="nonzero"/><g><path d="M932.75,282.75 C937.48,291.77 942.98,302.64 947.23,312.35 L930.67,319.50 C925.62,322.10 933.16,328.19 931.42,332.25 L915.37,298.75 C921.13,293.34 926.23,287.53 932.75,282.75 Z" fill="#B5B2B2" fill-rule="nonzero"/><path d="M947.23,312.35 C950.43,318.59 953.87,327.63 956.71,334.25 C952.45,338.81 947.06,343.04 941.27,345.25 C940.89,346.78 940.86,350.53 939.46,351.47 C939.14,351.49 937.33,347.17 931.42,332.25 C933.16,328.19 925.62,322.10 930.67,319.50 L947.23,312.35 Z" fill="#AAA6A6" fill-rule="nonzero"/></g></g></g><g><path d="M787.94,833.25 C796.72,841.38 802.30,853.27 807.38,864.75 C787.09,882.29 762.88,899.57 738.50,913.96 C720.58,924.04 701.40,933.67 681.76,941.96 L658.50,950.70 C655.06,938.50 647.80,928.43 646.18,914.86 C700.27,895.77 748.00,867.33 787.94,833.25 Z" fill="#C7C6C6" fill-rule="nonzero"/><g><path d="M873.83,730.75 C869.17,739.71 861.46,750.12 855.76,758.81 L841.89,777.29 C829.14,792.89 814.30,808.76 799.89,822.25 L787.94,833.25 C748.00,867.33 700.27,895.77 646.18,914.86 L629.25,920.07 C621.52,912.27 620.00,910.36 620.00,908.47 C729.18,875.93 808.19,810.39 861.98,723.25 C867.10,721.75 870.31,728.64 873.83,730.75 Z" fill="#B5B2B2" fill-rule="nonzero"/><g><path d="M889.75,702.43 L917.17,729.75 C907.81,747.48 896.10,765.89 884.72,781.75 C876.93,771.97 863.07,768.96 855.76,758.81 C861.46,750.12 869.17,739.71 873.83,730.75 C879.70,722.01 885.00,711.34 889.75,702.43 Z" fill="#C7C6C6" fill-rule="nonzero"/><path d="M855.76,758.81 C863.07,768.96 876.93,771.97 884.72,781.75 L878.91,789.44 L869.13,801.75 C860.82,792.78 849.62,786.81 841.89,777.29 L855.76,758.81 Z" fill="#DCDBDB" fill-rule="nonzero"/></g></g></g><g><path d="M990.92,560.32 C982.45,642.76 956.50,711.13 922.17,766.75 C912.58,782.30 901.98,797.30 891.08,811.11 C885.83,806.42 881.71,800.02 876.84,794.95 C876.74,793.63 880.75,790.91 878.91,789.44 L884.72,781.75 C896.10,765.89 907.81,747.48 917.17,729.75 C924.38,716.44 931.69,700.51 937.59,686.25 L947.37,660.09 L953.60,639.25 C959.48,618.69 964.10,595.39 967.40,572.25 L973.24,578.04 L976.98,578.02 L980.72,578.00 L984.11,574.64 L987.50,571.28 L987.50,566.72 L987.50,562.16 L990.92,560.32 Z" fill="#404040" fill-rule="nonzero"/><g><path d="M970.58,520.50 C970.64,538.46 968.80,556.41 967.40,572.25 C964.10,595.39 959.48,618.69 953.60,639.25 C943.87,625.46 940.83,626.60 919.20,627.00 L903.40,671.50 C902.25,674.76 900.44,679.57 898.66,682.25 C896.45,678.78 889.34,679.70 884.66,679.37 C892.46,661.03 900.40,639.85 905.97,618.50 C905.97,618.50 907.37,618.50 907.37,618.50 C914.16,613.25 924.04,608.44 924.92,598.25 C926.96,590.49 928.41,580.43 929.47,572.75 C931.31,557.67 933.35,542.24 933.00,524.98 L937.13,520.50 L970.58,520.50 Z" fill="#9B9A9A" fill-rule="nonzero"/><g><path d="M953.60,639.25 L947.37,660.09 L937.59,686.25 C931.79,678.13 919.49,676.52 910.76,671.50 L903.40,671.50 L919.20,627.00 C940.83,626.60 943.87,625.46 953.60,639.25 Z" fill="#AAA6A6" fill-rule="nonzero"/><g><path d="M937.59,686.25 C931.69,700.51 924.38,716.44 917.17,729.75 L889.75,702.43 C892.40,695.92 896.73,688.98 898.66,682.25 C900.44,679.57 902.25,674.76 903.40,671.50 L910.76,671.50 C919.49,676.52 931.79,678.13 937.59,686.25 Z" fill="#B5B2B2" fill-rule="nonzero"/><path d="M898.66,682.25 C896.73,688.98 892.40,695.92 889.75,702.43 C885.00,711.34 879.70,722.01 873.83,730.75 C870.31,728.64 867.10,721.75 861.98,723.25 L874.51,700.75 L884.66,679.37 C889.34,679.70 896.45,678.78 898.66,682.25 Z" fill="#AAA6A6" fill-rule="nonzero"/></g></g><g><path d="M992.91,507.62 C993.41,525.22 991.77,543.94 990.92,560.32 L987.50,562.16 L987.50,566.72 L987.50,571.28 L984.11,574.64 L980.72,578.00 L976.98,578.02 L973.24,578.04 L967.40,572.25 C968.80,556.41 970.64,538.46 970.58,520.50 L970.50,506.50 C977.68,507.04 987.95,505.29 992.91,507.62 Z" fill="#4E4E4E" fill-rule="nonzero"/><g><path d="M990.69,471.68 C991.67,481.70 992.27,496.51 992.91,507.62 C987.95,505.29 977.68,507.04 970.50,506.50 C970.53,491.95 968.91,478.82 967.96,465.40 C980.81,465.74 982.72,462.10 990.69,471.68 Z" fill="#5D5C5C" fill-rule="nonzero"/><g><path d="M985.11,432.79 C987.55,444.69 989.33,458.28 990.69,471.68 C982.72,462.10 980.81,465.74 967.96,465.40 L963.90,437.64 L980.57,437.14 L985.11,432.79 Z" fill="#6A6A69" fill-rule="nonzero"/><path d="M982.02,416.00 L985.11,432.79 L980.57,437.14 L963.90,437.64 L960.39,418.43 L962.67,416.00 L982.02,416.00 Z" fill="#797878" fill-rule="nonzero"/></g></g></g></g><g><path d="M878.91,789.44 C880.75,790.91 876.74,793.63 876.84,794.95 C881.71,800.02 885.83,806.42 891.08,811.11 C849.18,863.87 797.11,908.22 734.99,940.97 L734.99,918.70 C735.22,918.04 739.16,915.77 738.50,913.96 C762.88,899.57 787.09,882.29 807.38,864.75 L822.72,851.25 C838.63,836.10 855.33,818.81 869.13,801.75 L878.91,789.44 Z" fill="#4E4E4E" fill-rule="nonzero"/><g><path d="M841.89,777.29 C849.62,786.81 860.82,792.78 869.13,801.75 C855.33,818.81 838.63,836.10 822.72,851.25 C819.20,848.17 817.30,843.32 814.00,840.33 C813.98,840.29 814.16,837.70 814.00,837.38 C812.75,834.82 801.03,827.66 799.89,822.25 C814.30,808.76 829.14,792.89 841.89,777.29 Z" fill="#F9F9F8" fill-rule="nonzero"/><path d="M799.89,822.25 C801.03,827.66 812.75,834.82 814.00,837.38 C814.16,837.70 813.98,840.29 814.00,840.33 C817.30,843.32 819.20,848.17 822.72,851.25 L807.38,864.75 C802.30,853.27 796.72,841.38 787.94,833.25 L799.89,822.25 Z" fill="#DCDBDB" fill-rule="nonzero"/></g><path d="M738.50,913.96 C739.16,915.77 735.22,918.04 734.99,918.70 L734.99,940.97 C720.03,949.31 702.92,956.92 686.63,963.56 L686.18,946.48 L681.76,941.96 C701.40,933.67 720.58,924.04 738.50,913.96 Z" fill="#5D5C5C" fill-rule="nonzero"/></g></g><path d="M583.25,969.50 L581.75,970.00 L583.25,969.50 Z" fill="#DCDBDB" fill-rule="nonzero"/><path d="M729.68,78.61 L728.77,77.77 L729.68,78.61 Z" fill="#DCDBDB" fill-rule="nonzero"/><path d="M720.00,99.00 L719.49,98.49 L720.00,99.00 Z" fill="#DCDBDB" fill-rule="nonzero"/><path d="M302.76,100.25 L302.50,100.50 L302.76,100.25 Z" fill="#DCDBDB" fill-rule="nonzero"/><path d="M302.00,100.50 L301.50,101.00 L302.00,100.50 Z" fill="#DCDBDB" fill-rule="nonzero"/><path d="M876.52,236.50 L876.25,236.25 L876.52,236.50 Z" fill="#DCDBDB" fill-rule="nonzero"/><path d="M392.08,210.51 C392.64,211.32 394.08,215.42 394.77,215.53 C461.65,190.16 539.51,188.61 611.75,208.90 C613.93,209.51 631.53,215.46 631.69,215.43 C632.49,215.30 632.76,213.66 632.95,213.52 C643.05,212.55 650.01,214.46 653.71,220.00 C656.40,219.43 659.18,220.63 660.63,222.16 C662.83,219.84 667.06,223.39 669.75,224.61 C682.79,229.49 694.13,239.55 707.56,244.97 L724.75,244.97 L712.83,267.25 C706.36,279.48 706.09,274.30 713.75,280.50 C731.38,292.04 748.87,304.66 764.44,318.10 L790.25,343.37 L800.83,355.67 L813.75,372.25 L824.41,388.25 L830.10,397.61 L839.45,414.87 L836.01,418.20 L836.00,455.98 C840.27,479.08 842.11,505.26 843.67,531.00 C844.09,530.38 844.09,533.12 843.67,532.50 C838.17,674.23 757.33,776.91 657.86,824.25 C642.09,831.74 622.90,839.77 603.75,845.10 C543.73,861.81 490.88,861.15 428.75,846.48 C384.66,836.06 339.93,812.30 308.51,789.00 C247.35,743.64 194.36,667.50 181.39,573.75 L179.46,559.25 C178.23,557.90 179.74,549.09 178.59,547.75 C174.37,509.40 184.12,473.50 182.00,433.20 C181.15,431.10 178.17,432.53 175.93,432.03 L181.40,419.72 L192.42,399.00 L198.75,388.46 L206.00,377.36 L213.87,366.56 L225.58,351.75 C232.41,343.87 240.24,335.87 247.71,328.50 C257.81,318.40 270.42,308.05 282.23,299.06 C285.97,296.38 291.23,292.48 295.40,289.75 L295.98,291.26 L276.00,311.24 C271.89,320.14 265.62,329.51 259.75,337.60 C258.66,340.40 260.82,357.13 258.38,358.50 C253.45,358.19 251.95,363.53 249.00,365.62 L249.00,369.08 L248.75,369.28 L242.37,376.52 L240.26,376.52 C220.93,391.89 212.76,423.25 206.50,451.75 C204.37,467.08 201.23,483.21 201.18,500.00 C201.61,499.37 201.61,502.63 201.18,502.00 C197.77,536.16 199.76,575.74 209.46,602.75 C212.48,625.85 222.42,646.31 230.46,664.25 C283.99,757.19 373.86,831.95 507.00,834.85 C557.40,836.78 601.15,827.91 634.25,810.85 C671.91,799.74 742.03,741.73 758.08,711.75 C783.44,684.45 796.38,643.47 809.24,603.25 C821.17,564.96 819.05,507.71 814.42,461.75 C810.79,438.27 800.72,418.19 793.85,396.75 C790.96,391.07 788.10,381.27 782.63,377.39 C778.94,372.13 772.82,366.87 768.75,362.35 L753.45,347.05 C754.64,337.18 752.12,331.05 747.75,326.29 C735.15,307.50 715.60,289.43 699.75,273.60 C675.47,259.75 653.54,243.29 626.36,232.50 L606.68,232.50 L603.85,235.45 C573.75,226.18 536.43,219.12 495.75,221.56 C468.70,223.69 440.91,228.62 419.25,236.91 L419.16,236.98 L416.31,234.01 C379.18,230.21 360.94,248.09 339.06,260.09 C333.53,265.07 323.42,266.90 317.83,271.99 L314.07,271.99 C308.92,264.00 304.33,254.10 299.59,246.00 L313.75,246.00 C326.54,240.05 338.11,230.80 349.75,224.48 C356.14,220.90 361.04,217.69 371.79,219.00 L376.20,214.51 C381.40,213.94 383.92,208.85 392.08,210.51 Z" fill="#0B0000" fill-rule="nonzero"/><g><path d="M242.37,376.52 L242.82,377.04 L248.50,379.42 C234.22,407.74 221.64,438.24 216.92,476.25 C211.01,517.80 211.58,543.87 218.49,584.25 L224.03,612.97 L227.53,623.75 C245.35,688.60 324.03,770.58 382.75,793.70 C402.84,801.61 423.95,810.25 448.57,815.00 C506.93,826.26 559.50,821.99 609.25,805.40 C614.16,803.58 622.74,801.21 626.40,797.42 C652.70,789.73 673.42,775.43 691.75,759.32 C722.19,732.58 738.50,717.37 761.25,680.88 C766.89,670.05 776.22,658.20 781.05,646.25 C788.93,622.51 799.04,598.61 801.42,570.25 C806.99,537.67 804.53,496.77 801.96,463.75 L784.82,409.25 C781.46,399.90 776.13,390.83 771.00,382.37 L781.25,378.02 L782.00,378.00 L782.63,377.39 C788.10,381.27 790.96,391.07 793.85,396.75 C800.72,418.19 810.79,438.27 814.42,461.75 C819.05,507.71 821.17,564.96 809.24,603.25 C796.38,643.47 783.44,684.45 758.08,711.75 C742.03,741.73 671.91,799.74 634.25,810.85 C601.15,827.91 557.40,836.78 507.00,834.85 C373.86,831.95 283.99,757.19 230.46,664.25 C222.42,646.31 212.48,625.85 209.46,602.75 C199.76,575.74 197.77,536.16 201.18,502.00 C201.61,502.63 201.61,499.37 201.18,500.00 C201.23,483.21 204.37,467.08 206.50,451.75 C212.76,423.25 220.93,391.89 240.26,376.52 L242.37,376.52 Z" fill="#140000" fill-rule="nonzero"/><g><path d="M254.49,381.75 L261.75,385.06 C259.66,387.46 259.50,385.02 256.50,390.52 C229.88,439.36 215.53,510.97 230.00,584.56 C230.11,585.14 229.85,587.35 230.00,588.09 C233.71,605.84 240.80,621.68 245.99,638.25 C261.67,669.28 280.54,700.10 306.12,722.00 C337.54,757.53 383.28,783.69 432.31,798.50 C451.28,804.23 490.82,808.82 510.75,808.45 L553.25,806.31 C614.46,799.65 672.17,766.56 708.25,727.30 C732.27,706.12 751.50,674.82 766.95,644.75 C788.38,596.53 798.10,522.32 786.42,459.75 C783.87,440.64 774.51,425.45 770.85,406.25 C768.22,400.92 767.26,389.39 761.25,386.63 L771.00,382.37 C776.13,390.83 781.46,399.90 784.82,409.25 L801.96,463.75 C804.53,496.77 806.99,537.67 801.42,570.25 C799.04,598.61 788.93,622.51 781.05,646.25 C776.22,658.20 766.89,670.05 761.25,680.88 C738.50,717.37 722.19,732.58 691.75,759.32 C673.42,775.43 652.70,789.73 626.40,797.42 C622.74,801.21 614.16,803.58 609.25,805.40 C559.50,821.99 506.93,826.26 448.57,815.00 C423.95,810.25 402.84,801.61 382.75,793.70 C324.03,770.58 245.35,688.60 227.53,623.75 L224.03,612.97 L218.49,584.25 C211.58,543.87 211.01,517.80 216.92,476.25 C221.64,438.24 234.22,407.74 248.50,379.42 L254.49,381.75 Z" fill="#1D0000" fill-rule="nonzero"/><path d="M268.25,387.86 C258.34,401.03 255.53,423.86 245.63,435.75 L238.98,464.75 C231.46,488.47 234.64,525.38 234.00,557.00 C237.38,592.10 247.50,622.40 259.90,647.25 C261.50,651.48 263.83,655.22 266.00,658.75 C300.34,714.75 347.01,756.90 411.75,782.39 C419.06,786.53 429.85,789.09 437.75,791.36 C452.55,795.88 474.42,793.70 488.19,799.00 C564.68,802.11 623.80,784.62 667.25,752.27 L672.75,748.83 C697.56,722.16 730.06,698.98 745.50,662.08 C770.93,632.72 787.22,549.93 781.64,493.25 C779.71,462.08 770.11,439.07 762.91,413.25 C760.25,405.98 757.50,395.73 751.25,390.85 L761.25,386.63 C767.26,389.39 768.22,400.92 770.85,406.25 C774.51,425.45 783.87,440.64 786.42,459.75 C798.10,522.32 788.38,596.53 766.95,644.75 C751.50,674.82 732.27,706.12 708.25,727.30 C672.17,766.56 614.46,799.65 553.25,806.31 L510.75,808.45 C490.82,808.82 451.28,804.23 432.31,798.50 C383.28,783.69 337.54,757.53 306.12,722.00 C280.54,700.10 261.67,669.28 245.99,638.25 C240.80,621.68 233.71,605.84 230.00,588.09 C229.85,587.35 230.11,585.14 230.00,584.56 C215.53,510.97 229.88,439.36 256.50,390.52 C259.50,385.02 259.66,387.46 261.75,385.06 L268.25,387.86 Z" fill="#260000" fill-rule="nonzero"/></g></g><g><path d="M276.53,348.75 C270.90,342.58 265.02,354.68 260.75,357.71 L249.00,369.08 L249.00,365.62 C251.95,363.53 253.45,358.19 258.38,358.50 C260.82,357.13 258.66,340.40 259.75,337.60 C265.62,329.51 271.89,320.14 276.00,311.24 L295.98,291.26 L295.40,289.75 L301.50,285.48 L307.25,281.56 L316.19,276.25 L314.07,271.99 L317.83,271.99 C323.42,266.90 333.53,265.07 339.06,260.09 C360.94,248.09 379.18,230.21 416.31,234.01 L419.16,236.98 C415.96,237.67 412.07,239.80 409.25,240.00 C392.71,251.46 368.61,257.24 354.25,269.92 C323.83,286.92 297.72,310.33 279.61,338.91 C279.25,342.84 279.27,347.28 276.53,348.75 Z" fill="#140000" fill-rule="nonzero"/><g><path d="M419.16,236.98 L419.25,236.91 L421.75,242.91 L423.25,246.99 C413.14,244.71 408.27,257.43 400.75,259.89 C372.77,268.04 350.16,284.78 330.20,300.75 C310.97,314.69 295.89,332.67 282.79,352.59 L282.05,352.43 L276.53,348.75 C279.27,347.28 279.25,342.84 279.61,338.91 C297.72,310.33 323.83,286.92 354.25,269.92 C368.61,257.24 392.71,251.46 409.25,240.00 C412.07,239.80 415.96,237.67 419.16,236.98 Z" fill="#1D0000" fill-rule="nonzero"/><g><path d="M423.25,246.99 L426.09,253.75 C423.53,255.12 421.74,257.62 420.37,260.00 C415.61,259.18 411.44,268.13 409.31,269.60 C356.18,283.76 320.72,319.77 290.92,357.92 L282.79,352.59 C295.89,332.67 310.97,314.69 330.20,300.75 C350.16,284.78 372.77,268.04 400.75,259.89 C408.27,257.43 413.14,244.71 423.25,246.99 Z" fill="#260000" fill-rule="nonzero"/><g><path d="M426.09,253.75 L432.97,270.00 C428.45,270.06 427.22,273.54 422.81,273.90 C422.81,273.90 416.39,272.98 416.37,272.99 C410.49,278.02 399.82,282.09 391.75,284.43 C387.13,290.28 376.33,292.69 370.25,295.84 C358.57,301.30 351.65,311.88 342.06,319.00 C324.62,330.56 311.23,346.39 298.30,362.60 L290.92,357.92 C320.72,319.77 356.18,283.76 409.31,269.60 C411.44,268.13 415.61,259.18 420.37,260.00 C421.74,257.62 423.53,255.12 426.09,253.75 Z" fill="#2D0000" fill-rule="nonzero"/><g><path d="M282.79,352.59 L290.92,357.92 L298.30,362.60 L307.25,368.33 C309.02,369.73 313.82,371.52 313.13,373.10 C313.13,373.10 293.93,392.30 292.04,394.24 C277.53,391.88 267.32,384.60 254.50,380.50 C251.01,379.11 247.90,376.62 242.82,377.04 L242.37,376.52 L248.75,369.28 L249.00,369.08 L260.75,357.71 C265.05,357.57 280.65,359.73 282.05,355.83 C282.05,355.83 281.86,352.95 282.05,352.43 L282.79,352.59 Z" fill="#988483" fill-rule="nonzero"/><path d="M276.53,348.75 L282.05,352.43 C281.86,352.95 282.05,355.83 282.05,355.83 C280.65,359.73 265.05,357.57 260.75,357.71 C265.02,354.68 270.90,342.58 276.53,348.75 Z" fill="#AAA6A6" fill-rule="nonzero"/><path d="M292.04,394.24 C292.13,395.23 289.76,397.22 288.25,396.48 L273.50,390.00 L268.25,387.86 L261.75,385.06 L254.49,381.75 L254.50,380.50 C267.32,384.60 277.53,391.88 292.04,394.24 Z" fill="#5D5C5C" fill-rule="nonzero"/><path d="M254.50,380.50 L254.49,381.75 L248.50,379.42 L242.82,377.04 C247.90,376.62 251.01,379.11 254.50,380.50 Z" fill="#6A6A69" fill-rule="nonzero"/></g></g></g></g><g><path d="M297.61,242.79 L299.59,246.00 C304.33,254.10 308.92,264.00 314.07,271.99 L316.19,276.25 L307.25,281.56 C305.15,280.02 302.98,282.81 301.49,283.48 C286.94,277.48 258.77,279.42 245.85,275.05 C252.00,269.96 259.60,265.52 266.22,261.05 L269.50,259.20 L281.63,252.11 L297.61,242.79 Z" fill="#B5B2B2" fill-rule="nonzero"/><g><path d="M281.63,252.11 L280.83,250.81 C285.83,248.78 291.38,242.43 297.61,242.79 L281.63,252.11 Z" fill="#101010" fill-rule="nonzero"/><g><path d="M280.83,250.81 L281.63,252.11 L269.50,259.20 L269.50,258.00 C272.76,255.23 277.55,253.02 280.83,250.81 Z" fill="#404040" fill-rule="nonzero"/><path d="M269.50,258.00 L269.50,259.20 L266.22,261.05 L265.31,260.32 C265.70,259.34 267.32,257.78 269.50,258.00 Z" fill="#101010" fill-rule="nonzero"/></g></g></g></g><g><path d="M805.25,299.01 L806.38,299.59 C814.03,308.23 822.80,317.24 830.02,326.46 C816.12,323.82 790.28,322.32 774.95,324.00 C771.27,323.06 768.61,316.74 764.44,318.10 C748.87,304.66 731.38,292.04 713.75,280.50 C714.05,280.67 715.29,279.62 715.86,279.95 C719.67,282.15 739.37,296.23 740.75,296.75 C747.77,297.57 762.62,296.32 769.75,297.44 C778.60,297.95 793.14,299.14 799.82,296.50 C801.46,297.16 803.54,301.45 805.25,299.01 Z" fill="#9B9A9A" fill-rule="nonzero"/><g><path d="M712.83,267.25 C723.88,284.91 747.51,271.18 764.75,280.12 C769.66,281.45 778.78,276.54 782.08,281.18 C782.65,281.24 783.66,280.18 783.66,280.18 C790.48,285.42 798.62,292.59 805.25,299.01 C803.54,301.45 801.46,297.16 799.82,296.50 C793.14,299.14 778.60,297.95 769.75,297.44 C762.62,296.32 747.77,297.57 740.75,296.75 C739.37,296.23 719.67,282.15 715.86,279.95 C715.29,279.62 714.05,280.67 713.75,280.50 C706.09,274.30 706.36,279.48 712.83,267.25 Z" fill="#AAA6A6" fill-rule="nonzero"/><g><path d="M726.75,243.46 C737.73,250.31 749.87,257.20 760.88,263.64 C773.52,272.44 777.37,275.01 777.97,275.05 L781.86,278.65 L783.66,280.18 C783.66,280.18 782.65,281.24 782.08,281.18 C778.78,276.54 769.66,281.45 764.75,280.12 C747.51,271.18 723.88,284.91 712.83,267.25 L724.75,244.97 L726.75,243.46 Z" fill="#B5B2B2" fill-rule="nonzero"/><g><path d="M762.21,262.82 L760.88,263.64 C749.87,257.20 737.73,250.31 726.75,243.46 L730.36,243.46 C740.37,250.23 752.21,256.47 762.21,262.82 Z" fill="#101010" fill-rule="nonzero"/><path d="M762.21,262.82 C767.12,266.30 774.43,269.80 777.97,275.05 C777.37,275.01 773.52,272.44 760.88,263.64 L762.21,262.82 Z" fill="#404040" fill-rule="nonzero"/></g><path d="M783.08,277.94 C791.30,283.53 799.17,291.61 806.38,297.99 C806.53,298.12 806.38,299.59 806.38,299.59 L805.25,299.01 C798.62,292.59 790.48,285.42 783.66,280.18 L781.86,278.65 L783.08,277.94 Z" fill="#101010" fill-rule="nonzero"/><path d="M783.08,277.94 L781.86,278.65 L777.97,275.05 C780.42,274.64 781.78,277.08 783.08,277.94 Z" fill="#404040" fill-rule="nonzero"/></g></g><g><path d="M830.02,326.46 L830.42,326.58 L843.05,343.80 C842.59,343.85 841.53,345.51 841.10,345.56 C827.47,347.14 809.54,340.88 798.88,347.50 C796.14,348.29 793.14,343.58 790.25,343.37 L764.44,318.10 C768.61,316.74 771.27,323.06 774.95,324.00 C790.28,322.32 816.12,323.82 830.02,326.46 Z" fill="#8A8989" fill-rule="nonzero"/><g><path d="M843.05,343.80 C847.60,350.18 852.21,357.52 856.25,364.49 C853.42,365.08 852.79,360.46 851.65,360.19 C848.89,359.20 811.47,358.75 807.94,361.13 C805.94,360.75 803.60,353.51 800.83,355.67 L790.25,343.37 C793.14,343.58 796.14,348.29 798.88,347.50 C809.54,340.88 827.47,347.14 841.10,345.56 C841.53,345.51 842.59,343.85 843.05,343.80 Z" fill="#797878" fill-rule="nonzero"/><g><path d="M856.25,364.49 L862.25,375.64 C849.43,369.62 826.22,379.98 813.75,372.25 L800.83,355.67 C803.60,353.51 805.94,360.75 807.94,361.13 C811.47,358.75 848.89,359.20 851.65,360.19 C852.79,360.46 853.42,365.08 856.25,364.49 Z" fill="#6A6A69" fill-rule="nonzero"/><path d="M862.25,375.64 L869.25,388.98 C866.76,389.65 866.34,386.13 865.22,385.89 C852.34,386.35 838.53,387.29 825.68,386.98 L824.41,388.25 L813.75,372.25 C826.22,379.98 849.43,369.62 862.25,375.64 Z" fill="#5D5C5C" fill-rule="nonzero"/></g></g><path d="M830.42,326.58 L830.02,326.46 C822.80,317.24 814.03,308.23 806.38,299.59 L807.91,299.59 C816.30,306.84 823.87,316.45 830.97,325.16 C831.48,325.73 830.15,326.26 830.42,326.58 Z" fill="#101010" fill-rule="nonzero"/></g></g><g><path d="M223.75,295.48 C226.16,296.90 231.05,296.31 232.12,299.00 C236.36,298.47 240.19,299.37 241.75,301.96 C255.31,298.64 270.14,308.19 280.49,298.39 C281.19,298.06 281.69,299.31 282.23,299.06 C270.42,308.05 257.81,318.40 247.71,328.50 C242.23,328.88 237.44,326.47 235.75,324.12 C226.43,323.33 217.73,321.59 207.40,322.00 C198.26,312.35 194.19,332.78 187.25,333.56 C192.66,326.10 198.73,319.30 204.75,312.26 L205.00,312.00 L205.50,311.54 L215.86,300.84 C215.38,304.78 223.42,294.98 223.75,295.48 Z" fill="#9B9A9A" fill-rule="nonzero"/><g><path d="M245.85,275.05 C258.77,279.42 286.94,277.48 301.49,283.48 L301.50,285.48 L295.40,289.75 C291.23,292.48 285.97,296.38 282.23,299.06 C281.69,299.31 281.19,298.06 280.49,298.39 C270.14,308.19 255.31,298.64 241.75,301.96 C240.19,299.37 236.36,298.47 232.12,299.00 C231.05,296.31 226.16,296.90 223.75,295.48 C234.78,285.72 236.34,284.06 235.67,282.79 L240.87,278.63 L241.48,278.08 L245.85,275.05 Z" fill="#AAA6A6" fill-rule="nonzero"/><g><path d="M241.48,276.34 L241.48,278.08 L240.87,278.63 L235.67,282.79 L235.14,283.25 C228.24,288.52 221.88,295.30 215.86,300.84 L205.50,311.54 L205.50,310.07 C215.90,297.53 228.15,285.91 241.48,276.34 Z" fill="#101010" fill-rule="nonzero"/><path d="M223.75,295.48 C223.42,294.98 215.38,304.78 215.86,300.84 C221.88,295.30 228.24,288.52 235.14,283.25 L235.67,282.79 C236.34,284.06 234.78,285.72 223.75,295.48 Z" fill="#B5B2B2" fill-rule="nonzero"/></g><path d="M265.31,260.32 L266.22,261.05 C259.60,265.52 252.00,269.96 245.85,275.05 L241.48,278.08 L241.48,276.34 C248.49,271.05 256.98,264.37 265.31,260.32 Z" fill="#404040" fill-rule="nonzero"/><path d="M307.25,281.56 L301.50,285.48 L301.49,283.48 C302.98,282.81 305.15,280.02 307.25,281.56 Z" fill="#9B9A9A" fill-rule="nonzero"/></g><g><path d="M247.71,328.50 C240.24,335.87 232.41,343.87 225.58,351.75 L220.81,347.05 C208.29,345.48 194.52,346.21 181.25,346.46 C178.88,348.84 174.40,352.91 173.42,356.75 L171.93,358.45 L170.76,357.80 C175.67,350.08 182.06,340.48 187.25,333.56 C194.19,332.78 198.26,312.35 207.40,322.00 C217.73,321.59 226.43,323.33 235.75,324.12 C237.44,326.47 242.23,328.88 247.71,328.50 Z" fill="#8A8989" fill-rule="nonzero"/><g><path d="M225.58,351.75 L213.87,366.56 C207.07,364.14 196.05,363.84 187.07,363.39 C182.89,357.82 178.77,364.64 173.42,356.75 C174.40,352.91 178.88,348.84 181.25,346.46 C194.52,346.21 208.29,345.48 220.81,347.05 L225.58,351.75 Z" fill="#797878" fill-rule="nonzero"/><g><path d="M173.42,356.75 C178.77,364.64 182.89,357.82 187.07,363.39 C196.05,363.84 207.07,364.14 213.87,366.56 L206.00,377.36 C195.46,375.99 177.65,374.92 160.75,375.47 C162.21,372.78 164.19,368.27 165.75,366.55 C166.64,366.26 168.03,364.77 169.41,363.06 C170.79,361.36 171.93,359.62 171.93,358.45 L173.42,356.75 Z" fill="#6A6A69" fill-rule="nonzero"/><path d="M170.76,357.80 L171.93,358.45 C171.93,359.62 170.79,361.36 169.41,363.06 C168.03,364.77 166.64,366.26 165.75,366.55 L170.76,357.80 Z" fill="#797878" fill-rule="nonzero"/></g></g></g></g><g><path d="M151.30,394.75 C154.46,398.81 164.26,396.45 168.75,399.00 L192.42,399.00 L181.40,419.72 C174.42,417.49 164.96,414.82 157.25,414.05 C153.56,412.83 147.25,413.93 144.85,411.37 C146.35,405.90 149.17,399.50 151.30,394.75 Z" fill="#404040" fill-rule="nonzero"/><g><path d="M198.75,388.46 L192.42,399.00 L168.75,399.00 C164.26,396.45 154.46,398.81 151.30,394.75 L153.76,389.75 C156.88,388.78 156.90,384.53 159.45,383.25 C172.71,384.65 186.19,388.04 198.75,388.46 Z" fill="#4E4E4E" fill-rule="nonzero"/><path d="M160.75,375.47 C177.65,374.92 195.46,375.99 206.00,377.36 L198.75,388.46 C186.19,388.04 172.71,384.65 159.45,383.25 C156.90,384.53 156.88,388.78 153.76,389.75 L160.75,375.47 Z" fill="#5D5C5C" fill-rule="nonzero"/></g><path d="M144.85,411.37 C147.25,413.93 153.56,412.83 157.25,414.05 C164.96,414.82 174.42,417.49 181.40,419.72 L175.93,432.03 C175.73,434.36 171.38,433.32 170.06,433.15 C163.77,428.23 154.01,424.58 142.75,425.48 L140.25,423.55 C140.15,423.13 144.14,411.56 144.85,411.37 Z" fill="#101010" fill-rule="nonzero"/></g><path d="M273.50,390.00 C271.55,405.70 262.62,414.60 258.00,427.56 C244.26,466.09 235.44,522.16 243.01,572.75 C250.77,624.61 284.64,683.03 315.75,712.57 C325.70,722.02 338.09,732.32 349.75,740.96 C390.46,770.19 441.03,791.11 510.50,792.50 C549.80,789.64 588.82,785.24 615.75,771.01 C629.61,765.50 643.47,757.70 654.75,750.56 C707.13,714.30 747.50,664.01 766.12,594.75 C773.77,556.43 778.07,507.58 769.86,466.75 L760.82,429.75 C756.22,418.17 749.64,404.69 742.50,394.45 L751.25,390.85 C757.50,395.73 760.25,405.98 762.91,413.25 C770.11,439.07 779.71,462.08 781.64,493.25 C787.22,549.93 770.93,632.72 745.50,662.08 C730.06,698.98 697.56,722.16 672.75,748.83 L667.25,752.27 C623.80,784.62 564.68,802.11 488.19,799.00 C474.42,793.70 452.55,795.88 437.75,791.36 C429.85,789.09 419.06,786.53 411.75,782.39 C347.01,756.90 300.34,714.75 266.00,658.75 C263.83,655.22 261.50,651.48 259.90,647.25 C247.50,622.40 237.38,592.10 234.00,557.00 C234.64,525.38 231.46,488.47 238.98,464.75 L245.63,435.75 C255.53,423.86 258.34,401.03 268.25,387.86 L273.50,390.00 Z" fill="#2D0000" fill-rule="nonzero"/><path d="M603.85,235.45 L606.68,232.50 L626.36,232.50 C653.54,243.29 675.47,259.75 699.75,273.60 C715.60,289.43 735.15,307.50 747.75,326.29 C752.12,331.05 754.64,337.18 753.45,347.05 C752.76,347.01 750.99,347.95 745.60,351.21 C742.82,347.59 742.74,341.33 739.51,338.25 C706.86,306.78 679.07,267.30 630.45,251.00 C626.41,248.83 620.67,246.16 619.24,241.97 C614.54,241.36 610.71,237.30 607.05,237.64 C607.40,235.81 604.62,236.23 603.85,235.45 Z" fill="#140000" fill-rule="nonzero"/><g><path d="M745.60,351.21 L742.00,353.52 L740.54,354.21 C707.24,317.91 677.03,277.98 625.45,260.00 C619.23,256.67 615.74,248.62 605.93,249.00 C605.19,249.03 604.16,250.88 602.27,249.44 L603.60,246.07 L607.05,237.64 C610.71,237.30 614.54,241.36 619.24,241.97 C620.67,246.16 626.41,248.83 630.45,251.00 C679.07,267.30 706.86,306.78 739.51,338.25 C742.74,341.33 742.82,347.59 745.60,351.21 Z" fill="#1D0000" fill-rule="nonzero"/><g><path d="M602.27,249.44 C604.16,250.88 605.19,249.03 605.93,249.00 C615.74,248.62 619.23,256.67 625.45,260.00 C677.03,277.98 707.24,317.91 740.54,354.21 L732.25,359.62 C731.51,358.53 730.15,354.67 729.48,353.98 C704.16,327.96 679.54,298.11 646.75,280.63 C635.23,273.22 622.79,269.31 611.00,262.83 C609.74,259.07 604.72,255.70 600.25,254.50 L602.27,249.44 Z" fill="#260000" fill-rule="nonzero"/><g><path d="M742.00,353.52 C742.00,355.38 743.18,356.92 745.39,359.06 L748.78,362.35 L768.75,362.35 C772.82,366.87 778.94,372.13 782.63,377.39 L782.00,378.00 L781.25,378.02 C773.69,376.88 740.28,396.47 734.58,394.50 L720.83,380.05 L718.75,380.05 L711.75,373.49 L714.09,371.25 L722.75,365.67 L732.25,359.62 L740.54,354.21 L742.00,353.52 Z" fill="#988483" fill-rule="nonzero"/><path d="M753.45,347.05 L768.75,362.35 L748.78,362.35 L745.39,359.06 C743.18,356.92 742.00,355.38 742.00,353.52 L745.60,351.21 C750.99,347.95 752.76,347.01 753.45,347.05 Z" fill="#9B9A9A" fill-rule="nonzero"/></g></g></g><path d="M871.16,393.25 C873.64,398.31 876.24,404.58 878.21,410.65 C875.47,411.22 874.32,410.59 873.00,412.85 C861.14,412.98 853.45,418.06 840.93,417.60 L839.45,414.87 L830.10,397.61 C843.97,397.10 862.22,399.16 871.16,393.25 Z" fill="#404040" fill-rule="nonzero"/><path d="M878.21,410.65 C879.73,412.95 881.39,418.46 882.01,422.67 L850.00,435.62 C848.54,435.62 842.05,419.81 840.93,417.60 C853.45,418.06 861.14,412.98 873.00,412.85 C874.32,410.59 875.47,411.22 878.21,410.65 Z" fill="#101010" fill-rule="nonzero"/><path d="M869.25,388.98 L871.16,393.25 C862.22,399.16 843.97,397.10 830.10,397.61 L824.41,388.25 L825.68,386.98 C838.53,387.29 852.34,386.35 865.22,385.89 C866.34,386.13 866.76,389.65 869.25,388.98 Z" fill="#4E4E4E" fill-rule="nonzero"/><path d="M781.25,378.02 L771.00,382.37 L761.25,386.63 L751.25,390.85 L742.50,394.45 L735.14,397.48 L718.75,380.05 L720.83,380.05 L734.58,394.50 C740.28,396.47 773.69,376.88 781.25,378.02 Z" fill="#5D5C5C" fill-rule="nonzero"/><path d="M426.48,56.85 C417.62,58.88 406.07,60.80 398.61,63.25 C390.37,65.20 381.61,68.13 374.33,70.25 C362.93,73.69 350.32,78.61 340.00,82.81 C327.16,87.93 315.16,94.39 302.76,100.25 L302.50,100.50 L302.00,100.50 L301.50,101.00 L301.12,101.04 C298.65,98.10 299.79,91.50 296.50,89.25 L296.50,77.97 C351.99,49.22 417.38,29.43 497.75,25.52 C592.89,23.27 667.91,46.14 728.77,77.77 L729.68,78.61 C727.63,82.82 725.01,87.73 724.93,94.30 L720.33,98.98 L720.00,99.00 L719.49,98.49 C709.53,93.76 699.69,88.29 688.90,84.25 C679.11,79.45 665.77,74.76 653.99,70.93 C642.58,66.95 629.47,63.04 616.52,60.39 C608.78,58.01 598.22,56.76 589.51,54.97 L571.00,52.26 C538.63,47.85 492.82,47.60 459.42,52.02 C448.56,53.00 436.23,54.93 426.48,56.85 Z" fill="#F9F9F8" fill-rule="nonzero"/><path d="M580.87,931.92 L584.00,935.30 L584.01,969.56 L583.25,969.50 L581.75,970.00 C571.71,971.64 558.02,972.96 547.25,974.29 C526.40,975.84 500.16,975.97 479.30,974.18 C468.57,973.41 456.00,971.54 446.00,970.17 L426.89,966.66 C433.41,958.84 434.62,944.31 434.59,930.01 C477.11,938.51 536.37,939.24 580.87,931.92 Z" fill="#F9F9F8" fill-rule="nonzero"/><path d="M249.75,844.63 C284.00,870.58 323.19,895.14 369.03,910.60 C369.62,911.66 373.44,912.88 374.50,913.35 C372.14,928.11 359.82,934.25 353.75,945.61 L345.50,942.47 C328.63,935.73 311.31,927.35 296.22,919.51 C270.21,904.82 244.95,888.43 222.75,870.09 C225.69,866.92 245.65,844.91 246.79,844.45 C247.28,844.25 248.41,845.17 249.75,844.63 Z" fill="#C7C6C6" fill-rule="nonzero"/><path d="M377.00,899.50 C377.00,902.52 376.39,903.37 369.03,910.60 C323.19,895.14 284.00,870.58 249.75,844.63 L231.00,828.59 C222.51,820.86 213.29,812.57 205.65,804.26 L201.80,799.97 L211.70,790.04 C255.32,836.88 310.10,875.10 377.00,899.50 Z" fill="#AAA6A6" fill-rule="nonzero"/><g><path d="M210.83,860.05 L222.75,870.09 C244.95,888.43 270.21,904.82 296.22,919.51 L289.50,926.28 L289.50,941.04 C255.09,922.27 222.78,900.05 194.89,875.15 L195.32,868.95 L207.25,856.92 L210.83,860.05 Z" fill="#4E4E4E" fill-rule="nonzero"/><g><path d="M205.65,804.26 C213.29,812.57 222.51,820.86 231.00,828.59 L231.00,834.91 C224.35,843.14 218.94,853.20 210.83,860.05 L207.25,856.92 C198.22,848.23 187.38,838.92 179.48,829.75 L205.65,804.26 Z" fill="#F9F9F8" fill-rule="nonzero"/><g><path d="M201.80,799.97 L205.65,804.26 L179.48,829.75 C175.04,825.08 169.62,820.16 165.75,815.13 L191.75,788.90 L201.80,799.97 Z" fill="#DCDBDB" fill-rule="nonzero"/><g><path d="M183.86,756.50 C192.52,768.04 202.09,779.38 211.70,790.04 L201.80,799.97 L191.75,788.90 L183.75,779.46 C180.55,775.10 175.92,770.18 173.36,765.75 C180.65,758.58 183.01,756.50 183.86,756.50 Z" fill="#9B9A9A" fill-rule="nonzero"/><path d="M191.75,788.90 L165.75,815.13 L158.36,806.73 C158.94,804.81 164.65,798.67 183.75,779.46 L191.75,788.90 Z" fill="#C7C6C6" fill-rule="nonzero"/></g></g><path d="M249.75,844.63 C248.41,845.17 247.28,844.25 246.79,844.45 C245.65,844.91 225.69,866.92 222.75,870.09 L210.83,860.05 C218.94,853.20 224.35,843.14 231.00,834.91 L231.00,828.59 L249.75,844.63 Z" fill="#DCDBDB" fill-rule="nonzero"/></g><g><path d="M345.50,942.47 L345.50,960.71 L341.75,964.53 C323.95,958.30 305.95,949.26 289.50,941.04 L289.50,926.28 L296.22,919.51 C311.31,927.35 328.63,935.73 345.50,942.47 Z" fill="#5D5C5C" fill-rule="nonzero"/><g><path d="M353.75,945.61 C368.29,951.38 385.31,956.39 401.00,960.92 L401.00,983.59 C380.32,978.47 360.02,972.03 341.75,964.53 L345.50,960.71 L345.50,942.47 L353.75,945.61 Z" fill="#6A6A69" fill-rule="nonzero"/><g><path d="M426.89,966.66 L446.00,970.17 L446.00,992.59 C430.76,990.17 414.88,987.06 401.00,983.59 L401.00,960.92 C409.40,962.73 418.18,965.39 426.89,966.66 Z" fill="#797878" fill-rule="nonzero"/><path d="M479.30,974.18 L480.11,991.16 C480.46,991.98 482.38,994.09 482.00,996.49 C469.84,995.60 456.95,994.34 446.00,992.59 L446.00,970.17 C456.00,971.54 468.57,973.41 479.30,974.18 Z" fill="#8A8989" fill-rule="nonzero"/></g></g></g></g><path d="M571.00,52.26 C571.56,64.87 569.72,80.31 572.25,91.18 C536.63,86.11 493.18,85.91 457.00,90.49 L455.01,90.59 C454.47,88.46 456.18,87.61 456.93,86.91 C456.65,77.26 459.62,69.52 460.53,60.75 C461.37,59.57 461.52,52.59 459.42,52.02 C492.82,47.60 538.63,47.85 571.00,52.26 Z" fill="#DCDBDB" fill-rule="nonzero"/><g><path d="M459.42,52.02 C461.52,52.59 461.37,59.57 460.53,60.75 C459.62,69.52 456.65,77.26 456.93,86.91 C456.18,87.61 454.47,88.46 455.01,90.59 C444.30,92.42 431.92,94.15 421.50,96.56 C423.43,84.98 430.62,69.44 426.48,56.85 C436.23,54.93 448.56,53.00 459.42,52.02 Z" fill="#C7C6C6" fill-rule="nonzero"/><g><path d="M426.48,56.85 C430.62,69.44 423.43,84.98 421.50,96.56 L407.75,100.00 L394.00,103.50 C394.50,89.06 400.21,79.87 398.61,63.25 C406.07,60.80 417.62,58.88 426.48,56.85 Z" fill="#B5B2B2" fill-rule="nonzero"/><path d="M398.61,63.25 C400.21,79.87 394.50,89.06 394.00,103.50 L370.72,111.12 C366.96,103.31 370.90,92.21 374.00,87.22 C373.33,80.70 375.50,75.60 374.33,70.25 C381.61,68.13 390.37,65.20 398.61,63.25 Z" fill="#AAA6A6" fill-rule="nonzero"/><path d="M457.00,90.49 L457.00,99.71 L461.25,104.12 L439.23,107.37 L418.75,111.56 L407.75,100.00 L421.50,96.56 C431.92,94.15 444.30,92.42 455.01,90.59 L457.00,90.49 Z" fill="#5D5C5C" fill-rule="nonzero"/></g></g><path d="M620.00,908.47 C620.00,910.36 621.52,912.27 629.25,920.07 C614.62,924.93 596.59,928.27 580.87,931.92 C536.37,939.24 477.11,938.51 434.59,930.01 L432.25,928.65 C435.48,925.23 435.50,925.13 435.50,915.58 C492.13,928.22 569.82,923.77 620.00,908.47 Z" fill="#C7C6C6" fill-rule="nonzero"/><g><path d="M646.18,914.86 C647.80,928.43 655.06,938.50 658.50,950.70 L641.92,956.11 C627.67,960.25 611.34,964.55 595.50,967.64 L584.01,969.56 L584.00,935.30 L580.87,931.92 C596.59,928.27 614.62,924.93 629.25,920.07 L646.18,914.86 Z" fill="#DCDBDB" fill-rule="nonzero"/><g><path d="M641.92,956.11 C642.28,963.79 641.21,974.17 646.25,977.70 C630.75,982.49 612.83,986.67 595.50,990.05 L595.50,967.64 C611.34,964.55 627.67,960.25 641.92,956.11 Z" fill="#797878" fill-rule="nonzero"/><path d="M681.76,941.96 L686.18,946.48 L686.63,963.56 C674.03,968.59 659.53,973.78 646.25,977.70 C641.21,974.17 642.28,963.79 641.92,956.11 L658.50,950.70 L681.76,941.96 Z" fill="#6A6A69" fill-rule="nonzero"/></g></g><path d="M432.25,928.65 L434.59,930.01 C434.62,944.31 433.41,958.84 426.89,966.66 C418.18,965.39 409.40,962.73 401.00,960.92 C385.31,956.39 368.29,951.38 353.75,945.61 C359.82,934.25 372.14,928.11 374.50,913.35 C392.58,919.19 412.17,925.41 432.25,928.65 Z" fill="#DCDBDB" fill-rule="nonzero"/><path d="M572.25,91.18 L584.03,93.25 L577.50,99.72 L577.50,106.46 C543.76,100.56 497.03,99.93 461.25,104.12 L457.00,99.71 L457.00,90.49 C493.18,85.91 536.63,86.11 572.25,91.18 Z" fill="#6A6A69" fill-rule="nonzero"/><path d="M547.25,974.29 L551.50,978.79 L551.50,995.99 C529.63,997.60 504.30,998.19 482.00,996.49 C482.38,994.09 480.46,991.98 480.11,991.16 L479.30,974.18 C500.16,975.97 526.40,975.84 547.25,974.29 Z" fill="#9B9A9A" fill-rule="nonzero"/><path d="M595.50,967.64 L595.50,990.05 C581.64,992.41 566.45,994.54 551.50,995.99 L551.50,978.79 L547.25,974.29 C558.02,972.96 571.71,971.64 581.75,970.00 L583.25,969.50 L584.01,969.56 L595.50,967.64 Z" fill="#8A8989" fill-rule="nonzero"/><path d="M435.50,915.58 C435.50,925.13 435.48,925.23 432.25,928.65 C412.17,925.41 392.58,919.19 374.50,913.35 C373.44,912.88 369.62,911.66 369.03,910.60 C376.39,903.37 377.00,902.52 377.00,899.50 C395.22,906.02 415.12,911.34 435.50,915.58 Z" fill="#B5B2B2" fill-rule="nonzero"/><path d="M296.50,77.97 L296.50,89.25 C299.79,91.50 298.65,98.10 301.12,101.04 L275.32,115.75 C271.45,110.13 271.98,99.17 265.75,95.31 C275.25,89.48 286.10,83.31 296.50,77.97 Z" fill="#DCDBDB" fill-rule="nonzero"/></svg>
